<svg xmlns="http://www.w3.org/2000/svg" viewBox="0 0 50 51.4"><title>Asset 1</title><path d="M46.3,28.3c.2.1.7.4.8.3a7.4,7.4,0,0,0,2.7-1.3L50,27c-.3-.2-.3-.4-.4-.7s-1.6-.3-2.2-.7S46,24.4,45.2,24a5.8,5.8,0,0,1-1.4-.5h-.2v-.2c.3.1,2.4.1,2.4.2h0c1-.1,1.4-.5,2.2-.6s.2-.5.4-.6v-.2c-.3-.8-1.5-.7-2.3-1.1s-1.8-1.4-2.6-2v.2h1.5c.3-.2.3-.4.4-.5s1-.3,1.1-.3.1-.6.2-.8-2.3-2-3-2.8h-.1l2.1-1.4v-.2c-.1-1-2.7-1.7-3.3-2.4h-.2a3.4,3.4,0,0,0,1.5-.6c0-.2-.1-.3-.1-.4a5.8,5.8,0,0,0-1.7-1.4.7.7,0,0,1,.4-.5c-.1-1.1-1.2-1.5-1.8-2.1v.3h-.3l-.4-.9c-.6.1-.6.8-.8,1.4a17.5,17.5,0,0,0-1.3,2.8l.7.2h.1a10.4,10.4,0,0,1-1.5,2c-.2-.1-.1,0-.1-.2s-.3-.3-.3-.3h-.1l.2.6v.4h-.4c0,.5,0,.5.2.7h1.1c-.1.4-.2.4-.4.7s-.2.6-.4.9A7.8,7.8,0,0,1,34.4,17v.2a.7.7,0,0,0,.5.7,1.9,1.9,0,0,0,1.8-.2h.1A14.2,14.2,0,0,1,34,20.9c0,.4,0,.4.3.6s-.1.3-.2.5a1.5,1.5,0,0,0,.2.8,1.4,1.4,0,0,0,1.3-.3H36a9.3,9.3,0,0,1-2.1,2.7,4.1,4.1,0,0,1-1.1.7,3,3,0,0,1-.2,1c0,.2.1.2.1.3s.3-.1.4-.3,1.1,1.3,2.4.5a.5.5,0,0,0,.6-.2h.3c-.3.7-1.1,1.4-1.1,2s-1.4-.6-1.9,0-.3.2-.6.5a5.8,5.8,0,0,0-1.4.5c-.3.2-.5.7-.8.8h-.4a4.1,4.1,0,0,0-1.1,1.7c.1.7-.6.2-.6.2h-.1l.2.6a.7.7,0,0,1-.4.4h-.8c0-1.5-.3-2.3-.3-3.9l-.2-.3h-.2a4.1,4.1,0,0,1,.1-1.1c-.1-.5-.3-1.3-.4-1.9s-.2,0-.3-.2l-.3.3c-.2.2.1,1.1,0,1.3s0,1.3-.1,1.8.1,3.3.6,3.8-1.5.1-1.6.3h0c.2-.2.1-.3.4-.4s.5-2.4.1-3.4,0-.1-.2-.2l-.2-.3c0-.2,0-.2.1-.3V29a6.2,6.2,0,0,1-3.1.3c.4-1,1.8-1.7,1.8-2.8a2.4,2.4,0,0,1,.8-.6h.4l.2-.2h0c0-.2-.1-.2-.1-.4a2.1,2.1,0,0,0-1.2.8,3.1,3.1,0,0,1-1.5-.4v-.2l.7-.4a8,8,0,0,0,1.3-1.3c.1-.8-.2-.9-.4-1.6s0,.1-.1-.1-.3.3-.4.4-1.2-.4-1.5-.5h0c.6-.6,2.2-2.7,1.6-3.6s0-.4-.2-.5h.3a2.5,2.5,0,0,0-.1-.8c.1-.4.7-.9.9-1.2s-.4-1-.2-1.4l.4-.3c.1-.3,0-.3.4-.6s-.5-.6-.9-.9a6.9,6.9,0,0,1,.4-1,.7.7,0,0,0-.1-.5c.1-.2.3-.3.3-.6a.4.4,0,0,1-.1-.3c0-.2.2-.3.3-.5s-.6-.6-1.1-1.2V8.2c.4.1,1-.4,1.3-.6s-.6-1.3-.9-1.9-.4-1.1-.4-1.1V3.7s1-.1.9-.2a.6.6,0,0,1,.1-.4V1.7h0A7.9,7.9,0,0,0,25,4.5a13,13,0,0,1,.8,1.7c-.2.4-.6,1-.1,1.4l-.5.4c0,.4-.1.7.1,1a1.9,1.9,0,0,0,1.3.7c0,.1.1.1.2.2v.3a6.1,6.1,0,0,1-1.5,1.2c.1.6.4.5.7.8s0,.2-.1.3.1.3.3.4v.3c-.1.3-.2.3-.4.3s.2.2,0,.3,2.1.7,1.9,1.4h0c.8.1.8.2.7.3l-1,.2c0,.3.2.4.4.5s-1,.6-1.5.7H26c.3.3.6.8,1.1.9h.6a2.4,2.4,0,0,0,.8.3H28l-.9-.2-.5.3c0,.3.1.9.1,1a7.5,7.5,0,0,0,2,1h.1a5.6,5.6,0,0,1-2.3.6h0c0,.3,1,1,1.3,1.4l-.2.3a.8.8,0,0,0,.7.3l-.3.4,1.4,1.8c.2.2.4.1.6.2l.6.7-.2.2h-1l-1.5.6c0,.2,0,.3.1.4h.8c.3.2.4.5.7.7s-.1.1-.3.1-.1.5.1.7-.3.4-.6.6v.3h0l-.2.2-.3-.4c-.2.1-.1.1-.2.2s1.9.5,2.3.1-.1-.8.1-1.2.2-.2.3-.3-.6-1.2-1.3-1.3h0a4.1,4.1,0,0,0,2.4-.2c.1-.1.1,0,.1-.1v-.3c-.5-1-1.4-1.5-2.6-2.3v-.6c.5-.1.2-.2.1-.3s-.4-1.2-1.1-1.5a10,10,0,0,1,1.8-.9c0-.8-1.7-1.6-1.7-1.6h0l1.1-.4c0-1.2-.8-1.2-1.4-1.9h-.1l1.3-.8v-.3c-.2.4.6-.4.6-.5v-.6l-1.7-.9a1.9,1.9,0,0,0-1.2.1H27a5,5,0,0,1,.3-1.4,1.4,1.4,0,0,0-.5-1.1c.1-.4.6-.4.8-.7s0-.3.3-.5a1.5,1.5,0,0,0-.3-1c-.2-.5-.8-.5-1.1-.9s.7-1.7.4-2.4a27.2,27.2,0,0,0-1.1-2.5c0-.4.1-.7.1-1.1s-.3-1.4-.5-2L24.7.2V0h-.1c-.3.2-.1.3-.3.6l-.5.3c-.8.9.3,2.8-.7,3.8a.6.6,0,0,0,.2.5,3.1,3.1,0,0,1-.8,1.1,3.6,3.6,0,0,1,.3,1.1h0s-.1.4-.3.5.6,1.2.8,2-.4,1.2-.1,1.8-.9,1.1-1.3,1.3a1.2,1.2,0,0,0,.9.9h.3a4.4,4.4,0,0,0-.2,1.6c-.1,1.1-1.9.9-2.2,2l.4.5h1c.3.1.5.3.8.2H23a1.1,1.1,0,0,1-.6.7,1.9,1.9,0,0,1,.2.7,3.9,3.9,0,0,1-1.8,2c0,.3,0,.3.2.4s-.2.2-.4.3a1.5,1.5,0,0,0,.2.4,2,2,0,0,1,1.3-.1l.3.4,1.3.3h0l-1.1.8c-.4.2-.7,1-1.2,1.3a1.8,1.8,0,0,0,1.2,1.3,4.4,4.4,0,0,1-1,1.9c-.1.1-.5.1-.8.4s-.2.5-.6.8v.2h.4l.2.5.5.2c.2-.3.8-.4,1.1.3h.2v-.6h.1l.8.7h.2v-.5c.3.1.5.2.7,0l.4.2v2c-.2.5-.4,1.2-.1,1.4s-.5.4-.8.5,0,.1.1.2h-.1c-.4,0-.4-.1-.7,0a1.8,1.8,0,0,0-.1-1.6,2.3,2.3,0,0,0-1-.7c-.1-.1-.6.2-.8.3a4.2,4.2,0,0,0-1.6-2.1c-.3-.2-.6-.1-.9-.4a18,18,0,0,0-1.9.5c-.6.2-.7-.5-1.3.1h-.1c.1-.6.8-.7.8-.7h0a1.7,1.7,0,0,0,1.2.1c.4-.1.6-.5,1-.7l1.1-.4c.5-.3,1.8-1.8,1.4-2.6s-1.1-.8-1.2-1.6-1.9-.7-2.8-.4-.6.5-.8.6-.7,0-1,.2l-.6-.3c.1-.1.1-.1-.2-.2h0c.3-.3.3-.2.2-.4a2.6,2.6,0,0,1-1.4-.4l-.3-.3c0-.2,0,0,.1-.1s0-.1.1.1.5-.4.5-.5h.3c.1.1.1.1.1.2a.5.5,0,0,1,.5,0c.3.1.3.2.5.8h0l.8-.5s.3.3.4.2l1.5-.7c.4-.1,1-.1,1.2-.4l.3-.9c-.2-.6-.8-.8-1.1-1.3l-.6-1.3c-.2-.3-.6-.4-.8-.7H15.5l.6-.2a2.4,2.4,0,0,0,.2-.8c-.4,0-1.1.1-1.4-.1s0-.4.2-.5a.4.4,0,0,0-.5-.3h0l1.3-.5c.6-.2,1.4-1.4,1-2.1s-1.2-1.4-1.6-1.6h-.4c-.6,0-.6-.4-1.2-.6s-.6.1-.7.1h-.2c0-1.1,1.7-.9,2.1-2.1s-.2-.5-.3-.7h-.7a2.4,2.4,0,0,1-1.1-2.5c-.2-.3-.8-.9-1.4-.8h-.9v.3a.5.5,0,0,1-.1.3c.1.4.3,1.1.1,1.3h0c.3-.1.4-.1.3-.2a4.8,4.8,0,0,0-1.1.6h-1c0,.2.1.3.1.4A6.4,6.4,0,0,0,8,10.1c0,.7,1.5.6,2.1.9H10a3.7,3.7,0,0,1-1.7.5l-1.4.9A5.3,5.3,0,0,0,7,13.8c.5.4,2.8.7,3.3.2h.2v.6H9.9c.1.4.3.3.6.4s.1.4.1.6h-.1c-2,0-1.8-.2-3.1.6H6.9c0,.1,0,.4-.1.5a2.7,2.7,0,0,1-1,.8,1.9,1.9,0,0,0,2.5,2.1c.4,0,.8-.3,1.1-.2s0-.1.1.1h.1l-1,.3v.9s2-.4,2.6-1.2h0a21.1,21.1,0,0,0-.3,2.1,4.4,4.4,0,0,0-3.2.2c-.7.1-1.5-.1-2,.3l-1,1.2c-.1.2-.2,1-.3,1.1s.5.5.3.8,1.3.9,2.3,1,.7-.4,1.2,0,.5,0,.7-.2.9.3,1.2,0l.4-.2h0c.1.1.1.1.1.3h.1l-.5.6a7.2,7.2,0,0,0-2.4.5l-.3.4c0,.3,0,.3.2.4s.7-.3.7.7a.5.5,0,0,1,.4.2v.2l-.9-.2c-.7.2-1,.6-1.7-.1s-1,.6-1.6.8-1,0-1.2.2S2.5,31.1,2,31.6a7.4,7.4,0,0,0,.3,2.6l.9.8h.6c.9-.8,2.1-.5,3.4-.7a4,4,0,0,0,1.3-.6c.4-.1.8.1,1.1-.2a.5.5,0,0,0,.2-.4c.2,0,.2-.3.2-.3h1.2a2.5,2.5,0,0,0,.1.8c-.1.2,0,.3-.3.4a1.4,1.4,0,0,1-.2.7,10.9,10.9,0,0,1,.1,1.8c-.2.7-.7,1.1-.3,1.9s0,.2.2.2a6.9,6.9,0,0,0,.1,2.1,1.1,1.1,0,0,0-.4,1.1v.5H9.8c.2-1.1.7-3.4.7-3.4v-.2h-.4a12.8,12.8,0,0,0-.7,2.8l.3.6H10a.8.8,0,0,1-.2.4c-.5,0-.8.6-1.3.2l-.4.2v.3l1.9-.2h.2c.1-.3.2-.4.2-.6s.7-.5,1-.8.2-.7.3-.5h-.1c.4-1.4-.4-2.5-.1-3.7s-.2-.8,0-1.3a5.7,5.7,0,0,1,.4-1.4c.1-.5-.2-1.4-.1-2l-.2-.2a5,5,0,0,0-1.6.3v-.5H9.3l.3-.6v-.2H9.4c-.1.4-.3,1-.6,1.1s-1,0-1.4.3v-.2c-.4,0-.4.2-.7.3v-.4H6.5c-.2.1.2.4.2.4h0s-1-.4-1.1-.6l-.3.2a.8.8,0,0,0,.2.5v.4H4.9v-.6H4.7c-.1.1-.1.2-.1.4s-.9.1-1.1.4-.6-1.5-.8-1.9L4,30.8a3.2,3.2,0,0,1,1.6.9h.1c0-.2,0-.2-.2-.3a1.1,1.1,0,0,0,.1-.5h.1c.2.1.6,1.2.6,1.2h.1a9,9,0,0,0-.5-1.6A.6.6,0,0,1,6,30c.4,0,1.2.2.7.4v-.3h.9v.6c-.2-.1-.3-.1-.2-.6h.2c-.1.7-.2.9-.2,1.1V32h.1L8,30.2h.6c.2.1.1.3.3.5h.3c.2.1.4.7.5,1.1H10s0,.1-.5.2v.3c.9,0,1.4-.1,1.6.2s.5-.3.8-.5a4,4,0,0,0,0-1.1c-.1-.3.5-.3.5-.3V30s-.5-.2-.4-.4l.7.3c0,.2-.1,1.6-.4,1.8s-.1.8.1,1.2-.1.3-.3.5.1.4.3.5a.7.7,0,0,1-.3.6c.1.2.1.4.2.6s-.3.8.1,1.2v.4h.1v-.3c0,.8-.4,1.8,0,2.2v1.6a19.7,19.7,0,0,0,.3,2.4c.3.3.8.5,1,.9h.1c0-.1,1,0,1.5-.1l.4.5c1-.1,1.9-.6,2.9-.6v-.3a.7.7,0,0,0-.6.2,3,3,0,0,1-.7-1.5c-.2,0-.1,0-.2.1s.4,1,.6,1.4a8.3,8.3,0,0,1-1.3.2c-.4,0-.5-.2-.7-.5a1.7,1.7,0,0,1-1,0,4.4,4.4,0,0,0-.5-1.5l-.3-.3c-.1-.5-.5-1.3-.3-1.8s.6-2.3,0-2.9a1.7,1.7,0,0,0,.1-.7H14l.2.5c.5.5,3.3,2.1,4,2l.8-.5a2.3,2.3,0,0,1,1.1.2h.2c-.1.3-.3.6-.2.9s-.6.8-.7.9V40h1a8.4,8.4,0,0,1-.5,3.1h.2l.3-.3a4.4,4.4,0,0,1,.5-3H21c.3-.4-.1-.8,0-1.4s.6-.7.8-1.1v-.2c.2-.3.4-.2.4-.5h0v-.4h.2c.2-.2.3-.3.3-.5l.9.4c.3-.1.3-.1.4-.4H24c.7-.2.8-1,1.6-.4s1-.9,1.9-.5a2,2,0,0,1,.4.8c.7,0,1-.8,1.3-1.3s.2.1.3.3l.3-.2c.2-.1.1-.2.4-.2a3.4,3.4,0,0,1,.1-2.2l1,.3v.4l.5-.3c.1-.1,0-.1,0-.2H32v-.8c.2-.4.7-.5,1-.6s.6.3,1,.3a1.6,1.6,0,0,0,.4-.7c.5,0,.9-.2,1.1,0h.3a3.1,3.1,0,0,1,.2.8c.4.2,1,.3,1,1h.1l.2.5.9-.3c.2.1.1.2.4.1a2.7,2.7,0,0,1,.3,1.2l.4.5c.4-.1.3-.2.7,0a1.9,1.9,0,0,1,.2,1.5v.5a1.6,1.6,0,0,1,1,.2c.2-.3.5-.4.8-.9s.2.1.3.3.2-.2.4-.2.1-.1,0-.2v-.2h.8a.7.7,0,0,0,.1-.5,1.4,1.4,0,0,1,1.1.1c.4.1.4.5.5.7s.4.1.4,0h.2c.1-.2,0-.1.1-.1a.6.6,0,0,0,.1-.4h.6a5.6,5.6,0,0,0,.4,1.2c.8-.2,1.4-.5,2.1,0h.5a.6.6,0,0,0-.1-.4c-.1-.6-1.3-.8-1.8-.7s-.9-1.3-1.6-1.2l-.8.2c-.9-.3-1.3-.7-2.1-.5h-.5v.6l-.2.3h0c-.3-.5-.4-1.4-.7-2s.1-.4.3-.6.5.8.6,1.1h.2c0-.1.1-.2.1-.3s.5.4.6.5l.7-.3.4.6h.8v-.3h0l.7.3a1,1,0,0,0,.6-.5,1.7,1.7,0,0,1,.9.2c.5-.1.3-.4.7-.6h-.1c.4,0,.4-.1.6-.2a2.6,2.6,0,0,0-2.2-2.5H45.5a4.8,4.8,0,0,1-2.3-1.7h0c.7.3,2.5,1.1,3.1.3M27.5,18.8h-.9v-.2h.9Zm1-2.8c-.5,0-.5,0,0,.1v-.2Zm-5-9.9.2.3v.4c-.3-.1-.2-.2-.4-.5l.2-.2m-.7,10.7h.9v.5h-1m-16,1.4h0v0Zm0,.2v-.2h.1Zm6.9,22.5h.2v.2a2.8,2.8,0,0,1,.1.9h0c-.1-.2-.2-.5-.4-.6Zm2-10,.5.2h-.8l.3-.3m-2.4-5.1h-.1v-.2Zm3-6.6h0c-.2,0-.1,0-.2-.1ZM13.1,13a1.2,1.2,0,0,1,.5.5l.3-.2c.3.1.4.4.5.7h.2c.2,0,.2-.1.3-.2l1,.6v.5h-.3s-.1-.2-.2-.2h-.2v.5h0c-.4,0-.5,0-.6-.3a.8.8,0,0,0-.5.5l-.6-.2c.1-.4.4-.2.6-.1H14v-.2c0-.3-.1.1-.1.1H12.4l-.3-.3v-.2h.1c.3-.1.2-.6.2-1a.5.5,0,0,0,.6-.1m.3,4.8a1.1,1.1,0,0,1,1,.5l-1.3.4v-.4c0-.3.1-.3.2-.5m-.2-1.3c.1,0,.1-.1.2-.9h-.1v.8c.4.1.3.1.2.1Zm-.8,0h-1v1h1Zm-.1-1.7c.1.1.1,0,.1.2a2.4,2.4,0,0,1-.1,1.5h-.1a4.5,4.5,0,0,1,.1-1.6m.1,1.7h0a.8.8,0,0,0-.1-.3m-.6-2.9c-.1.1-.2-.1-.4.1h.1a2.7,2.7,0,0,1,.5-1.4c.2.1.1.2.2.4h-.2l.2.5a1,1,0,0,1-.4.5m.7.9v.4h0l-.2-.4Zm-.1-3.8a4.1,4.1,0,0,0,.1-.9h.1v.9Zm-.9-4h.3c.1.3.1.6.2.8l-.2.2h-.3Zm0,2.1V8.3h.4a3.9,3.9,0,0,1-.1.9Zm0,0h.1a2.9,2.9,0,0,0-.2.9l.3.3h0c.2-.5.2-.8.4-1.2h.4c.1.2,0,.3.3.4v.5l.7-.2h0c-.1.4-.3.3-.4.6s-1,.2-1.6.1-.3-.3-.8-.4l.7-1.2m-1.8,1h0l1-.2v.2h-.3c0-.3-.1-.2-.1,0H9.7c0-.5.3-.5.5-.8s.4.1.6.2a1.1,1.1,0,0,1-.3.8M9.4,13.5h0m1.1-.1a1.4,1.4,0,0,0-.7.6H9.7s0-.6-.2-.7h0l-.9.8h0v-.5c0-.5.9-.6.9-.6H10c0-.1.1-.2.5-.3Zm.2-.4h-.2v-.2l.2-.4c-.1-.2-.2-.1-.1-.3h.6a.5.5,0,0,1,.2.4c-.1.3-.4.3-.6.5m-3,5.4H8c0,.2.1.3.1.5l-.2.2-.4-.2c.1-.3.1-.3.2-.4m.9.9a1.6,1.6,0,0,1-1,.2h0l.8-.4.3.2H8.6m1.1-.2c-.3,0-.3-.1-.5,0h0c.1-.2.2-.1.2-.1l.2-.2h.1v.4Zm1.7-.4H11s-.2-.6-.1-.8h-.4c0,.5.1.6.1,1.1l-.2.2a.7.7,0,0,1-.4-.4H9.6a2,2,0,0,1-.1-.5c-.2.1-.2.1-.3,0l.3-.2H8.9a4.9,4.9,0,0,0-.3.7H8.3c.1-.1.1-.3.2-.4s-.2-.2-.2-.3.5-.7.7-.9a18.5,18.5,0,0,1,2.9.8H12l-.4.5c0,.2.1.3.1.5s-.4.1-.6.3m-.3,4.8v.7l-.8.3H9.5v-.5H9c-.2.1-.2.4-.4.6s-.2,0-.3-.2H7.6v0a1.1,1.1,0,0,0-.5.4H6.7V25h0c-.2,0-.2.1-.3.4H6.2a.8.8,0,0,1,.2-.4H5.8a2.6,2.6,0,0,1-.1-1.2,1.2,1.2,0,0,1,1.9-.4c.3-.1.3-.3.4-.6a1,1,0,0,1,.5-.4,2.1,2.1,0,0,1,1,.6l.9-.2c.1.1.2.2.2.3v.4h.1c.1-.1.2-.1.3-.3a7,7,0,0,1,.3,1.2h.1c-.2.2-.5.5-.8.4m2.3,10h-.1c-.2-.4,0-.4,0-1h.1a3.4,3.4,0,0,1,.1.9Zm.4-5.9v-.2H13c-.2.2-.2.3-.2.6a.5.5,0,0,1-.5-.4h-.2a1.5,1.5,0,0,1-.7-.3h0a1,1,0,0,0,.5-.4c.1,0-.1-.3,0-.5a3.7,3.7,0,0,0-1.1.5v-.2c-.5.2-.4.8-.6,1.2a.7.7,0,0,0,.6.8,1.4,1.4,0,0,0-.2.6c0,.3-.1.3-.2.5s-.6-1.4-1.4-1.7.2-.3.1-.4c-.1-1.7,1.1-1.1,1.8-1.9s.2,0,.3.2h.3c0-.5.2-2.8-.2-3.4s-.2.1-.4.3V24h0l-.2.3h0l.3-.2.8-.5a6.1,6.1,0,0,0-.1-3,.9.9,0,0,0,0-.7c.1-.1.1,0,.2-.2s.1.4.3.7,0,.1-.1.2a3,3,0,0,1-.5,2.4v.5h.8a7.6,7.6,0,0,1,.5-2.8l1.1-1h.8c.1.1.4-.1.5,0a.7.7,0,0,1,.7.5,1.4,1.4,0,0,1-.2.6l-.4.2h0a1.9,1.9,0,0,0,1.3-.6h.1a3.5,3.5,0,0,0,1.1,1.3c-.1.2-.2.3,0,.4s-.7.3-.9.6-1.5.3-2.4-.1.1-.2-.1-.3v-.2c-.1.1-.1.1-.2.4h-.2a.8.8,0,0,0-.6-.6h.3a1.7,1.7,0,0,0-.3.7h0v.4a2.9,2.9,0,0,1-1,.3c0,.7-.5,3.2.4,3.5s-.5.7-.3.9v.6h0a2.3,2.3,0,0,1,1.2-1.7c.5-.2.8,0,1.1-.2l.3.3a3.7,3.7,0,0,0,2.2-.9h.9a.8.8,0,0,1-.5.7c.1.2.1.2.1.3s.9-1.5.9-1.5h.3v.9a.8.8,0,0,1-.4.4h.1c.2.1.5-.4.5-.4h.1s-.2.6-.4.7,0,.3.2.4.5-.2.6-.3l.4.4c-.1.5-.5.7-.8,1s-.6-.3-.6-.3h-.4c-.3.1-.2.2-.2.6l-.6.3h0c0-.2,0-.1-.2-.2v-.4a.1.1,0,0,1,.1.1v.4H18c-.6.1-.7.2-.8.4h-.4c0-.4-.1-.4-.1-1.2h-.3c0,.6,0,.7.1.9h-.2l-.3-.2v-.2l-.2-.2h-.2c0,.4-.1.5,0,.8s-.3-.2-.3-.2h-.1l-.2.2c-.2,0-.2,0-.2.2l-.6-.2v.8h-.1l-.2-1h-.2l-.5-.2v-.2c.3.1.3.2.1.3h-.2ZM15,30.7l-.9.7h-.5a1.4,1.4,0,0,1,.1-.9,3.1,3.1,0,0,0,1.3.3m-1.5,7.6h0a1.6,1.6,0,0,1,0-.7.5.5,0,0,1,0,.6m.7-4.2c-.6-.1-.6-.5-.9-.8l.2-.4h.2c.1.5.4.7.5,1s0,.1,0,.2m2.5,1.4v.3h-.1a1.3,1.3,0,0,1-.1-.6c.1.1.4.3.3.4m3.2.9h-.4l-.2-.2h.6Zm1.8-1.6h.1v1.1c-.3-.1-.2-.2-.1-.1h.1ZM21,35.9h-.2v-1c-.3.2-.4.5-.6.6s-.5-.3-.9-.3a1.7,1.7,0,0,1-.6.6c-.1,0-.4-.2-.6,0H18V36s-.3,0-.3-.2h-.1c0-.2,0-.1.1-.4h-.1c-.5.1-.3.4-.5.7h0a1.4,1.4,0,0,1-.2-.7l-.4-.2c0-.3-.1-.3.1-.4s-.1-.2-.1-.3,0,0-.2,0a.6.6,0,0,1-.1.4h-.3a2.3,2.3,0,0,0,.3.9h-.6a1.1,1.1,0,0,1,.1-.6h.1l1.3-1.2h-1c-.2.1-.4.6-.3.7l-.4.2-.2.6v.4h-.1c-.1-.8,0-1.3-.1-1.9h-.2a.8.8,0,0,1-.1.4h-.1a7.4,7.4,0,0,1-.3-1.7c.5-.2.7,0,1.1-.3h.1v.2h-.1c0,.1.1.2.2.3a1.4,1.4,0,0,0,.8-.7,1.9,1.9,0,0,0,1.5-.4,1.8,1.8,0,0,1,1.4.9h.3c.5.2.5,1.2.2,1.5s.1.2.1.4.5-.1.6-.4h.2v.2l.7-.3v.3l.4.2c.3.4-.9,1.4-1,1.7m8.3-1.5h.3c0,.1,0,.1-.1,0m9.1-3h.2c-.2-.1-.1,0-.2-.2m.2.2h0l.2.2h-.2m.7,1c-.3-.1-.2-1-.1-1.4h.2a5.7,5.7,0,0,1-.1,1.4m-.1-5h0Zm5.1,4.9c-.3-.1-.2,0-.3-.2h.3Zm.5.3v0m2.3-.5v.2c-.2-.1,0-.1,0-.2m-5.6-5.1A6.4,6.4,0,0,0,45.6,31h.1a1.9,1.9,0,0,1,1.1.8.6.6,0,0,1-.8.3c-.3.4-.8.1-1.3.3s-.4-.2-.7-.3l-.2.4c-.1.1,0,.1-.2.1s0,.1.1.2h-.2a1.1,1.1,0,0,0-.8-.3,3,3,0,0,0-.4-1H42a1.8,1.8,0,0,1-.4-.9l-.5.3h.3a18.8,18.8,0,0,0-.4-3.1c-.1-.3-.3-.4-.4-.7h-.1a20.1,20.1,0,0,1-.2,4.9c.1,0,.1.1.2.2a6,6,0,0,0,.4,1.8c.2.5-.1.8.3,1v.2h-.2c-.3-.6-.4-1.3-.6-1.7s0-.9-.1-1.4,0,.4-.4.6v.7c.2,0,.1-.1,0-.2a15.4,15.4,0,0,1,1-1.9h0s-1.1-.4-1.1-.6a2.6,2.6,0,0,0,.1-1.5c.2-.7-.9-2.8-.9-2.8h.9v1.3s-.3.4,0,.6v1.2c-.6.5-.4.9-.7,1.5s-.4.6-.5.9l-1.3-.2c-.6-.3-.9-1.4-1.4-1.8s.3-.1.5-.3l.4-1a17.1,17.1,0,0,0,1.1-1.4c.3-.5.3-1.5.5-1.7l-.3-.2h-.4c.1.2.2-.1.2-.3s-.2.2-.2.2a2.2,2.2,0,0,1-1.8,1.1v.2h-.1l-.8.3c-.4,0-.3-.2-.6-.3s.9-.8,1.2-1.3L38,21.8c.1-.3-.1-.4,0-.7s-.1-.2-.1-.4h-.1A8.1,8.1,0,0,0,36,22a1.2,1.2,0,0,1-.7-.7c1.1-.7,3.3-3.1,3.3-4.6l-.3-.3c-.3,0-1.8,1.4-1.8,1.4h-.6c.2-.6,1-1.1,1.4-1.6a12.8,12.8,0,0,0,1.1-2c.3-.4.9-1.4.7-1.8s-.5-.5-.8-.3h-.4l1.1-.9c.4-.6.5-1.4,1-1.9s-.3-.5-.5-.9h-.2s.3-.9.5-1.3h0c.4.1.5.4.8.5l-.3.3h-.5c.2,1,2.9,2.1,2.9,2.1h0a9.5,9.5,0,0,1-2.2.2c.2,1.6,4.1,3.1,4.1,3.1V13l-.7.7a7.2,7.2,0,0,1-2.2.2v.2A4.8,4.8,0,0,1,43,15.7a4,4,0,0,1,2.6,1.8c-.3,0-.4.3-.8.1l-.2.5c-.4.3-1.4,0-1.9-.3h-.1c.1,2.4,2.8,3.8,4.3,4.7-.6,1.1-3.4-.3-4.4,0h-.7c0,.7.9,1.1,1.3,1.5l.3.5,2,.8a10.6,10.6,0,0,1,1.2,1l1.4.4c.2.1.1.2.3.3s-.3.3-.6.5-.3,0-.4-.2l-.4.4a2.2,2.2,0,0,0-1.8.1c-.9-.3-2.3-.6-2.7-1.4h-.6c0,.4-.2.7,0,1m.9-12.6v0ZM37,7.2v.2h0Zm2.8,8.7h.1m-.1,0v0Zm1,.9H41l-.5,1.1h-.2l-.4.4a1.2,1.2,0,0,0-.8.5H39c.2-.9.7-1.5.8-2v-.2c-.3,0-.9,2.2-.9,2.2h0c1.3-.2,2.1-.6,2.4-2.1M13,22.9V22c-.1-.2,0-.1-.2-.2h-.1a1.7,1.7,0,0,0-.1.7.6.6,0,0,0,.1.4Zm27.8.3c0,.5-.2.6-.4.9h-.3c-.3-.1-.4-.3-.6-.4s.3-1.8,0-2h-.1a12.5,12.5,0,0,1-.2,2.1.8.8,0,0,0,1.3.6c.4-.3.3-.7.7-1v-.4h-.4m-24.6-.9h.1c0-.2,0-.1-.1-.2m-1.1-.7h.4c-.2.8-.2.9-.4.9h-.2c-.1,0-.1-.1.1.1Zm.4,5.8c-.1-.3-.1-.4,0-.5s0-.2-.1-.3h-.1l-.3.5c.1.2,0,.2.1.3s.2,0,.4-.1m.7-.2h-.4c.3-.1.3-.5.4-.9h-.3l-.3.8h.1M7.8,31.8V32h.4a3.6,3.6,0,0,1,.2-1H8.3a1,1,0,0,1-.5.8m-3.5,1c.1-.2-.4-.7-.6-.8H3.3l.8.7h.2m13.4-1a2.4,2.4,0,0,1-.6.9V33c.5-.1.5-.6.7-1.1h-.1m22.5.3h0m-21.7.2-.6.7H18c.4,0,.4-.4.7-.6s0-.1-.2-.2m-13.9.6c-.1-.1-.1,0-.1-.2H3.8l.2.2Zm40.7,5.5.2-.2h0a2.4,2.4,0,0,0-.9.3h-.4l1.1-.2m.3.6-.5.2a9,9,0,0,0-1.9-.4v-.2h1c-1.4.1-3.3-.4-3.8-1.1s-.2.2-.2.2h0c-.3.5-1.7.5-2.6.6a6.5,6.5,0,0,1-2-.2c-.1-.1-.2-.3-.3-.3l-.7.2-.8-.2-1.8.2c-1.1.1-.7-.5-1-1.1s-.4,0-.7-.1l-.6-.4c-.4-.2-2.7.5-3.2.4a6.7,6.7,0,0,0-2.4.2c-.5.3-.4,1.1-.7,1.6s-.5.9-.7,1.4.1,2.3.4,2.9v.2h-2a1.5,1.5,0,0,1-.8.3h-.6a3.7,3.7,0,0,1-1.4.7h.1c-.2.1,0,0-.2,0l-.2.2h0c-.1.1,0,0,0,.1h0c-.3,0-.4.1,0,.2h0l-.4.5h.3a21.3,21.3,0,0,0-.3,2.5,3.9,3.9,0,0,1-1.7.9l-1-.3-1.2.2H12.6c-1.1.4-2,0-2.8.2a1.6,1.6,0,0,1-1,.1,2,2,0,0,0-1.1-.2c-1.7.3-3.4-.1-5.4-.2l-1.2.2v.2H1c-.5.2-.5.4-1,.4v.2a14,14,0,0,1,2.9,0l1.4.3a24.6,24.6,0,0,1,4.7.1c1,.2,1.9-.3,2.8-.3s3.9-.2,5.2.3H18v-.9a18.7,18.7,0,0,1-4.8.4c-.9-.1-1.8.1-2.1-.1H10c.6.3,1.2,0,2,.1a11,11,0,0,0,3.1.2l1.6-.2a3.4,3.4,0,0,1,1.8-.3c.1-.4,1.2-.7,1.5-1.1s.5.3.8.3a.7.7,0,0,0,.1.5v.2c0-.2,0-.5.8-.8h-.6l.3,1c-.1.3-1.8.2-2.2.1s1.6,0,2.5.4l.2-.2h-.1l.3-.5c.3,0,.3.1.5,0a.9.9,0,0,1,.6.2h.8c.1-.5.4,0,.4,0h0s.4-.6.5-.4.3-.3.4-.5h.1l-.3-.4-.8-.3c-.4-.1-.5.3-.9-.1a3,3,0,0,0-.8.8h-.3c-.3,0-.2,0-.2.2s-.7-.5-.9-.8a.8.8,0,0,1,.2-.8l.3-.2h0c-.6.1-.6.2-.7.4h-.2c-.1-.1,0-.2-.1-.4h0l-.4.7h-1c.1-.3.5-.8.4-1h-.4c-.2.2-.3,1-.6,1.3l-.6.2h-.5a2.5,2.5,0,0,1,.2-1.2c0-.5.1-1,.1-1.4s1.6-.8,2.5-1.3h.4v.2h0l2.2-.5c.7-.1,1.7.3,2.5,0V44c-1.5-.3-3.4,1.7-3,3.6h.1c.2-.8.7-2.4,1.3-2.8s1.3-.3,1.6-.5h.2l-.3,1a8.9,8.9,0,0,0,.4,2.6c.2.4-.1.8.1,1.2a1.5,1.5,0,0,1-.5.7c-.3.1-.7-.2-1.2.2h-.3v.5c-.2.2-.1.1-.3.1h0a11.2,11.2,0,0,0,2.5-.1c.3,0,.6-.3,1-.2l1,.4c.5.1.8-.1,1.5.1l.7.4c1.4.4,3.1-.4,4.5-.5h-.2l.3-.2h-.3V50H34a1.5,1.5,0,0,1,.1-.6V49a7.7,7.7,0,0,0-.5,1.9H33a11.4,11.4,0,0,0-.3-2.1c0-.1.1-.3-.4-.3v-.2c-.1.1,0,.8-.1,1.2h-.1c0-.1-.1-.2-.1-.3l-.7.3h0l.6.3v.3c0,.2,0,.1-.1.2h-.5c-.2-.5.4-2,.5-2.4v-.2l-.3.2v-.3h-.4c-.1.3-.3.4-.4.6l-.4,1.4c.1.2,0,.1.2.2s0,.1-.2.1h-.4c.2-1.2.8-2.4,1.2-3.8h-.2l.4.5h-.4l-.3.4h-.3c-.8.1-1.1,1.8-1.4,2.8h-.3l-.2-.2c.2-1.5,1.5-2.4,1.8-3.6h.2V46A12.7,12.7,0,0,0,29,48.1h-.2c.1-.4.9-1.4.3-1.6l.3-.6v-.7h-.8c0,.4-.1.4-.2.7H28a14.4,14.4,0,0,1-1.2,3h-.2a8.2,8.2,0,0,1,1.9-4.2v-.2h-.3c-.1.4-.3.6-.4,1s-.1-.1-.3,0h-.3l.3-.6v.4s-.4,1-.6,1.7h0c-.1-.4-.1-.4-.3-.5l.3-.7,1.6-.2H27.1c-.2.2-.3.6-.6.8h-.1c-.1-.6-.2-.8,0-1.2a1.6,1.6,0,0,0,.8-.5c.2-.2,1-.5,1.2-.2s.1-.1.1-.1h.3c.5.6,1.4-.6,1.5-1.1l1-.2c.6.2,2.6,1.2,3.5.7s3.6,1.8,3.7,2.7h.1a3.3,3.3,0,0,0,.3.6s.1,0,.1.2h.1c-.2-.6-.4-1.2-.2-1.5h0c-.4.1-.3.1-.2.2s0,0,.1-.1H39a1.3,1.3,0,0,1-.1-.5h-.2a12.1,12.1,0,0,0,3.9-.3c0-.7.1-1.7.1-1.7h0a.5.5,0,0,0-.3.5c-.5-.2-.3-.8-.3-.9h-.3c0,.2-.3.4-.4.8h-.2a3.2,3.2,0,0,0-.4-1.1v-.2H41c0,.4.2,1.1-.1,1.3s0,.8.2,1.1-.1.2-.1.3h-.2c.1-.6,0-1.2-.2-1.2h-.5a4.8,4.8,0,0,1,.6-2.1v.2h-.1a6.7,6.7,0,0,0-.7,1.8c-.2,0-.5-.8-.5-.8h-.2a7.1,7.1,0,0,1,.7-1.1h0c-.5,0-.7.8-.8,1.3h-.5l-.3.9h0a8.3,8.3,0,0,1,.7-2.4h-.2c-.4.2-.5,1-.7,1.5h-.1c0-.3-.1-.2,0-.3l-.4-.3a4.4,4.4,0,0,1-.5-.9h1.2c-.6.1-.8.6-1.1,1s-.1-.2-.3-.3a1.4,1.4,0,0,1,1.1-1h0c-.9,0-1,.6-1.2.9H36a6.1,6.1,0,0,1,1.2-1.5l1.1-.4h1c.4-.2.6-.6,1-.8s.7.9.7.9h.7c.9.3,3.9,1.4,4.9.8l.3-.4a2,2,0,0,0-1.3-.4M32,49.6c.1.1,0,.1.3.1v.2c-.2,0-.1-.1-.3.1h-.2c.1-.1.1-.3.2-.4m-1.6.4Zm11.3-5.7h-.1c-.1-.1-.1-.4-.1-.5Zm-5.5-6H37l-.7.2h-.4l.3-.3M24,43a25.3,25.3,0,0,1,1.1-3.3c.1-.3.5-.6.5-.9v-.2h.8a17.1,17.1,0,0,0-.9,2.2c-.3.8-.9,1.6-1.1,2.3v.2H24a26.4,26.4,0,0,1,2.6-5.2v-.4h-.5a25.9,25.9,0,0,0-1.3,2.8h-.2a14.2,14.2,0,0,0-.7,2.5h-.3a5.2,5.2,0,0,1,.6-2c0-.2,0,0,.1-.1s.7-2.1,1.3-2.9v-.2c-.3,0-.2,0-.3.2h-.4c-.6.4-.9,2.3-1.4,3.1h-.1a5.2,5.2,0,0,1,.3-1.7v-.4s.1.1,0-.3h0c0,.1.1.1.3-.1s0-.1-.1-.2a2.3,2.3,0,0,1,.6-1.1c.8-.4,1.4.1,2.3-.1s3.9.6,3.9.6H31v.2c-.1.4-1.1.1-1.5.2s-2.4.9-2.5,1.8h-.2c-.3.9-.5,2.5-.9,2.9s.1.1-.4.1h0c.5,0,.6,0,.6-.1a7,7,0,0,0,.6-1.9v-.4h-.2v1.1a7.3,7.3,0,0,0-.2,1.5,1.1,1.1,0,0,0-.8.2h-.2l.3-.9h-.1v-.2c-.2.1-.4.6-.5.9h-.3m-1.3-1.6a3.8,3.8,0,0,1,.7-1.7c.2-.3.3-1.2.6-1.8s.3-.2.3-.3h.1c.1.2-.2.7-.3,1s-.9,1.9-1.2,2.8h-.2Zm5-.9h-.1c-.1-.2-.3.5-.9.7v.2h1c-.8-.5-.4-1-.2-1.3m-1.1,2.4-.4.6h-.2l.2-1h.1l.3.3m.7,1.7c0,.1-.7.3-.9.4l-.3-.3H25c.2-.2.3-.2.6-.2h0v-.3c.5.1.7.1.9,0s.3,0,.3.3l1-.4c.4,0,.2.3.1.4m.6-1.5h0Zm0,.7h-.4l.2-.2h.4v.3c-.2.1-.3.1-.4,0m1-.2H29v-.2l.4.2Zm9.2-4.4c-3,.7-3.1,1.5-4,4.1a1.7,1.7,0,0,1-1-.1c-.2-1,.3-1.9.2-2.8s-.2.1-.3.3a6.5,6.5,0,0,0-.2,2.5,1.1,1.1,0,0,1-.6-.3,4.2,4.2,0,0,1,.3-2.2h0c-.5.3-.5,1-.7,1.4s.1.8-.2.9l-.4-.3a22.4,22.4,0,0,1,.6-2.3v-.2h-.2c-.2.5-.3,1.4-.6,2l-.2.4h0s-.2.1-.3-.5h-.1a2.3,2.3,0,0,1,.9-1.4v-.2c-.2-.2-.6.4-.8.5a4.5,4.5,0,0,1-.3,1.6l-.6.5h-.1l.8-2.8h-.1s-1.2,1.8-.9,2.1h-.1a.3.3,0,0,1-.5,0c-.2-.3.7-2,1.3-2.2h0c-1.3.3-1.7,2-2,2.9h-.2c0-1.7,1.1-4,2.5-3.2s.2.1.2.3,1.9-.8,2.5-.5.6.3.9.2a10.4,10.4,0,0,0,4.1-.7h.2Zm-14-.2h.1v-.4c-.1.1-.1.2-.1.4m2.5.9c0-.3,0-.3-.2-.4a1,1,0,0,0-.1.4c-.1.3-.4.4-.5.7s-.3,1.5-.7,2v.3h.1a13.8,13.8,0,0,1,1.4-3m7.4-.2-1.5.2h-.1c.1.2.1.2.3.2s2-.3,2.4,0h.1v-.4h-.5a1.1,1.1,0,0,0-.7-.1M19,39.6h-.1a11.1,11.1,0,0,0,.4,3.4h.1c.3-1.1-.3-2.1-.3-3.4m-1.4,0a4.6,4.6,0,0,0,.3,2.7h.2a17.3,17.3,0,0,0-.4-2,1.9,1.9,0,0,0-.1-.8m4.5.2v-.2c-.2.1,0,.2,0,.2m9.1-.2h.1v0Zm-9.9,3h.4v-.8c.2-.5.9-1.6.7-2.1s-.6,1.7-1.1,2.8M8.8,40a9.5,9.5,0,0,0-.1,2.4h.2A19.3,19.3,0,0,0,9,40.1H8.8M7.6,42.4V41H7.5a3.3,3.3,0,0,0-.1,1.4h.2Zm-1-1.2v.2h.1c-.1-.2,0-.1-.2-.2m.1.2Zm.1,1c-.1-.3-.1-.5-.3-.6a.8.8,0,0,0,.2.5h.1ZM18,42.3h0Zm.1.1c-.1-.1,0-.1-.1-.2h.1Zm-3.7,2.3c.2-.1.1,0,.2-.4h.1c.4.4,1,.1,1.5.9h1v-.7h-.1l-5.5-.2A10.8,10.8,0,0,1,8.6,44h0v.4c1.1.2,2.5,0,3.9.2s1.3-.2,1.9.1M8.6,46a4.1,4.1,0,0,1,1.9.1h0a4,4,0,0,1,1.5-.2c.8.1,3.7.4,4.1-.6h.1v1h-1v.2a3,3,0,0,0,1.7-.2h-.2c0-.2,0-.1.1-.2h.3a9.5,9.5,0,0,1-2.6-.4c-.6-.2-1.3.1-1.9-.2v.2H12c-.3,0-.2,0-.2.2a4,4,0,0,0-1.6.1,4,4,0,0,0-1.6.1Zm30.3-.7h-.1v.2Zm-25,1.1c0,.3,0,.3.2.4a15.2,15.2,0,0,0,2.8.2h.2v-.2c-.6,0-.9.1-1.3-.1s-.3-.1-.3-.3a5.4,5.4,0,0,1-1.9-.3l-.4.2v.2h.6m-2.6-.1h0c-.1,0-.1,0,0,.1m1.9-.1h0Zm7.7.1c.1-.1.1,0,0-.1Zm-2.8,2.6h.7c-.2-.1-.3,0-.5,0h-.2m5.9.8h.1v-.2l-1.5-.2-.7.2h0a4.1,4.1,0,0,1,2.2.2M9.5,49.1h0Zm11.3,1.1c-1.2.6-4.3.5-5.6.4s-1.6.1-2.1-.2-.1.1-.2-.4h-.1c.3.7.9.8,1.2.6s4.1.1,5.1.2,1.8-.7,2.7.1H22v-.5l-1.2-.2m1,.3h0Z" style="fill:#5d7453;fill-rule:evenodd"/></svg>
