<svg xmlns="http://www.w3.org/2000/svg" viewBox="0 0 74.52 83.23"><title>stream_select</title><path d="M32.43,12.22c-3,.78-6.74,3-5.65,5.84,3.23,4.2,15,2,22.45,3,1.81.25,5,.64,4,2.17-1,2.53-25.4,5.14-37.64,7.48-3,.58-6.46,1.48-7.79,4.26-1.66,3.49,1.26,7.57,4.68,9.37S20,46.72,23.18,48.84s5.32,6.95,2.73,9.82a8.79,8.79,0,0,1-4.38,2.18A75.53,75.53,0,0,1,0,63.33c6.33,10.8,20.48,13.91,33,14.13,8.42.14,17.47-.78,23.93-6.19s8.42-16.7,1.92-22C55.31,46.3,50.41,45.85,46.24,44A4.66,4.66,0,0,1,44,42.19c-1.58-2.78,2.34-5.4,5.45-6.21q9.09-2.35,18.32-4.15c2.12-.42,4.43-.91,5.78-2.6,2-2.44.81-6.31-1.58-8.32s-5.63-2.65-8.71-3.22c-5.89-1.08-17.46.77-19.59-2.76.86-1.78,13.72-3.2,16.92-7.58C63.35,3.56,55-3.26,41.88,1.8,38.67,3,54.31,3.38,47.69,7.61,43.56,10.24,37.31,10.94,32.43,12.22Z" style="fill:#67b8c6"/><path d="M69.65,67.8,44.73,52c-.72-.46-1.21-.14-1.06.71l4.82,29.11c.14.85.62.94,1.07.2L55,73l6.32,9.54a1.57,1.57,0,0,0,2.17.44l1.31-.87a1.56,1.56,0,0,0,.44-2.17L59,70.39l10.45-1.52C70.27,68.74,70.37,68.26,69.65,67.8Z" style="fill:#58595b"/></svg>