<svg xmlns="http://www.w3.org/2000/svg" viewBox="0 0 124.87 88.36"><title>draw_area</title><path d="M124.33,16.38,108.44.49a1.71,1.71,0,0,0-2.39,0l-6.8,6.8a1.71,1.71,0,0,0,0,2.39l.43.39L87.17,16.16a1.76,1.76,0,0,0-.92,1.14L80.7,42.11a1.65,1.65,0,0,0,1.3,2c.11,0,.22.06.38.06h.38l24.76-5.55a1.64,1.64,0,0,0,1.14-.93l6.09-12.51.44.44a1.71,1.71,0,0,0,2.39,0l6.75-6.81a1.65,1.65,0,0,0,0-2.39C124.38,16.38,124.38,16.38,124.33,16.38ZM105.94,35.47,87.71,39.55l9.36-9.35,2.29,2.28,2.39-2.39L95,23.23,92.5,25.57l2.29,2.29-9.52,9.3,4.08-18.28,12.89-6.26,10,10Zm10.39-13.6L102.84,8.49l4.41-4.41,13.49,13.44Z" style="fill:#58595b"/><polygon points="49.61 38.89 42.42 50.4 45.65 49.68 40.35 57.81 44.58 56.87 37.11 68.33 48.17 65.83 48.17 74.85 51.41 74.85 51.41 65.91 62.11 68.33 54.64 56.87 58.87 57.81 53.56 49.68 56.8 50.4 49.61 38.89" style="fill:#78a12f"/><polygon points="32.51 29.79 27.84 37.27 29.94 36.8 26.5 42.08 29.24 41.47 24.39 48.92 31.58 47.29 31.58 53.16 33.68 53.16 33.68 47.35 40.63 48.92 35.78 41.47 38.53 42.08 35.08 36.8 37.19 37.27 32.51 29.79" style="fill:#78a12f"/><polygon points="64.68 26.05 60.01 33.53 62.11 33.06 58.67 38.34 61.41 37.73 56.56 45.18 63.75 43.55 63.75 49.41 65.85 49.41 65.85 43.61 72.8 45.18 67.95 37.73 70.7 38.34 67.25 33.06 69.36 33.53 64.68 26.05" style="fill:#78a12f"/><polyline points="77.04 29.08 64.48 14.26 46.43 26.74 23.67 21.28 1.7 61.85 53.49 86.82 81.75 51.71" style="fill:none;stroke:#58595b;stroke-miterlimit:10;stroke-width:2.46569343725858px;stroke-dasharray:4.488564491271973,4.488564491271973"/></svg>