<svg xmlns="http://www.w3.org/2000/svg" viewBox="0 0 96.79 82.16"><title>filter_forest</title><polygon points="51.45 14.96 43.06 28.37 46.84 27.54 40.66 37.01 45.58 35.92 36.88 49.28 49.77 46.36 49.77 56.88 53.54 56.88 53.54 46.46 66.01 49.28 57.32 35.92 62.24 37.01 56.06 27.54 59.83 28.37 51.45 14.96" style="fill:#5d7452"/><polygon points="38.5 3.49 33.05 12.2 35.5 11.66 31.49 17.81 34.68 17.1 29.03 25.78 37.41 23.89 37.41 30.72 39.86 30.72 39.86 23.95 47.96 25.78 42.31 17.1 45.51 17.81 41.49 11.66 43.94 12.2 38.5 3.49" style="fill:#5d7452"/><polygon points="69.02 0 63.57 8.71 66.02 8.17 62.01 14.33 65.2 13.62 59.55 22.3 67.92 20.4 67.92 27.23 70.38 27.23 70.38 20.46 78.48 22.3 72.83 13.62 76.03 14.33 72.01 8.17 74.46 8.71 69.02 0" style="fill:#5d7452;opacity:0.35000000000000003"/><polygon points="75.86 21.94 63.81 41.21 69.23 40.01 60.36 53.62 67.43 52.05 54.93 71.25 73.45 67.05 73.45 82.17 78.87 82.17 78.87 67.19 96.79 71.25 84.29 52.05 91.37 53.62 82.48 40.01 87.91 41.21 75.86 21.94" style="fill:#5d7452"/><polygon points="20.93 21.94 8.88 41.21 14.3 40.01 5.43 53.62 12.5 52.05 0 71.25 18.52 67.05 18.52 82.17 23.94 82.17 23.94 67.19 41.86 71.25 29.36 52.05 36.44 53.62 27.55 40.01 32.98 41.21 20.93 21.94" style="fill:#5d7452;opacity:0.35000000000000003"/></svg>