<svg xmlns="http://www.w3.org/2000/svg" viewBox="0 0 214.7 202.5"><path d="M200.5,21.9,179.2.7a2.2,2.2,0,0,0-3.2,0l-9.1,9a2.4,2.4,0,0,0,0,3.2l.6.6-16.7,8.1a2.7,2.7,0,0,0-1.3,1.5l-7.4,33.2a2.2,2.2,0,0,0,1.8,2.7h1L178,51.6a2,2,0,0,0,1.5-1.2l8.2-16.7.5.6a2.4,2.4,0,0,0,3.2,0l9.1-9.1a2.2,2.2,0,0,0,0-3.2ZM175.9,47.4l-24.4,5.5L164,40.4l3.1,3,3.2-3.2-9.1-9.1-3.3,3.1,3.1,3L148.2,49.7l5.5-24.5,17.2-8.3,13.3,13.3Zm13.9-18.2L171.7,11.3l5.9-5.8,18.1,17.9Z" style="fill:#58595b"/><path d="M0,145.2H7.3a11.3,11.3,0,0,1,6.3,1.5,10.3,10.3,0,0,1,4.3,8.9c0,6.4-3.9,10.5-10.7,10.5H0Zm4.8,17.1H7.5c3.2,0,5.2-2.4,5.2-6.7s-1.9-6.7-5.2-6.7H4.8Z" style="fill:#3a5675"/><path d="M20.3,150.6h4v3.3c.7-2.5,2-3.7,4.2-3.7h.8v4.1h-.9c-2.3,0-3.7,1.5-3.7,4.1v7.6H20.3Z" style="fill:#3a5675"/><path d="M40.9,163.6a5.6,5.6,0,0,1-5.1,2.8c-3.4,0-5.4-1.8-5.4-4.7s3.5-5.5,10.4-5.6v-.6c0-1.6-.9-2.4-2.6-2.4s-3,.7-3.2,2.2l-4.2-.5c.7-3,3.3-4.6,7.7-4.6s6.7,1.8,6.7,6v6.9a6.7,6.7,0,0,0,.5,3H41.2A10.1,10.1,0,0,1,40.9,163.6Zm-5.8-2.1c0,1.2.9,2,2.4,2a3.3,3.3,0,0,0,3.3-3.6v-1.4Q35.1,158.6,35.1,161.5Z" style="fill:#3a5675"/><path d="M46.5,150.6H51l2.6,9.5,2.4-9.5h3.4l2.5,9.6,2.8-9.6H68l-4.8,15.5H59.8L57.2,156l-2.5,10.1H51.3Z" style="fill:#3a5675"/><path d="M79.2,153.6H76.7v-3h2.6l.2-4.3,4.1-.2v4.5h3.2v3H83.6v7c0,1.7.4,2.4,1.9,2.4l1.7-.2v3.3a10.3,10.3,0,0,1-3,.4c-3.6,0-5-1.7-5-5.5Z" style="fill:#3a5675"/><path d="M89.4,150.6h4v3.3c.7-2.5,2-3.7,4.2-3.7h.8v4.1h-.9c-2.3,0-3.6,1.5-3.6,4.1v7.6H89.4Z" style="fill:#3a5675"/><path d="M107.5,166.5c-4.8,0-8-3.3-8-8.1a7.9,7.9,0,0,1,8.2-8.2c4.6,0,7.5,3.1,7.5,8.3v.6H104.3c0,2.7,1.3,4.2,3.4,4.2a3.1,3.1,0,0,0,3.1-2.3l4.3.3C114.1,164.6,111.3,166.5,107.5,166.5Zm3-9.9c0-2.2-1.1-3.4-3-3.4s-3,1.2-3.1,3.4Z" style="fill:#3a5675"/><path d="M127.4,163.6a5.6,5.6,0,0,1-5.1,2.8c-3.4,0-5.4-1.8-5.4-4.7s3.5-5.5,10.4-5.6v-.6c0-1.6-.9-2.4-2.6-2.4s-3,.7-3.2,2.2l-4.2-.5c.7-3,3.3-4.6,7.6-4.6s6.8,1.8,6.8,6v6.9a8.7,8.7,0,0,0,.4,3h-4.4A10.1,10.1,0,0,1,127.4,163.6Zm-5.8-2.1c0,1.2.9,2,2.4,2a3.4,3.4,0,0,0,3.3-3.6v-1.4Q121.6,158.6,121.6,161.5Z" style="fill:#3a5675"/><path d="M135.7,153.6h-2.5v-3h2.6l.3-4.3,4.1-.2v4.5h3.2v3h-3.2v7c0,1.7.3,2.4,1.8,2.4l1.7-.2v3.3a10.1,10.1,0,0,1-2.9.4c-3.6,0-5.1-1.7-5.1-5.5Z" style="fill:#3a5675"/><path d="M163.6,150.3c3,0,4.6,1.7,4.6,5.1v10.7h-4.4v-9.9c0-1.7-.7-2.5-1.9-2.5s-2.7,1.2-2.7,3.3v9.1h-4.4v-9.9c0-1.7-.6-2.6-1.9-2.6s-2.5,1.2-2.5,3.2v9.3h-4.5V150.6h4.2V153a4.8,4.8,0,0,1,4.4-2.7,4.2,4.2,0,0,1,4.3,2.6A5.3,5.3,0,0,1,163.6,150.3Z" style="fill:#3a5675"/><path d="M178.6,166.5c-4.8,0-8-3.3-8-8.1a7.9,7.9,0,0,1,8.2-8.2c4.6,0,7.5,3.1,7.5,8.3v.6H175.4c0,2.7,1.3,4.2,3.4,4.2a3.1,3.1,0,0,0,3.1-2.3l4.3.3C185.2,164.6,182.4,166.5,178.6,166.5Zm3-9.9c0-2.2-1.1-3.4-3-3.4s-3,1.2-3.1,3.4Z" style="fill:#3a5675"/><path d="M188.9,150.6H193v2.5a5,5,0,0,1,4.6-2.9c3.5,0,5,1.9,5,5.9v10h-4.4v-9.7c0-1.9-.7-2.9-2.1-2.9s-2.8,1.3-2.8,3.5v9.1h-4.4Z" style="fill:#3a5675"/><path d="M206.7,153.6h-2.5v-3h2.6l.3-4.3,4.1-.2v4.5h3.2v3h-3.2v7c0,1.7.3,2.4,1.8,2.4l1.7-.2v3.3a10.1,10.1,0,0,1-2.9.4c-3.7,0-5.1-1.7-5.1-5.5Z" style="fill:#3a5675"/><path d="M78.8,199.6a5.6,5.6,0,0,1-5.1,2.8c-3.4,0-5.4-1.8-5.4-4.7s3.5-5.5,10.4-5.6v-.6c0-1.6-.9-2.4-2.6-2.4s-3,.7-3.2,2.2l-4.2-.5c.7-3,3.3-4.6,7.6-4.6s6.8,1.8,6.8,6v6.9a8.7,8.7,0,0,0,.4,3H79.1A10.1,10.1,0,0,1,78.8,199.6ZM73,197.5c0,1.2.9,2,2.4,2a3.4,3.4,0,0,0,3.3-3.6v-1.4Q73,194.6,73,197.5Z" style="fill:#3a5675"/><path d="M86.3,186.6h4v3.3c.7-2.5,2.1-3.7,4.3-3.7h.8v4.1h-1c-2.2,0-3.6,1.5-3.6,4.1v7.6H86.3Z" style="fill:#3a5675"/><path d="M104.5,202.5c-4.9,0-8-3.3-8-8.1a7.8,7.8,0,0,1,8.2-8.2c4.6,0,7.4,3.1,7.4,8.3v.6H101.3c0,2.7,1.2,4.2,3.3,4.2a3,3,0,0,0,3.1-2.3l4.3.3C111,200.6,108.3,202.5,104.5,202.5Zm3-9.9c-.1-2.2-1.2-3.4-3.1-3.4s-2.9,1.2-3.1,3.4Z" style="fill:#3a5675"/><path d="M124.3,199.6a5.5,5.5,0,0,1-5.1,2.8c-3.3,0-5.4-1.8-5.4-4.7s3.5-5.5,10.4-5.6v-.6c0-1.6-.8-2.4-2.6-2.4s-2.9.7-3.2,2.2l-4.2-.5c.8-3,3.3-4.6,7.7-4.6s6.7,1.8,6.7,6v6.9a8.5,8.5,0,0,0,.5,3h-4.5A10.1,10.1,0,0,1,124.3,199.6Zm-5.7-2.1c0,1.2.8,2,2.3,2a3.3,3.3,0,0,0,3.3-3.6v-1.4C120.5,194.6,118.6,195.6,118.6,197.5Z" style="fill:#3a5675"/><path d="M134.4,197.2c.4,1.4,1.7,2.2,3.7,2.2s2.7-.7,2.7-1.6-1.3-1.3-3.7-1.8-5.8-2-5.8-4.8,2.5-5,6.5-5,5.6,1.4,6.6,4l-3.6.7a3,3,0,0,0-3.1-1.8c-1.5,0-2.3.6-2.3,1.6s1.5,1.2,4.4,1.8,5.2,2,5.2,4.7-2.7,5.2-7.2,5.2-6.4-1.8-7.2-4.7Z" style="fill:#3a5675"/><polygon points="100.6 52 91 67.4 95.3 66.4 88.2 77.3 93.8 76 83.9 91.3 98.6 88 98.6 100.1 103 100.1 103 88.1 117.3 91.3 107.3 76 112.9 77.3 105.9 66.4 110.2 67.4 100.6 52" style="fill:#78a12f"/><polygon points="77.7 39.8 71.5 49.8 74.3 49.2 69.7 56.3 73.3 55.4 66.9 65.4 76.5 63.2 76.5 71.1 79.3 71.1 79.3 63.3 88.6 65.4 82.1 55.4 85.8 56.3 81.2 49.2 84 49.8 77.7 39.8" style="fill:#78a12f"/><polygon points="120.7 34.8 114.5 44.8 117.3 44.2 112.7 51.3 116.3 50.4 109.9 60.4 119.5 58.2 119.5 66.1 122.3 66.1 122.3 58.3 131.6 60.4 125.1 50.4 128.8 51.3 124.2 44.2 127 44.8 120.7 34.8" style="fill:#78a12f"/><polyline points="137.2 38.9 120.4 19.1 96.3 35.7 65.9 28.4 36.5 82.7 105.8 116.1 143.5 69.1" style="fill:none;stroke:#58595b;stroke-miterlimit:10;stroke-width:3.29596710205078px;stroke-dasharray:6,6"/></svg>
