<svg xmlns="http://www.w3.org/2000/svg" viewBox="0 0 161 189.8"><path d="M0,127.4H14.3v3.8H4.9v4.7h7.4v3.6H4.9v8.7H0Z" style="fill:#3a5675"/><path d="M16,127.4h4.6v3.4H16Zm0,5.4h4.6v15.4H16Z" style="fill:#3a5675"/><path d="M24,127.4h4.6v20.8H24Z" style="fill:#3a5675"/><path d="M32.8,135.8H30.3v-3h2.6l.2-4.3,4.1-.2v4.5h3.2v3H37.2v6.9c0,1.8.4,2.5,1.9,2.5l1.7-.2v3.3a16.5,16.5,0,0,1-3,.4c-3.6,0-5-1.7-5-5.5Z" style="fill:#3a5675"/><path d="M50.1,148.7c-4.8,0-8-3.3-8-8.1a7.9,7.9,0,0,1,8.2-8.2c4.6,0,7.5,3.1,7.5,8.3v.6H46.9c0,2.7,1.2,4.2,3.4,4.2a3,3,0,0,0,3-2.3l4.4.3C56.7,146.8,53.9,148.7,50.1,148.7Zm3-9.9c0-2.3-1.1-3.5-3.1-3.5s-2.9,1.3-3,3.5Z" style="fill:#3a5675"/><path d="M60.4,132.8h3.9v3.3c.7-2.5,2.1-3.7,4.3-3.7h.8v4.1h-.9c-2.3,0-3.7,1.5-3.7,4.1v7.5H60.4Z" style="fill:#3a5675"/><path d="M81.2,135.8H78.8v-3h2.4v-.5c0-3.6,1.7-5.2,5.3-5.2a21.9,21.9,0,0,1,3.6.3v3l-2.4-.2c-1.5,0-2.3.7-2.3,2.2s.1.3.1.4h3.8v3H85.6v12.4H81.2Z" style="fill:#3a5675"/><path d="M90.1,140.5c0-4.9,3.1-8.1,7.8-8.1s7.8,3.2,7.8,8.1-3.2,8.2-7.8,8.2S90.1,145.4,90.1,140.5Zm10.8,0c0-3.3-1.1-5-3-5s-3,1.7-3,5,1,5,3,5S100.9,143.8,100.9,140.5Z" style="fill:#3a5675"/><path d="M108.2,132.8h4v3.3c.7-2.5,2-3.7,4.3-3.7h.7v4.1h-.9c-2.3,0-3.6,1.5-3.6,4.1v7.5h-4.5Z" style="fill:#3a5675"/><path d="M126.3,148.7c-4.8,0-8-3.3-8-8.1a7.9,7.9,0,0,1,8.2-8.2c4.6,0,7.5,3.1,7.5,8.3v.6H123.1c0,2.7,1.3,4.2,3.4,4.2a3.2,3.2,0,0,0,3.1-2.3l4.3.3C132.9,146.8,130.1,148.7,126.3,148.7Zm3-9.9c0-2.3-1.1-3.5-3-3.5s-3,1.3-3.1,3.5Z" style="fill:#3a5675"/><path d="M139.1,143.4c.4,1.4,1.7,2.2,3.8,2.2s2.6-.7,2.6-1.7-1.3-1.2-3.7-1.7c-3.9-.8-5.8-2-5.8-4.8s2.5-5,6.6-5,5.5,1.4,6.5,4l-3.6.6a3.1,3.1,0,0,0-3.1-1.7c-1.5,0-2.3.5-2.3,1.5s1.5,1.3,4.4,1.9,5.3,1.9,5.3,4.6-2.7,5.3-7.3,5.3-6.4-1.8-7.1-4.7Z" style="fill:#3a5675"/><path d="M153,135.8h-2.5v-3h2.6l.2-4.3,4.1-.2v4.5h3.2v3h-3.2v6.9c0,1.8.4,2.5,1.9,2.5l1.7-.2v3.3a15.4,15.4,0,0,1-3,.4c-3.6,0-5-1.7-5-5.5Z" style="fill:#3a5675"/><path d="M30,168.8h4v3.3c.7-2.5,2-3.7,4.3-3.7H39v4.1h-.9c-2.3,0-3.6,1.5-3.6,4.1v7.5H30Z" style="fill:#3a5675"/><path d="M48.1,184.7c-4.8,0-7.9-3.3-7.9-8.1a7.8,7.8,0,0,1,8.1-8.2c4.6,0,7.5,3.1,7.5,8.3v.6H45c0,2.7,1.2,4.2,3.3,4.2a3.1,3.1,0,0,0,3.1-2.3l4.3.3C54.7,182.8,51.9,184.7,48.1,184.7Zm3-9.9c0-2.3-1.1-3.5-3-3.5s-3,1.3-3.1,3.5Z" style="fill:#3a5675"/><path d="M58.2,173.6c0-2.9,2.5-5.1,6.7-5.1a8.7,8.7,0,0,1,3.2.6c.3-2.3,1.5-3.3,3.7-3.3h1.5V169h-1c-1.2,0-1.8.3-2,1.1a5,5,0,0,1,1.6,3.5c0,2.9-2.4,4.9-6.6,4.9a9.9,9.9,0,0,1-2.4-.3c-.6.3-.9.7-.9,1.1s.5,1.1,1.5,1.2l4.7.2c3.4.1,5.4,1.9,5.4,4.3s-2.8,4.8-8.1,4.8-8.4-1.3-8.4-4.1a3,3,0,0,1,2.3-2.9,2.7,2.7,0,0,1-1.5-2.4c0-1.5.9-2.5,2.7-3.2A4,4,0,0,1,58.2,173.6Zm2.7,11.7c0,1.3,1.4,1.8,4.5,1.8s4-.4,4-1.7-.7-1.3-2.2-1.3l-5.3-.3A1.5,1.5,0,0,0,60.9,185.3Zm1.6-11.8A2.3,2.3,0,0,0,65,176a2.3,2.3,0,0,0,2.5-2.5,2.4,2.4,0,0,0-2.5-2.6A2.4,2.4,0,0,0,62.5,173.5Z" style="fill:#3a5675"/><path d="M75,163.4h4.6v3.4H75Zm0,5.4h4.6v15.4H75Z" style="fill:#3a5675"/><path d="M82.2,176.5c0-4.9,3.1-8.1,7.7-8.1s7.8,3.2,7.8,8.1-3.1,8.2-7.8,8.2S82.2,181.4,82.2,176.5Zm10.7,0c0-3.3-1.1-5-3-5s-2.9,1.7-2.9,5,1,5,2.9,5S92.9,179.8,92.9,176.5Z" style="fill:#3a5675"/><path d="M100.3,168.8h4.1v2.5a5,5,0,0,1,4.6-2.9c3.5,0,5,1.9,5,5.8v10h-4.4v-9.7c0-1.8-.7-2.8-2.1-2.8s-2.8,1.3-2.8,3.4v9.1h-4.4Z" style="fill:#3a5675"/><path d="M119.8,179.4c.4,1.4,1.8,2.2,3.8,2.2s2.7-.7,2.7-1.7-1.4-1.2-3.8-1.7-5.8-2-5.8-4.8,2.5-5,6.6-5,5.6,1.4,6.5,4l-3.6.6c-.5-1.2-1.5-1.7-3.1-1.7s-2.3.5-2.3,1.5,1.6,1.3,4.5,1.9,5.2,1.9,5.2,4.6-2.7,5.3-7.3,5.3-6.4-1.8-7.1-4.7Z" style="fill:#3a5675"/><polygon points="83.3 17.2 73.6 32.5 78 31.6 70.9 42.4 76.5 41.2 66.5 56.5 81.3 53.2 81.3 65.2 85.7 65.2 85.7 53.3 100 56.5 90 41.2 95.6 42.4 88.5 31.6 92.9 32.5 83.3 17.2" style="fill:#5d7452"/><polygon points="68.4 4 62.2 14 65 13.4 60.4 20.4 64 19.6 57.5 29.6 67.2 27.4 67.2 35.2 70 35.2 70 27.5 79.3 29.6 72.8 19.6 76.4 20.4 71.8 13.4 74.6 14 68.4 4" style="fill:#5d7452"/><polygon points="103.4 0 97.2 10 100 9.4 95.4 16.4 99 15.6 92.5 25.6 102.2 23.4 102.2 31.2 105 31.2 105 23.5 114.3 25.6 107.8 15.6 111.4 16.4 106.8 9.4 109.6 10 103.4 0" style="fill:#5d7452;opacity:0.35000000000000003"/><polygon points="111.3 25.2 97.4 47.3 103.7 45.9 93.5 61.5 101.6 59.7 87.2 81.7 108.5 76.9 108.5 94.2 114.7 94.2 114.7 77.1 135.3 81.7 120.9 59.7 129 61.5 118.8 45.9 125.1 47.3 111.3 25.2" style="fill:#5d7452"/><polygon points="48.3 25.2 34.4 47.3 40.7 45.9 30.5 61.5 38.6 59.7 24.3 81.7 45.5 76.9 45.5 94.2 51.7 94.2 51.7 77.1 72.3 81.7 57.9 59.7 66 61.5 55.9 45.9 62.1 47.3 48.3 25.2" style="fill:#5d7452;opacity:0.35000000000000003"/></svg>
