<svg xmlns="http://www.w3.org/2000/svg" viewBox="0 0 42.09 24.67"><title>Asset 7</title><polygon points="20.9 0 15.97 7.89 18.19 7.4 14.55 12.98 17.45 12.34 12.33 20.2 19.91 18.48 19.91 24.67 22.14 24.67 22.14 18.54 29.48 20.2 24.36 12.34 27.25 12.98 23.62 7.4 25.84 7.89 20.9 0" style="fill:#5d7453"/><polygon points="6.35 2.08 2.69 7.93 4.34 7.56 1.65 11.69 3.79 11.22 0 17.04 5.62 15.77 5.62 20.35 7.26 20.35 7.26 15.81 12.7 17.04 8.9 11.22 11.05 11.69 8.36 7.56 10 7.93 6.35 2.08 6.35 2.08" style="fill:#bac0b1"/><polygon points="35.74 3.09 32.09 8.93 33.74 8.56 31.04 12.7 33.19 12.22 29.4 18.04 35.01 16.77 35.01 21.35 36.66 21.35 36.66 16.81 42.09 18.04 38.3 12.22 40.45 12.7 37.75 8.56 39.4 8.93 35.75 3.09 35.74 3.09" style="fill:#bac0b1"/></svg>