<svg xmlns="http://www.w3.org/2000/svg" viewBox="0 0 92.32 52.9"><title>Asset 2</title><path d="M0,32H4.79v1.26H1.62v1.59H4.11v1.2H1.62V39H0Z" style="fill:#3a5675"/><path d="M4.83,36.39a2.51,2.51,0,0,1,2.6-2.72A2.51,2.51,0,0,1,10,36.39a2.51,2.51,0,0,1-2.6,2.71A2.51,2.51,0,0,1,4.83,36.39Zm3.6,0c0-1.11-.36-1.69-1-1.69s-1,.57-1,1.69.35,1.67,1,1.67S8.43,37.49,8.43,36.39Z" style="fill:#3a5675"/><path d="M10.88,33.81h1.34v1.08a1.4,1.4,0,0,1,1.42-1.22l.26,0v1.39l-.31,0c-.76,0-1.21.51-1.21,1.38V39h-1.5Z" style="fill:#3a5675"/><path d="M16.94,39.1a2.53,2.53,0,0,1-2.67-2.7A2.62,2.62,0,0,1,17,33.67c1.53,0,2.49,1,2.49,2.77v.21H15.88c0,.9.41,1.39,1.12,1.39a1,1,0,0,0,1-.77l1.45.12A2.45,2.45,0,0,1,16.94,39.1Zm1-3.3c0-.75-.38-1.15-1-1.15s-1,.41-1,1.15Z" style="fill:#3a5675"/><path d="M21.21,37.35c.13.47.58.74,1.25.74s.89-.24.89-.56-.45-.43-1.25-.59c-1.28-.25-1.93-.66-1.93-1.6s.83-1.68,2.19-1.68A2.1,2.1,0,0,1,24.54,35l-1.21.22a1,1,0,0,0-1-.58c-.5,0-.77.18-.77.51s.52.43,1.49.63c1.17.24,1.75.65,1.75,1.55s-.91,1.74-2.44,1.74A2.24,2.24,0,0,1,20,37.52Z" style="fill:#3a5675"/><path d="M25.84,34.81H25v-1h.88L26,32.38l1.37-.09v1.52H28.4v1H27.33v2.32c0,.58.11.81.62.81a2.44,2.44,0,0,0,.56-.07V39a4.9,4.9,0,0,1-1,.11c-1.21,0-1.69-.55-1.69-1.81Z" style="fill:#3a5675"/><path d="M32.39,32h2.14L36,36.61,37.38,32H39.6v7H38.06l0-5.53L36.38,39H35.33l-1.71-5.54,0,5.54H32.39Z" style="fill:#3a5675"/><path d="M44,38.13a1.87,1.87,0,0,1-1.71,1c-1.12,0-1.8-.62-1.8-1.57,0-1.21,1.16-1.86,3.48-1.88v-.22c0-.52-.29-.79-.87-.79s-1,.25-1.07.72l-1.4-.15c.24-1,1.1-1.53,2.55-1.53,1.63,0,2.26.6,2.26,2V38a2.45,2.45,0,0,0,.15,1H44.14A4,4,0,0,1,44,38.13Zm-1.93-.7c0,.42.28.67.78.67A1.13,1.13,0,0,0,44,36.9v-.46C42.75,36.46,42.11,36.82,42.11,37.43Z" style="fill:#3a5675"/><path d="M46.56,33.81h1.38v.82a1.68,1.68,0,0,1,1.55-1c1.14,0,1.67.63,1.67,1.95V39H49.67V35.72c0-.63-.23-1-.7-1S48,35.2,48,35.92v3H46.56Z" style="fill:#3a5675"/><path d="M55.46,38.13a1.85,1.85,0,0,1-1.7,1c-1.13,0-1.81-.62-1.81-1.57,0-1.21,1.17-1.86,3.48-1.88v-.22c0-.52-.29-.79-.86-.79s-1,.25-1.07.72l-1.41-.15c.24-1,1.11-1.53,2.56-1.53,1.62,0,2.26.6,2.26,2V38a2.45,2.45,0,0,0,.15,1h-1.5A4,4,0,0,1,55.46,38.13Zm-1.92-.7c0,.42.28.67.78.67a1.12,1.12,0,0,0,1.11-1.2v-.46C54.18,36.46,53.54,36.82,53.54,37.43Z" style="fill:#3a5675"/><path d="M57.91,35.39c0-1,.85-1.69,2.26-1.69a3,3,0,0,1,1.06.19,1.1,1.1,0,0,1,1.25-1.09l.5,0,0,1.06-.36,0c-.39,0-.6.1-.67.37a1.6,1.6,0,0,1,.54,1.17c0,1-.79,1.64-2.19,1.64a3.45,3.45,0,0,1-.8-.08c-.22.09-.32.21-.32.36s.17.36.51.38l1.57.07c1.15,0,1.79.63,1.79,1.43,0,1-.92,1.61-2.68,1.61s-2.84-.42-2.84-1.35a1,1,0,0,1,.79-1,.86.86,0,0,1-.5-.78c0-.5.3-.85.91-1.06A1.37,1.37,0,0,1,57.91,35.39Zm.9,3.91c0,.45.49.63,1.51.63s1.35-.14,1.35-.58c0-.28-.25-.42-.73-.45l-1.79-.1A.55.55,0,0,0,58.81,39.3Zm.55-3.93a.84.84,0,1,0,.84-.85A.8.8,0,0,0,59.36,35.37Z" style="fill:#3a5675"/><path d="M65.92,39.1a2.53,2.53,0,0,1-2.66-2.7A2.62,2.62,0,0,1,66,33.67c1.54,0,2.5,1,2.5,2.77v.21H64.86c0,.9.41,1.39,1.12,1.39a1,1,0,0,0,1-.77l1.45.12A2.45,2.45,0,0,1,65.92,39.1Zm1-3.3c0-.75-.38-1.15-1-1.15s-1,.41-1,1.15Z" style="fill:#3a5675"/><path d="M75.23,33.69c1,0,1.57.59,1.57,1.72V39H75.33V35.65c0-.54-.25-.83-.66-.83s-.88.42-.88,1.12v3H72.32V35.67c0-.57-.22-.86-.64-.86s-.86.4-.86,1V39H69.35V33.81h1.37v.78a1.65,1.65,0,0,1,1.48-.9,1.42,1.42,0,0,1,1.44.89A1.79,1.79,0,0,1,75.23,33.69Z" style="fill:#3a5675"/><path d="M80.26,39.1a2.53,2.53,0,0,1-2.66-2.7,2.62,2.62,0,0,1,2.73-2.73c1.54,0,2.5,1,2.5,2.77v.21H79.2c0,.9.41,1.39,1.12,1.39a1,1,0,0,0,1-.77l1.45.12A2.45,2.45,0,0,1,80.26,39.1Zm1-3.3c0-.75-.38-1.15-1-1.15s-1,.41-1,1.15Z" style="fill:#3a5675"/><path d="M83.69,33.81h1.39v.82a1.66,1.66,0,0,1,1.54-1c1.14,0,1.67.63,1.67,1.95V39H86.8V35.72c0-.63-.23-1-.7-1s-.92.44-.92,1.16v3H83.69Z" style="fill:#3a5675"/><path d="M89.64,34.81h-.83v-1h.87l.08-1.43,1.38-.09v1.52h1.07v1H91.14v2.32c0,.58.11.81.62.81a2.44,2.44,0,0,0,.56-.07V39a4.9,4.9,0,0,1-1,.11c-1.21,0-1.7-.55-1.7-1.81Z" style="fill:#3a5675"/><path d="M25.79,48.74a1.51,1.51,0,0,0,1.6,1.11c.66,0,1.1-.34,1.1-.81s-.55-.69-1.54-.95a3.83,3.83,0,0,1-1.85-.82,1.61,1.61,0,0,1-.5-1.21c0-1.26,1-2.18,2.73-2.18A2.62,2.62,0,0,1,30,45.63L28.6,46a1.3,1.3,0,0,0-1.33-.92c-.64,0-1,.33-1,.77s.55.63,1.52.89a4.45,4.45,0,0,1,1.77.72,1.75,1.75,0,0,1,.64,1.44c0,1.24-1.13,2.21-2.88,2.21a2.86,2.86,0,0,1-3-2.09Z" style="fill:#3a5675"/><path d="M35.62,51H34.24v-.82a1.67,1.67,0,0,1-1.55,1c-1.15,0-1.67-.63-1.67-2V45.84h1.49v3.23c0,.64.24,1,.7,1s.91-.42.91-1.16v-3h1.5Z" style="fill:#3a5675"/><path d="M42.64,45.72c1,0,1.57.59,1.57,1.72V51H42.73V47.68c0-.54-.24-.83-.65-.83s-.88.42-.88,1.12v3H39.73V47.7c0-.57-.22-.86-.64-.86s-.86.4-.86,1V51H36.76V45.84h1.37v.78a1.65,1.65,0,0,1,1.48-.9,1.42,1.42,0,0,1,1.44.89A1.79,1.79,0,0,1,42.64,45.72Z" style="fill:#3a5675"/><path d="M51.18,45.72c1,0,1.57.59,1.57,1.72V51H51.27V47.68c0-.54-.24-.83-.65-.83s-.88.42-.88,1.12v3H48.27V47.7c0-.57-.22-.86-.65-.86s-.85.4-.85,1V51H45.3V45.84h1.37v.78a1.64,1.64,0,0,1,1.48-.9,1.42,1.42,0,0,1,1.44.89A1.79,1.79,0,0,1,51.18,45.72Z" style="fill:#3a5675"/><path d="M57,50.16a1.85,1.85,0,0,1-1.7,1c-1.12,0-1.8-.62-1.8-1.57,0-1.22,1.16-1.86,3.48-1.88v-.22c0-.52-.3-.79-.87-.79s-1,.25-1.07.72l-1.4-.15c.24-1,1.1-1.53,2.55-1.53,1.63,0,2.26.6,2.26,2V50a2.45,2.45,0,0,0,.15,1H57.15A4,4,0,0,1,57,50.16Zm-1.92-.71c0,.43.28.68.78.68A1.14,1.14,0,0,0,57,48.92v-.46C55.76,48.48,55.12,48.84,55.12,49.45Z" style="fill:#3a5675"/><path d="M59.57,45.84H60.9v1.08a1.4,1.4,0,0,1,1.43-1.22l.26,0v1.39l-.31,0c-.77,0-1.22.51-1.22,1.37V51H59.57Z" style="fill:#3a5675"/><path d="M63,51.69a4.54,4.54,0,0,0,.75.07.81.81,0,0,0,.94-.8l-1.92-5.12h1.62l1.09,3.43,1.13-3.43h1.17l-2,5.68A1.76,1.76,0,0,1,63.9,52.9a7.47,7.47,0,0,1-.86-.06Z" style="fill:#3a5675"/><polygon points="45.77 0 40.84 7.89 43.05 7.4 39.42 12.98 42.31 12.34 37.2 20.2 44.78 18.48 44.78 24.68 47 24.68 47 18.54 54.34 20.2 49.23 12.34 52.12 12.98 48.48 7.4 50.7 7.89 45.77 0" style="fill:#5d7453"/><polygon points="31.21 2.08 27.56 7.93 29.2 7.56 26.51 11.69 28.66 11.22 24.87 17.04 30.48 15.77 30.48 20.35 32.13 20.35 32.13 15.81 37.56 17.04 33.77 11.22 35.92 11.69 33.22 7.56 34.87 7.93 31.22 2.08 31.21 2.08" style="fill:#bac0b1"/><polygon points="60.61 3.09 56.96 8.93 58.6 8.56 55.91 12.7 58.06 12.22 54.27 18.04 59.88 16.77 59.88 21.35 61.53 21.35 61.53 16.81 66.96 18.04 66.96 18.04 63.17 12.22 65.31 12.7 62.62 8.56 64.27 8.93 60.61 3.09 60.61 3.09" style="fill:#bac0b1"/></svg>