<svg xmlns="http://www.w3.org/2000/svg" viewBox="0 0 33.79 49.92"><title>Asset 1</title><path d="M16.48,22.05s14.77-22,0-22c-13.94,0,0,22.05,0,22.05" style="fill:#68b8c6"/><path d="M12,21.35S-2.63,23.64.84,16.16C4.12,9.11,12,21.35,12,21.35" style="fill:#68b8c6"/><path d="M21.35,21.35S36,23.64,32.51,16.16c-3.27-7-11.16,5.19-11.16,5.19" style="fill:#68b8c6"/><path d="M3.88,30.79H5.5V33.5H7.79V30.79H9.41v7H7.79v-3H5.5v3H3.88Z" style="fill:#3a5675"/><path d="M10.25,38.45a4.54,4.54,0,0,0,.75.07c.59,0,.88-.23.95-.8L10,32.6h1.63L12.74,36l1.12-3.44H15l-2,5.68a1.76,1.76,0,0,1-1.88,1.38,7.47,7.47,0,0,1-.86-.06Z" style="fill:#3a5675"/><path d="M20.17,37.75H18.76V37a1.59,1.59,0,0,1-1.41.92c-1.25,0-2.06-1-2.06-2.69s.86-2.72,2-2.72a1.63,1.63,0,0,1,1.35.71V30.79h1.5Zm-2.39-4.23c-.57,0-.9.56-.9,1.64s.31,1.64.92,1.64a1,1,0,0,0,.87-1.07V34.54C18.67,33.88,18.34,33.52,17.78,33.52Z" style="fill:#3a5675"/><path d="M21.27,32.6H22.6v1.08A1.4,1.4,0,0,1,24,32.46l.26,0v1.39l-.31,0c-.76,0-1.21.51-1.21,1.37v2.53H21.27Z" style="fill:#3a5675"/><path d="M24.65,35.17a2.61,2.61,0,1,1,5.21,0,2.61,2.61,0,1,1-5.21,0Zm3.6,0c0-1.1-.36-1.68-1-1.68s-1,.57-1,1.68.34,1.68,1,1.68S28.25,36.28,28.25,35.17Z" style="fill:#3a5675"/><path d="M0,42.82H3c1.75,0,2.63.67,2.63,2a1.82,1.82,0,0,1-1.24,1.85l1.31,3.11H4L2.85,47H1.61v2.81H0ZM1.61,44v1.81h1.2c.77,0,1.18-.34,1.18-.93S3.59,44,2.82,44Z" style="fill:#3a5675"/><path d="M8.71,49.92A2.55,2.55,0,0,1,6,47.21a2.63,2.63,0,0,1,2.74-2.73c1.53,0,2.5,1,2.5,2.77v.21H7.65c0,.9.41,1.39,1.12,1.39a1,1,0,0,0,1-.77l1.46.12A2.46,2.46,0,0,1,8.71,49.92Zm1-3.3c0-.75-.38-1.15-1-1.15s-1,.41-1,1.15Z" style="fill:#3a5675"/><path d="M13,48.16c.13.47.58.74,1.25.74s.89-.24.89-.56-.45-.43-1.25-.59C12.59,47.5,12,47.09,12,46.16s.82-1.69,2.18-1.69a2.11,2.11,0,0,1,2.19,1.35L15.1,46a1,1,0,0,0-1-.58c-.5,0-.77.18-.77.51s.52.43,1.49.63c1.18.24,1.75.64,1.75,1.54s-.9,1.75-2.44,1.75a2.23,2.23,0,0,1-2.37-1.56Z" style="fill:#3a5675"/><path d="M21.9,49.78H20.52V49a1.66,1.66,0,0,1-1.55,1c-1.15,0-1.67-.63-1.67-2V44.62h1.49v3.24c0,.63.24,1,.7,1s.92-.42.92-1.15v-3H21.9Z" style="fill:#3a5675"/><path d="M23,42.82h1.54v7H23Z" style="fill:#3a5675"/><path d="M26,45.63h-.84v-1H26l.08-1.43,1.37-.09v1.52h1.07v1H27.46v2.31c0,.58.11.81.62.81a2.44,2.44,0,0,0,.56-.07v1.13a4.9,4.9,0,0,1-1,.11c-1.21,0-1.69-.55-1.69-1.82Z" style="fill:#3a5675"/><path d="M30.23,48.16c.13.47.58.74,1.25.74s.89-.24.89-.56-.45-.43-1.25-.59c-1.29-.25-1.93-.66-1.93-1.59s.83-1.69,2.19-1.69a2.1,2.1,0,0,1,2.18,1.35L32.35,46a1,1,0,0,0-1-.58c-.5,0-.77.18-.77.51s.52.43,1.49.63c1.17.24,1.75.64,1.75,1.54s-.91,1.75-2.44,1.75A2.24,2.24,0,0,1,29,48.33Z" style="fill:#3a5675"/></svg>