<?xml version="1.0" encoding="utf-8"?>
<!-- Generator: Adobe Illustrator 22.1.0, SVG Export Plug-In . SVG Version: 6.00 Build 0)  -->
<svg version="1.1" id="Layer_1" xmlns="http://www.w3.org/2000/svg" xmlns:xlink="http://www.w3.org/1999/xlink" x="0px" y="0px"
	 viewBox="0 0 33.8 49.9" style="enable-background:new 0 0 33.8 49.9;" xml:space="preserve">
<style type="text/css">
	.st0{fill:#68B8C6;}
	.st1{fill:#3A5676;}
</style>
<title>Asset 1</title>
<path class="st0" d="M16.5,22c0,0,14.8-22,0-22C2.5,0,16.5,22.1,16.5,22"/>
<path class="st0" d="M12,21.4c0,0-14.6,2.3-11.2-5.2C4.1,9.1,12,21.4,12,21.4"/>
<path class="st0" d="M21.4,21.4c0,0,14.6,2.3,11.2-5.2C29.2,9.2,21.3,21.4,21.4,21.4"/>
<g>
	<g>
		<path class="st1" d="M6.9,30.8h4.8V32H8.5v1.6H11v1.2H8.5v2.9H6.9V30.8z"/>
		<path class="st1" d="M12.2,30.8h1.5v7h-1.5V30.8z"/>
		<path class="st1" d="M14.6,35.2c0-1.6,1.1-2.7,2.6-2.7c1.6,0,2.6,1.1,2.6,2.7c0,1.6-1.1,2.7-2.6,2.7
			C15.6,37.9,14.6,36.8,14.6,35.2z M18.2,35.2c0-1.1-0.4-1.7-1-1.7c-0.7,0-1,0.6-1,1.7c0,1.1,0.3,1.7,1,1.7
			C17.8,36.9,18.2,36.3,18.2,35.2z"/>
		<path class="st1" d="M20,32.6h1.5l0.9,3.2l0.8-3.2h1.1l0.8,3.2l0.9-3.2h1.1l-1.6,5.2h-1.1l-0.9-3.3l-0.9,3.3h-1.1L20,32.6z"/>
	</g>
	<g>
		<path class="st1" d="M0,42.8h3c1.8,0,2.6,0.7,2.6,2c0,0.9-0.4,1.5-1.2,1.8l1.3,3.1H4L2.8,47H1.6v2.8H0V42.8z M1.6,44v1.8h1.2
			c0.8,0,1.2-0.3,1.2-0.9C4,44.3,3.6,44,2.8,44H1.6z"/>
		<path class="st1" d="M8.7,49.9c-1.6,0-2.7-1.1-2.7-2.7c0-1.6,1.1-2.7,2.7-2.7c1.5,0,2.5,1,2.5,2.8c0,0.1,0,0.1,0,0.2H7.6
			c0,0.9,0.4,1.4,1.1,1.4c0.5,0,0.9-0.3,1-0.8l1.5,0.1C10.9,49.3,10,49.9,8.7,49.9z M9.7,46.6c0-0.8-0.4-1.2-1-1.2
			c-0.6,0-1,0.4-1,1.2H9.7z"/>
		<path class="st1" d="M13,48.2c0.1,0.5,0.6,0.7,1.3,0.7c0.6,0,0.9-0.2,0.9-0.6c0-0.5-0.5-0.4-1.3-0.6c-1.3-0.3-1.9-0.7-1.9-1.6
			c0-1,0.8-1.7,2.2-1.7c1.1,0,1.9,0.5,2.2,1.3L15.1,46c-0.2-0.4-0.5-0.6-1-0.6c-0.5,0-0.8,0.2-0.8,0.5c0,0.5,0.5,0.4,1.5,0.6
			c1.2,0.2,1.7,0.6,1.7,1.5c0,1-0.9,1.7-2.4,1.7c-1.2,0-2.1-0.6-2.4-1.6L13,48.2z"/>
		<path class="st1" d="M21.9,49.8h-1.4V49c-0.3,0.6-0.9,1-1.5,1c-1.2,0-1.7-0.6-1.7-2v-3.3h1.5v3.2c0,0.6,0.2,1,0.7,1
			c0.5,0,0.9-0.4,0.9-1.2v-3h1.5V49.8z"/>
		<path class="st1" d="M23,42.8h1.5v7H23V42.8z"/>
		<path class="st1" d="M26,45.6h-0.8v-1H26l0.1-1.4l1.4-0.1v1.5h1.1v1h-1.1v2.3c0,0.6,0.1,0.8,0.6,0.8c0.2,0,0.4,0,0.6-0.1v1.1
			c-0.3,0.1-0.7,0.1-1,0.1c-1.2,0-1.7-0.6-1.7-1.8V45.6z"/>
		<path class="st1" d="M30.2,48.2c0.1,0.5,0.6,0.7,1.3,0.7c0.6,0,0.9-0.2,0.9-0.6c0-0.5-0.5-0.4-1.3-0.6c-1.3-0.3-1.9-0.7-1.9-1.6
			c0-1,0.8-1.7,2.2-1.7c1.1,0,1.9,0.5,2.2,1.3L32.4,46c-0.2-0.4-0.5-0.6-1-0.6c-0.5,0-0.8,0.2-0.8,0.5c0,0.5,0.5,0.4,1.5,0.6
			c1.2,0.2,1.7,0.6,1.7,1.5c0,1-0.9,1.7-2.4,1.7c-1.2,0-2.1-0.6-2.4-1.6L30.2,48.2z"/>
	</g>
</g>
</svg>
