<svg xmlns="http://www.w3.org/2000/svg" viewBox="0 0 33.12 37.4"><title>i_info_light</title><polygon points="18.46 15.61 18.46 13.76 13.52 13.76 13.52 15.66 14.66 15.66 14.66 22.5 13.52 22.5 13.52 24.39 19.6 24.39 19.6 22.5 18.46 22.5 18.46 15.61" style="fill:#67b8c6"/><circle cx="16.56" cy="10.68" r="1.9" style="fill:#67b8c6"/><path d="M33.12,16.56A16.56,16.56,0,1,0,11.49,32.33l5.07,5.07,5.07-5.07A16.59,16.59,0,0,0,33.12,16.56ZM16.56,28.85A12.29,12.29,0,1,1,28.85,16.56,12.31,12.31,0,0,1,16.56,28.85Z" style="fill:#67b8c6"/></svg>