<svg xmlns="http://www.w3.org/2000/svg" viewBox="0 0 23.39 23.36"><title>Asset 1</title><path d="M11,0V11.45a1.6,1.6,0,0,0,.19.71c1.88,3.24,3.73,6.48,5.61,9.71l.11.23A11.52,11.52,0,0,1,4.52,20.89,11.68,11.68,0,0,1,11,0" style="fill:#9ca66a"/><path d="M13,12.39c1.74,3,3.47,6,5.2,9a12,12,0,0,0,4.07-4.63,11,11,0,0,0,1.13-4.33H13Zm7.87,3.69a9.85,9.85,0,0,1-2.22,3l-3-5.16h6a13.67,13.67,0,0,1-.76,2.15" style="fill:#9ca66a"/><path d="M13,12.39c1.74,3,3.47,6,5.2,9a12,12,0,0,0,4.07-4.63,11,11,0,0,0,1.13-4.33H13Zm7.87,3.69a9.85,9.85,0,0,1-2.22,3l-3-5.16h6a13.67,13.67,0,0,1-.76,2.15" style="fill:#9ca66a"/><path d="M15.4.56l-3,2V0a16.76,16.76,0,0,1,1.92.26,6.45,6.45,0,0,1,.94.27l.11,0" style="fill:#9ca66a"/><path d="M18.45,2.11l-6,4.22V4.44L17,1.24c.15.08.3.15.42.23a6.7,6.7,0,0,1,1,.64" style="fill:#9ca66a"/><path d="M20.75,4.25,12.43,10V8.13l7.27-5,.45.45a6.13,6.13,0,0,1,.49.56l.11.11" style="fill:#9ca66a"/><path d="M22.33,6.81l-5.87,4.11H13.79l7.83-5.46.15.26c.22.38.41.76.56,1.09" style="fill:#9ca66a"/><path d="M23.35,10.92H19.09L22.9,8.28c0,.15.07.3.11.45s.11.53.15.76a11.52,11.52,0,0,1,.19,1.43" style="fill:#9ca66a"/></svg>