<svg xmlns="http://www.w3.org/2000/svg" viewBox="0 0 193.4 198.5"><path d="M4.5,150.3c.6,2.1,2.3,3.3,4.8,3.3s3.3-1,3.3-2.4S11,149.1,8,148.3s-3.9-.9-5.5-2.4A5,5,0,0,1,1,142.2c0-3.7,3.1-6.5,8.1-6.5s6.8,1.9,8,5.3L13,142.1a4,4,0,0,0-4-2.7c-2,0-3.1,1-3.1,2.2s1.6,1.9,4.5,2.7,3.8.9,5.3,2.2a5,5,0,0,1,1.9,4.3c0,3.7-3.3,6.6-8.6,6.6s-8-2.3-9-6.2Z" style="fill:#3a5675"/><path d="M27.4,157.4c-4.8,0-7.9-3.2-7.9-8.1a7.8,7.8,0,0,1,8.2-8.1c4.5,0,7.4,3.1,7.4,8.2v.7H24.3c0,2.7,1.2,4.1,3.3,4.1a3,3,0,0,0,3.1-2.3l4.3.4C34,155.6,31.3,157.4,27.4,157.4Zm3-9.8c0-2.3-1.1-3.5-3-3.5s-3,1.2-3.1,3.5Z" style="fill:#3a5675"/><path d="M37.7,136.2h4.6V157H37.7Z" style="fill:#3a5675"/><path d="M52.8,157.4c-4.8,0-8-3.2-8-8.1a7.9,7.9,0,0,1,8.2-8.1c4.6,0,7.5,3.1,7.5,8.2v.7H49.6c0,2.7,1.2,4.1,3.4,4.1a2.9,2.9,0,0,0,3-2.3l4.4.4C59.4,155.6,56.6,157.4,52.8,157.4Zm3-9.8c0-2.3-1.1-3.5-3.1-3.5s-2.9,1.2-3,3.5Z" style="fill:#3a5675"/><path d="M69.8,144.3c-1.8,0-2.8,1.7-2.8,5s1,5,2.8,5,2.5-1.2,2.7-3.2l3.9.5a6.4,6.4,0,0,1-6.8,5.8c-4.4,0-7.4-3.2-7.4-8.1s3.1-8.1,7.7-8.1,6,2.1,6.5,5.8l-4,.4C72.1,145.4,71.1,144.3,69.8,144.3Z" style="fill:#3a5675"/><path d="M79.6,144.6H77.1v-3h2.6l.2-4.3,4.2-.3v4.6h3.2v3H84.1v6.9c0,1.8.3,2.4,1.8,2.4a5.2,5.2,0,0,0,1.7-.2v3.4l-2.9.3c-3.7,0-5.1-1.6-5.1-5.4Z" style="fill:#3a5675"/><path d="M101.5,152.2c.3,1.4,1.7,2.2,3.7,2.2s2.7-.7,2.7-1.7-1.4-1.3-3.8-1.8-5.7-1.9-5.7-4.7,2.4-5.1,6.5-5.1,5.6,1.4,6.5,4.1l-3.6.6c-.5-1.2-1.5-1.7-3.1-1.7s-2.3.5-2.3,1.5,1.6,1.3,4.5,1.9,5.2,1.9,5.2,4.6-2.7,5.2-7.3,5.2-6.3-1.7-7.1-4.6Z" style="fill:#3a5675"/><path d="M115.3,144.6h-2.5v-3h2.6l.3-4.3,4.1-.3v4.6H123v3h-3.2v6.9c0,1.8.3,2.4,1.8,2.4a5.2,5.2,0,0,0,1.7-.2v3.4l-2.9.3c-3.6,0-5.1-1.6-5.1-5.4Z" style="fill:#3a5675"/><path d="M125.5,141.6h4v3.2c.7-2.4,2.1-3.6,4.3-3.6h.8v4.2h-1c-2.2,0-3.6,1.6-3.6,4.1V157h-4.5Z" style="fill:#3a5675"/><path d="M143.7,157.4c-4.9,0-8-3.2-8-8.1a7.8,7.8,0,0,1,8.2-8.1c4.6,0,7.4,3.1,7.4,8.2v.7H140.5c0,2.7,1.2,4.1,3.3,4.1a3,3,0,0,0,3.1-2.3l4.4.4C150.2,155.6,147.5,157.4,143.7,157.4Zm3-9.8c-.1-2.3-1.2-3.5-3.1-3.5s-2.9,1.2-3.1,3.5Z" style="fill:#3a5675"/><path d="M163.5,154.5a5.4,5.4,0,0,1-5.1,2.9c-3.3,0-5.4-1.9-5.4-4.7s3.5-5.6,10.4-5.6v-.7a2.2,2.2,0,0,0-2.5-2.4c-1.9,0-3,.8-3.3,2.2l-4.2-.4c.8-3.1,3.3-4.6,7.7-4.6s6.7,1.8,6.7,6V154a7.8,7.8,0,0,0,.5,3h-4.5A17.1,17.1,0,0,1,163.5,154.5Zm-5.7-2.1c0,1.3.8,2,2.3,2a3.3,3.3,0,0,0,3.3-3.6v-1.4C159.7,149.5,157.8,150.6,157.8,152.4Z" style="fill:#3a5675"/><path d="M188.7,141.2c3.1,0,4.7,1.8,4.7,5.2V157H189v-9.9c0-1.6-.8-2.5-2-2.5s-2.6,1.3-2.6,3.4v9H180v-9.8c0-1.7-.7-2.6-2-2.6s-2.5,1.2-2.5,3.1V157h-4.4V141.6h4.1v2.3a4.8,4.8,0,0,1,4.4-2.7,4.3,4.3,0,0,1,4.3,2.7A5.5,5.5,0,0,1,188.7,141.2Z" style="fill:#3a5675"/><path d="M41.1,188.2c.4,1.4,1.7,2.2,3.7,2.2s2.7-.7,2.7-1.7-1.3-1.3-3.7-1.8S38,185,38,182.2s2.5-5.1,6.5-5.1,5.6,1.4,6.6,4.1l-3.6.6a3.1,3.1,0,0,0-3.1-1.7c-1.5,0-2.3.5-2.3,1.5s1.5,1.3,4.4,1.9,5.2,1.9,5.2,4.6-2.7,5.2-7.2,5.2-6.4-1.7-7.2-4.6Z" style="fill:#3a5675"/><path d="M61.3,193.4c-4.8,0-8-3.2-8-8.1a7.9,7.9,0,0,1,8.2-8.1c4.6,0,7.5,3.1,7.5,8.2v.7H58.1c0,2.7,1.2,4.1,3.4,4.1a2.9,2.9,0,0,0,3-2.3l4.4.4C67.9,191.6,65.1,193.4,61.3,193.4Zm3-9.8c0-2.3-1.2-3.5-3.1-3.5s-2.9,1.2-3,3.5Z" style="fill:#3a5675"/><path d="M71.3,182.3c0-2.9,2.6-5,6.8-5a8.9,8.9,0,0,1,3.2.5c.2-2.2,1.4-3.2,3.7-3.2h1.5v3.2H85.3c-1.2,0-1.8.3-2,1.1a5,5,0,0,1,1.6,3.6c0,2.9-2.3,4.8-6.5,4.8A9,9,0,0,1,76,187c-.7.3-1,.6-1,1.1s.5,1.1,1.6,1.1l4.7.2c3.4.2,5.3,1.9,5.3,4.3s-2.8,4.8-8,4.8-8.5-1.2-8.5-4a3.1,3.1,0,0,1,2.3-3,2.6,2.6,0,0,1-1.5-2.3c0-1.5.9-2.6,2.8-3.2A4,4,0,0,1,71.3,182.3ZM74,194c0,1.4,1.5,1.9,4.5,1.9s4.1-.4,4.1-1.7-.8-1.3-2.2-1.4l-5.4-.3A1.7,1.7,0,0,0,74,194Zm1.7-11.7a2.3,2.3,0,0,0,2.5,2.5,2.3,2.3,0,0,0,2.5-2.5,2.5,2.5,0,1,0-5,0Z" style="fill:#3a5675"/><path d="M105.8,177.2c3.1,0,4.7,1.8,4.7,5.2V193h-4.4v-9.9c0-1.6-.7-2.5-2-2.5s-2.6,1.3-2.6,3.4v9H97.1v-9.8c0-1.7-.7-2.6-1.9-2.6s-2.6,1.2-2.6,3.1V193H88.2V177.6h4.1v2.3a5,5,0,0,1,4.4-2.7,4.3,4.3,0,0,1,4.3,2.7A5.5,5.5,0,0,1,105.8,177.2Z" style="fill:#3a5675"/><path d="M120.9,193.4c-4.9,0-8-3.2-8-8.1a7.8,7.8,0,0,1,8.2-8.1c4.6,0,7.4,3.1,7.4,8.2v.7H117.7c0,2.7,1.2,4.1,3.3,4.1a3,3,0,0,0,3.1-2.3l4.4.4C127.4,191.6,124.7,193.4,120.9,193.4Zm3-9.8c-.1-2.3-1.2-3.5-3.1-3.5s-2.9,1.2-3.1,3.5Z" style="fill:#3a5675"/><path d="M131.1,177.6h4.2V180a5,5,0,0,1,4.6-2.8c3.4,0,5,1.9,5,5.8v10h-4.5v-9.7c0-1.9-.7-2.9-2.1-2.9s-2.7,1.4-2.7,3.5V193h-4.5Z" style="fill:#3a5675"/><path d="M148.9,180.6h-2.4v-3h2.6l.2-4.3,4.1-.3v4.6h3.2v3h-3.2v6.9c0,1.8.3,2.4,1.9,2.4a5.6,5.6,0,0,0,1.7-.2v3.4l-3,.3c-3.6,0-5.1-1.6-5.1-5.4Z" style="fill:#3a5675"/><path d="M84.7,16.3c-3.9,1.1-9,4-7.5,7.8,4.3,5.7,20,2.8,30,4.1,2.4.3,6.7.9,5.4,2.9s-34,6.9-50.3,10c-4.1.8-8.7,2-10.4,5.7s1.6,10.1,6.2,12.5,10,3.2,14.3,6,7.1,9.3,3.6,13.1a11.4,11.4,0,0,1-5.8,2.9,103.7,103.7,0,0,1-28.8,3.4c8.5,14.4,27.4,18.6,44.1,18.8,11.3.2,23.4-1,32-8.2s11.3-22.4,2.6-29.5c-4.8-3.9-11.3-4.5-16.9-7.1a5.8,5.8,0,0,1-3-2.3c-2.1-3.7,3.1-7.2,7.3-8.3,8.1-2.1,16.2-4,24.5-5.6,2.8-.5,5.9-1.2,7.7-3.4s1.1-8.5-2.1-11.1-7.5-3.6-11.7-4.3c-7.8-1.5-23.3,1-26.2-3.7,1.2-2.4,18.4-4.3,22.7-10.2s-7.5-14.2-25-7.4C93.1,4,114,4.5,105.1,10.2,99.6,13.7,91.3,14.6,84.7,16.3Z" style="fill:#67b8c6"/><path d="M134.5,90.6,101.2,69.5c-1-.6-1.6-.2-1.4.9l6.4,39c.2,1.1.8,1.2,1.4.2l7.4-12,8.4,12.7a2.1,2.1,0,0,0,2.9.6l1.8-1.2a2.2,2.2,0,0,0,.6-2.9l-8.5-12.7,14-2C135.3,91.9,135.5,91.2,134.5,90.6Z" style="fill:#58595b"/></svg>
