<svg xmlns="http://www.w3.org/2000/svg" xmlns:xlink="http://www.w3.org/1999/xlink" viewBox="0 0 424.41 150.11"><defs><clipPath id="a" transform="translate(-65.76 -139.45)"><rect x="35.18" y="124.65" width="481.76" height="78" style="fill:none"/></clipPath><clipPath id="b" transform="translate(-65.76 -139.45)"><rect width="555.18" height="429" style="fill:none"/></clipPath></defs><title>Asset 1</title><g style="clip-path:url(#a)"><g style="clip-path:url(#b)"><g style="clip-path:url(#b)"><path d="M84.81,175.12c-1.4,0-2.22-2.24-2.22-4.71v-4.16c0-1.37-.54-2.6-2.22-2.6h-3.9v11.47H65.76V145.29H82.88s10,3.17,10.41,7.76v1a7.4,7.4,0,0,1-5.51,6.37c3.61.67,5.51,6.06,5.51,6.06v3.34s.24,3.48,1.53,4.81v.47Zm-2.22-20.43c0-1.78-.86-2.51-3-2.51H76.47v6.11h3.17c2.09,0,3-.82,3-2.51Z" transform="translate(-65.76 -139.45)" style="fill:#58595b"/><rect x="31.35" y="5.85" width="10.71" height="29.82" style="fill:#58595b"/><path d="M127.71,175.12H113.18V145.29h14.66c10.09,0,14.4,5.29,14.4,11.92v6.35c0,6.59-4.31,11.56-14.4,11.56m2.92-18.89c0-2.81-1.44-4-4.23-4h-3.41v15.29h3.32a4.31,4.31,0,0,0,4.32-4.32Z" transform="translate(-65.76 -139.45)" style="fill:#58595b"/><path d="M170.16,175.12l-1.3-4.4a11.82,11.82,0,0,1-10.22,5.12c-9,0-14.11-5.53-14.11-12.16v-7c0-6.77,6.77-12.65,16.36-12.65,7.05,0,12.65,3.57,14.71,8.13l-7.38,3.86a7.51,7.51,0,0,0-6.48-3.67c-3.34,0-5.74,1.74-5.74,4.42v6.79c0,2.27,1.66,4,4.45,4,2.61,0,4-1.22,4-3.13v-.83h-3.82v-3.83h13.76v15.3Z" transform="translate(-65.76 -139.45)" style="fill:#58595b"/><polygon points="113.18 35.67 113.18 5.85 138.41 5.85 138.41 13.49 123.88 13.49 123.88 18.08 133.82 18.08 133.82 22.67 123.88 22.67 123.88 27.26 138.41 27.26 138.41 35.67 113.18 35.67" style="fill:#58595b"/><polygon points="160.59 13.49 160.59 34.91 149.88 34.91 149.88 13.49 141.47 13.49 141.47 5.85 169.76 5.85 169.76 13.49 160.59 13.49" style="fill:#58595b"/><path d="M252.76,175.51c-8.78,0-14.94-5-14.94-13.06v-5c0-8.07,6.16-13,14.94-13s14.89,5,14.89,13v5c0,8.07-6.16,13.06-14.89,13.06m4.18-19.41c0-3-1.63-4.42-4.18-4.42s-4.23,1.39-4.23,4.42v7.66c0,3,1.63,4.42,4.23,4.42s4.18-1.4,4.18-4.42Z" transform="translate(-65.76 -139.45)" style="fill:#58595b"/><path d="M288.29,165.18h-6.11v9.94H271.47V145.29h17.1c6.18,0,10.43,3.45,10.43,9.41v.71c0,6-4.23,9.35-10.38,9.35m-.33-9.94c0-1.82-.94-2.64-2.9-2.64h-3.21v6.88h3.08a3,3,0,0,0,3-3Z" transform="translate(-65.76 -139.45)" style="fill:#58595b"/><path d="M337.37,175.28l-4.72-5.77v4.08H314.09c-.48.23-.62.18-.62-.19.41-11.87,20.37-12.18,20.37-23.79,0-5.67-5.28-9.77-12.41-9.77-7.75,0-12.76,4.83-13.1,10.3,0,.42.62.51.62.51h3.13c.56,0,.7-.11.7-.63.2-3.56,3.13-6.6,8.36-6.6,4.73,0,7.59,2.78,7.59,6.39,0,9.58-20.55,10.16-20.55,24.41v2.72c0,.42.07.47.62.47h23.08V181Z" transform="translate(-65.76 -139.45)" style="fill:#58595b"/><path d="M337.37,175.28l-5.11-5.77V174H314.09c-.48-.15-.62-.2-.62-.57.41-11.87,20.37-12.18,20.37-23.79,0-5.67-5.28-9.77-12.41-9.77-7.75,0-12.76,4.83-13.1,10.3,0,.42.62.12.62.12h3.39c.53,0,.67-.1.67-.62.2-3.57,3-6.6,8.09-6.6,4.59,0,7.35,2.77,7.35,6.39,0,9.58-19.89,10.16-19.89,24.4v2.73c0,.42.07.47.61.47H331.5V181Z" transform="translate(-65.76 -139.45)" style="fill:none;stroke:#58595b;stroke-linecap:round;stroke-linejoin:round;stroke-width:0.78994118512378px"/><path d="M369.55,175.88c-1.57,0-2.49-2.24-2.49-4.7V167a2.31,2.31,0,0,0-2.5-2.61h-4.38v11.47H349.47V146.06H367s10,3.11,10,7.7v1a6.46,6.46,0,0,1-5.08,6.37c3.61.67,5.84,6.06,5.84,6.06v3.34s-.09,3.48.77,4.81v.52Zm-3.26-20.42c0-1.78-.85-2.52-3-2.52h-3.16v6.12h3.16c2.1,0,3-.83,3-2.52Z" transform="translate(-65.76 -139.45)" style="fill:#71cde8"/><rect x="315.82" y="6.61" width="10.71" height="29.82" style="fill:#71cde8"/><polygon points="350.27 36.44 340.02 36.44 328.87 6.61 340.29 6.61 345.97 24.21 351.84 6.61 361.69 6.61 350.27 36.44" style="fill:#71cde8"/><polygon points="364 36.44 364 6.61 389.24 6.61 389.24 14.26 374.71 14.26 374.71 18.85 384.65 18.85 384.65 23.44 374.71 23.44 374.71 28.02 389.24 28.02 389.24 36.44 364 36.44" style="fill:#71cde8"/><path d="M479.67,175.88c-1.57,0-2.49-2.24-2.49-4.7V167a2.31,2.31,0,0,0-2.5-2.61h-4.39v11.47h-10.7V146.06H477s10,3.11,9.38,7.7v1c.64,2.94-1.28,5.53-4.48,6.37,3.6.67,5.25,6.06,5.25,6.06v3.34s.49,3.48,1.53,4.81v.52Zm-3.26-20.42c0-1.78-.85-2.52-3-2.52h-3.17v6.12h3.17c2.1,0,3-.83,3-2.52Z" transform="translate(-65.76 -139.45)" style="fill:#71cde8"/><line y1="75.44" x2="424.41" y2="75.44" style="fill:none;stroke:#000;stroke-miterlimit:10;stroke-width:0.191176474094391px"/><path d="M130.22,283.45l-4.81-5.76v4.49H106.94c-.48-.18-.61-.23-.61-.6.41-11.87,20.36-12.19,20.36-23.79,0-5.68-5.28-9.77-12.41-9.77-7.75,0-12.75,4.83-13.1,10.29,0,.42.62.16.62.16h3c.56,0,.7-.1.7-.63.21-3.56,3.14-6.6,8.36-6.6,4.74,0,7.6,2.78,7.6,6.39,0,9.59-20.56,10.16-20.56,24.41v2.72c0,.42.07.48.63.48h23.08v3.92Z" transform="translate(-65.76 -139.45)" style="fill:#58595b"/><path d="M130.22,283.45,125,277.69v4.1H106.94c-.48.21-.61.16-.61-.21.41-11.87,20.36-12.19,20.36-23.79,0-5.68-5.28-9.77-12.41-9.77-7.75,0-12.75,4.83-13.1,10.29,0,.42.62.54.62.54h3.3c.54,0,.67-.1.67-.63.21-3.56,3-6.59,8.1-6.59,4.58,0,7.35,2.77,7.35,6.38,0,9.59-19.9,10.17-19.9,24.41v2.73c0,.41.07.47.61.47h22.33v3.54Z" transform="translate(-65.76 -139.45)" style="fill:none;stroke:#58595b;stroke-linecap:round;stroke-linejoin:round;stroke-width:0.78994118512378px"/><path d="M156.2,283.71c-1.57,0-2.49-2.24-2.49-4.71v-4.16a2.3,2.3,0,0,0-2.5-2.6h-4.39v11.47h-10.7V253.88h17.45s10,3.21,10.08,7.8v1a6.68,6.68,0,0,1-5.18,6.37c3.6.67,5.94,6.06,5.94,6.06v3.34s-.2,3.47.77,4.81v.42Zm-3.26-20.43c0-1.78-.85-2.52-2.95-2.52h-3.17v6.12H150c2.1,0,2.95-.82,2.95-2.51Z" transform="translate(-65.76 -139.45)" style="fill:#58595b"/><path d="M84.81,283.71c-1.4,0-2.22-2.24-2.22-4.71v-4.16c0-1.37-.54-2.6-2.22-2.6h-3.9v11.47H65.76V253.88H82.88s10,3.21,10.41,7.8v1a7.41,7.41,0,0,1-5.51,6.37c3.61.67,5.51,6.06,5.51,6.06v3.34s.24,3.47,1.53,4.81v.42Zm-2.22-20.43c0-1.78-.86-2.52-3-2.52H76.47v6.12h3.17c2.09,0,3-.82,3-2.51Z" transform="translate(-65.76 -139.45)" style="fill:#58595b"/></g></g></g></svg>