<svg xmlns="http://www.w3.org/2000/svg" viewBox="0 0 301.56 301.56"><title>Asset 2</title><path d="M279.47,72.2A150.83,150.83,0,0,0,4.73,113.29,150.75,150.75,0,0,0,272,240.43a150.89,150.89,0,0,0,7.5-168.23m10.35,114.26a144,144,0,1,1,2.89-56.91,143,143,0,0,1-2.89,56.91" style="fill:#58595b"/><path d="M36.22,208.8c0-.35,0-.45.42-.67,1-.54,2.09-1.06,2.38-1.2s.5-.19.58-.05-.06.27-.2.35a4.56,4.56,0,0,0-.82.66,2.82,2.82,0,0,0-.39,3.55,2.47,2.47,0,0,0,3.35,1.25c.87-.48,1.54-1.2,1.88-3.32l.19-1.17c.44-2.81,1.31-4.17,2.75-5,2-1.09,4.27-.23,5.64,2.24A10,10,0,0,1,53,208c0,.18,0,.3-.08.37s-.79.34-2.18,1.11c-.39.22-.56.25-.64.1s0-.23.22-.35a2.42,2.42,0,0,0,.92-1.11,2.57,2.57,0,0,0-.2-2.42,2.15,2.15,0,0,0-3-1.11c-.82.46-1.21,1.21-1.51,3.31l-.1.71c-.43,3-1.23,4.49-2.92,5.43a4.09,4.09,0,0,1-4,0,5.87,5.87,0,0,1-2.3-2.42,7.12,7.12,0,0,1-1-2.86" style="fill:#58595b"/><path d="M42.08,214.73a4.2,4.2,0,0,1-2.67-.48,5.93,5.93,0,0,1-2.37-2.5,7.17,7.17,0,0,1-1-2.93c0-.46.09-.62.52-.86,1-.53,2-1,2.36-1.19a1.38,1.38,0,0,1,.43-.15.39.39,0,0,1,.43.17c.09.16.11.39-.28.61a4.21,4.21,0,0,0-.78.63,2.65,2.65,0,0,0-.35,3.31,2.4,2.4,0,0,0,2.44,1.4,1.79,1.79,0,0,0,.65-.22c.87-.47,1.46-1.17,1.78-3.18l.19-1.17c.43-2.71,1.28-4.24,2.85-5.11a4,4,0,0,1,1.3-.45c1.75-.26,3.51.8,4.6,2.77a10,10,0,0,1,1,2.58.46.46,0,0,1-.17.58l-.3.15c-.33.15-.89.41-1.87,1a1.82,1.82,0,0,1-.51.21.35.35,0,0,1-.39-.18c-.08-.13-.13-.38.29-.62a2.21,2.21,0,0,0,.83-1,2.4,2.4,0,0,0-.19-2.26,2.08,2.08,0,0,0-2.09-1.26,1.93,1.93,0,0,0-.66.23c-.69.39-1.1,1-1.41,3.17l-.1.7c-.43,3.08-1.25,4.59-3,5.57a4.29,4.29,0,0,1-1.53.53m-2.58-7a1.08,1.08,0,0,0-.29.11c-1,.45-1.75.85-2.38,1.2-.34.19-.34.23-.31.49a6.77,6.77,0,0,0,.95,2.77,5.16,5.16,0,0,0,3.66,2.85,2.94,2.94,0,0,0,1.68-.2c2.15-.89,3.08-2.29,3.54-5.63l.1-.71c.3-2.08.7-2.94,1.61-3.44a2.21,2.21,0,0,1,.79-.28,2.48,2.48,0,0,1,2.48,1.45,2.75,2.75,0,0,1,.21,2.59,2.6,2.6,0,0,1-1,1.2.59.59,0,0,0-.15.11,3.14,3.14,0,0,0,.39-.19c1-.55,1.55-.81,1.89-1a2.37,2.37,0,0,0,.28-.14s0,0,0-.15a9.89,9.89,0,0,0-1-2.49c-1-1.85-2.6-2.81-4.21-2.57a3.39,3.39,0,0,0-1.17.4c-1.47.82-2.25,2.22-2.66,4.83l-.19,1.18c-.34,2.15-1,2.94-2,3.46a2.56,2.56,0,0,1-.78.26,2.78,2.78,0,0,1-2.83-1.6,3,3,0,0,1,.41-3.76,4.69,4.69,0,0,1,.87-.7l.11-.07Z" style="fill:#58595b"/><path d="M47.79,218.41c-.06-.09-.11-.1-.23-.06l-3,.78a3.85,3.85,0,0,0-1.19.46c-.3.22-.41.52,0,1l.17.25c.14.2.14.28,0,.35s-.23,0-.36-.17c-.37-.53-.83-1.28-1.19-1.8-.13-.18-.83-1.06-1.44-1.92-.15-.22-.18-.34-.05-.44s.18,0,.27.11.29.37.4.49c.64.69,1.43.61,2.49.36L57,214.66c.63-.14.88-.17,1,0s0,.36-.24.79c-.63,1.05-5.55,8.49-7.32,11.33-1.05,1.69-1,2.33-.79,2.74a4.52,4.52,0,0,0,.43.74c.1.14.14.23,0,.31s-.27,0-.7-.64-1.28-1.82-2.19-3.17c-.19-.31-.33-.51-.22-.59s.19,0,.32.13a.34.34,0,0,0,.49-.12l2.58-3.82a.2.2,0,0,0,0-.25Zm3.22,2.8c.06.09.12.07.16,0l3-4.39c.06-.07.13-.14.09-.19s-.14,0-.21,0L48.93,218c-.08,0-.12.09-.07.15Z" style="fill:#58595b"/><path d="M50.09,230.79c-.25,0-.44-.2-.83-.75s-1.29-1.83-2.18-3.17l-.06-.08c-.19-.31-.37-.6-.12-.78a.44.44,0,0,1,.57.16h.06a.2.2,0,0,0,.13-.1l2.59-3.81-2.61-3.74h0l-3,.78a3.8,3.8,0,0,0-1.13.44c-.17.12-.33.29,0,.76l.18.25a.56.56,0,0,1,.14.4.3.3,0,0,1-.15.21.36.36,0,0,1-.17.07c-.23,0-.38-.18-.46-.28-.19-.27-.4-.6-.61-.92s-.4-.62-.58-.88l-.26-.34c-.28-.37-.75-1-1.17-1.58-.09-.13-.33-.48,0-.71l.15-.06c.21,0,.34.16.39.22s.28.36.38.47a1.63,1.63,0,0,0,1.63.44,6.88,6.88,0,0,0,.68-.14L57,214.48l.5-.1c.27,0,.53,0,.69.17s0,.58-.23,1-1.39,2.17-2.69,4.15c-1.62,2.49-3.63,5.59-4.63,7.18-1.09,1.76-.87,2.3-.77,2.57a4.33,4.33,0,0,0,.41.71c.06.09.26.37,0,.57a.35.35,0,0,1-.14.06M47.3,226.5a.22.22,0,0,0,.05.08l0,.08c.89,1.34,1.75,2.56,2.16,3.14l.16.23c-.07-.13-.15-.28-.22-.43-.21-.53-.25-1.24.8-2.92s3-4.69,4.63-7.18c1.29-2,2.41-3.69,2.68-4.15.09-.15.31-.5.25-.58s-.32,0-.8.08L43.69,218c-.26.06-.5.11-.72.14a2,2,0,0,1-2-.56l-.17-.2c.37.52.77,1,1,1.36l.27.36c.19.26.39.57.59.89l.27.41a.74.74,0,0,1,.26-1,4.08,4.08,0,0,1,1.26-.5l3-.77a.35.35,0,0,1,.44.13l2.61,3.7a.41.41,0,0,1,0,.47L48,226.28a.55.55,0,0,1-.68.22m3.84-5a.28.28,0,0,1-.28-.13l-2.16-3.07a.24.24,0,0,1,0-.23.28.28,0,0,1,.2-.2l5.19-1.36.13,0a.28.28,0,0,1,.29.11c.12.17,0,.34-.1.42l-3,4.37a.27.27,0,0,1-.19.13m-2-3.3,2,2.84L54,216.89Z" style="fill:#58595b"/><path d="M58.14,230.85c-2,1.72-3,2.64-3,3.21s.24.95,1.29,2.14c.72.81,1.26,1.39,2,1.41a2.72,2.72,0,0,0,1.26-.41c.15-.11.27-.16.38,0s0,.19-.15.35a15.18,15.18,0,0,1-2,1.32c-.42.21-.56.2-1.26-.6-1-1.09-1.64-1.91-2.23-2.61s-1-1.28-1.59-1.9c-.15-.17-.45-.51-.78-.86s-.7-.72-1-1-.23-.35-.12-.45.18,0,.34.14a2.79,2.79,0,0,0,.54.49c.33.26.73,0,1.23-.29.71-.49,1.91-1.55,3.32-2.79l2.68-2.37c2.32-2,2.75-2.42,3.21-2.88s.63-.83.29-1.42a3,3,0,0,0-.4-.55c-.15-.17-.2-.28-.09-.38s.23,0,.44.22c.63.72,1.43,1.72,1.79,2.13s1.35,1.44,1.88,2c.18.21.25.35.14.44s-.22,0-.38-.15a5.05,5.05,0,0,0-.57-.56c-.44-.34-.8-.23-1.36.21s-1,.77-3.27,2.82Z" style="fill:#58595b"/><path d="M57.71,239.13c-.36.05-.63-.18-1.14-.77-.76-.86-1.33-1.54-1.84-2.15l-.39-.47c-.61-.75-1.07-1.3-1.6-1.9-.14-.16-.44-.5-.77-.85-.16-.18-.34-.36-.51-.54s-.33-.34-.46-.49c-.32-.37-.23-.59-.1-.71a.38.38,0,0,1,.17-.08.53.53,0,0,1,.44.23,3.74,3.74,0,0,0,.51.47c.24.18.55,0,1-.3.7-.48,1.9-1.54,3.3-2.77L59,226.43c2.34-2.07,2.75-2.43,3.19-2.88s.53-.71.27-1.19a3,3,0,0,0-.38-.51c-.24-.27-.26-.49-.07-.65a.3.3,0,0,1,.17-.08c.2,0,.38.14.53.31.36.41.77.91,1.12,1.34s.52.61.67.79l.74.8c.4.42.85.9,1.14,1.23a.78.78,0,0,1,.24.49.3.3,0,0,1-.11.23.33.33,0,0,1-.18.08.53.53,0,0,1-.47-.26,7.12,7.12,0,0,0-.55-.53c-.35-.27-.58-.22-1.13.21s-1,.79-3.25,2.81L58.27,231c-1.78,1.56-2.94,2.59-2.94,3.07s.21.84,1.25,2c.73.83,1.22,1.33,1.86,1.35a2.31,2.31,0,0,0,1.15-.38.64.64,0,0,1,.29-.13.36.36,0,0,1,.34.13c.23.26,0,.5-.17.62a14.81,14.81,0,0,1-2,1.34,1.12,1.12,0,0,1-.34.13m-6.21-7.2a2.77,2.77,0,0,0,.24.25l.51.55c.33.35.63.69.78.86.53.6,1,1.15,1.6,1.91l.4.47c.5.6,1.07,1.28,1.82,2.14.5.57.66.66.8.64a.76.76,0,0,0,.23-.09,16.48,16.48,0,0,0,1.92-1.29l0,0,0,0a2.79,2.79,0,0,1-1.12.43,1.18,1.18,0,0,1-.26,0c-.86,0-1.45-.69-2.14-1.47-1-1.15-1.34-1.7-1.34-2.27s.95-1.5,3-3.35l2.7-2.37c2.3-2,2.75-2.43,3.27-2.83a1.75,1.75,0,0,1,.84-.44,1,1,0,0,1,.76.24l.28.24-.87-.93c-.31-.34-.6-.64-.74-.81l-.68-.8-.91-1.09a1.83,1.83,0,0,1,.16.26,1.17,1.17,0,0,1-.33,1.64c-.47.47-.94.89-3.21,2.9l-2.69,2.36c-1.4,1.24-2.61,2.31-3.33,2.81a2.53,2.53,0,0,1-.89.43.73.73,0,0,1-.56-.14,2.48,2.48,0,0,1-.3-.25" style="fill:#58595b"/><path d="M71.46,231.49c.27-.23.48-.28.6-.18s.15.27,0,.84l-3.3,12.31,11.78-5.17c.33-.14.52-.2.65-.08s.1.36-.13.72l-6.82,10.72c-.7,1.09-.94,1.67-.59,2.2a3.78,3.78,0,0,0,.82,1c.14.12.23.23.15.32s-.33,0-.55-.17c-.38-.34-2.47-2.22-3-2.8-.33-.33-.38-.46-.3-.55s.17-.07.32,0,.33-.11.65-.6l4.93-7.56-.07-.06-9.39,4.09c-1,.41-1.18.48-1.32.36s0-.56.13-1.23c.25-1,1.07-4.43,1.25-5s.9-3.18,1.36-4.8l-.06-.06-6.1,5.44a7.11,7.11,0,0,0-.67.68.67.67,0,0,0,0,.89,5.06,5.06,0,0,0,.58.64c.13.1.21.23.14.3s-.28,0-.51-.15c-.65-.56-1.3-1.2-1.58-1.44s-1.07-.84-1.56-1.27c-.16-.13-.25-.27-.13-.41s.18,0,.34.11a2.67,2.67,0,0,0,.5.35c.51.28,1.15-.21,1.68-.67Z" style="fill:#58595b"/><path d="M74.57,254.39a.79.79,0,0,1-.61-.27c-.4-.35-2.48-2.22-3.06-2.8-.24-.25-.53-.55-.3-.82a.44.44,0,0,1,.51-.08s.14-.06.43-.51l4.66-7.15-8.94,3.89a6.46,6.46,0,0,1-1.16.43.45.45,0,0,1-.36-.09c-.21-.19-.13-.56,0-1.31l0-.11c.27-1.14,1.07-4.46,1.25-5,.09-.28.43-1.48.78-2.76l.44-1.55-5.71,5.09a8.18,8.18,0,0,0-.66.67c-.1.12-.2.31.05.65a4,4,0,0,0,.55.6c.27.24.26.45.16.58a.39.39,0,0,1-.23.13.72.72,0,0,1-.56-.26c-.39-.34-.79-.71-1.1-1l-.47-.43-.59-.48c-.33-.26-.7-.55-1-.8s-.25-.56-.15-.67a.27.27,0,0,1,.18-.1.53.53,0,0,1,.43.18,2.14,2.14,0,0,0,.47.33c.36.2.94-.2,1.47-.65l10.19-8.71c.41-.33.74-.28.86-.17s.2.48.06,1l-3.2,11.93,11.42-5c.45-.19.66-.22.86-.05s0,.8-.1,1l-6.82,10.72c-.72,1.12-.86,1.59-.59,2a3.87,3.87,0,0,0,.78.94c.1.08.39.34.18.59a.36.36,0,0,1-.21.11m-3.64-3.62a3,3,0,0,0,.25.28c.52.52,2.3,2.14,2.9,2.67a5.2,5.2,0,0,1-.59-.76c-.4-.64-.13-1.29.6-2.41l6.82-10.72c.18-.29.2-.44.17-.47s-.18,0-.46.11l-12.14,5.32,3.4-12.69c.15-.57.09-.62.06-.64a.58.58,0,0,0-.36.17l-10.2,8.71a3,3,0,0,1-1.33.79.89.89,0,0,1-.56-.09l-.24-.15.71.57.6.49c.11.09.28.25.48.44s.62.59,1,.89a5.44,5.44,0,0,1-.36-.43.83.83,0,0,1,0-1.13,8.65,8.65,0,0,1,.68-.69l6.22-5.55.28.24,0,.12c-.17.59-.37,1.32-.57,2-.36,1.28-.69,2.48-.79,2.76-.18.58-1,3.88-1.24,5l0,.12a3.41,3.41,0,0,0-.15.94s0,0,0,0a6.68,6.68,0,0,0,1.06-.4l9.5-4.13.28.24-5,7.71c-.37.57-.59.66-.72.68a.29.29,0,0,1-.16,0h-.06" style="fill:#58595b"/><path d="M80,248.66c1.83-3,6.15-5.57,11.34-2.36,4.3,2.67,5.43,6.83,3,10.79a8,8,0,0,1-11.55,2.66A7.75,7.75,0,0,1,80,248.66m11.5,7.58c2.4-3.88,1.66-7.66-1.18-9.42-2-1.23-4.94-1.53-7.6,2.78-2.23,3.6-2,7.68,1.32,9.74,1.2.75,4.37,1.89,7.46-3.1" style="fill:#58595b"/><path d="M88.62,261.26a8.66,8.66,0,0,1-5.91-1.35,8.17,8.17,0,0,1-4-5.68,8.51,8.51,0,0,1,1.22-5.67,8.22,8.22,0,0,1,5.66-3.84,8.72,8.72,0,0,1,5.94,1.42,8.84,8.84,0,0,1,4.11,5,7.51,7.51,0,0,1-1.07,6,8.39,8.39,0,0,1-5.9,4.06m-3-16.16a7.85,7.85,0,0,0-5.4,3.66A8.12,8.12,0,0,0,79,254.17a7.8,7.8,0,0,0,3.87,5.42,8.34,8.34,0,0,0,5.66,1.29A8,8,0,0,0,94.2,257a7.16,7.16,0,0,0,1-5.73,8.43,8.43,0,0,0-3.94-4.8,8.34,8.34,0,0,0-5.68-1.36m1.4,15h0a4.5,4.5,0,0,1-3-.65,5.81,5.81,0,0,1-2.83-4.43,8.83,8.83,0,0,1,1.45-5.57c1.33-2.15,2.85-3.37,4.52-3.62a4.92,4.92,0,0,1,3.34.78,5.64,5.64,0,0,1,2.65,4.05,8.44,8.44,0,0,1-1.4,5.62c-1.41,2.28-3,3.57-4.71,3.82m.18-13.89c-1.56.23-3,1.39-4.26,3.44A8.51,8.51,0,0,0,81.53,255a5.41,5.41,0,0,0,2.65,4.14,4.09,4.09,0,0,0,2.76.6c1.6-.23,3.1-1.46,4.44-3.64a8.08,8.08,0,0,0,1.35-5.37A5.25,5.25,0,0,0,90.26,247a4.64,4.64,0,0,0-3.08-.72" style="fill:#58595b"/><path d="M96.86,264.06c-.58,1.48-.54,2.07-.23,2.36a3.25,3.25,0,0,0,.92.55c.21.08.3.17.26.28s-.25.11-.52,0c-1.21-.51-1.94-.89-2.29-1-.17-.07-1.07-.39-2-.81-.24-.1-.4-.19-.33-.36s.18-.1.37,0a3.47,3.47,0,0,0,.88.26c.55.06.85-.45,1.56-2.07l4.89-11c.16-.38.33-.62.52-.54s.27.41.44.88,1.67,4.6,3.24,8.48c.74,1.81,2.11,5.58,2.3,6l.1,0,3.39-8.48c.47-1.15.45-1.58.08-2a3.28,3.28,0,0,0-.94-.53c-.23-.1-.28-.19-.23-.3s.28-.08.56,0c1,.41,1.85.85,2.24,1,.2.09.94.33,1.85.72.25.11.43.21.36.36s-.18.12-.41,0a2.09,2.09,0,0,0-.58-.18c-.59-.08-.9.25-1.37,1.29l-5.24,11.72c-.17.42-.32.55-.49.48s-.34-.39-.46-.68c-.7-1.63-2.05-5.1-3.17-7.86s-2.26-6.11-2.45-6.61l0,0Z" style="fill:#58595b"/><path d="M106.28,271.5a.39.39,0,0,1-.21,0,1.31,1.31,0,0,1-.56-.78c-.43-1-1.09-2.63-1.79-4.39-.46-1.16-.94-2.37-1.39-3.47-1-2.31-1.82-4.82-2.24-6,0-.07,0-.14-.07-.2l-3,7.53c-.62,1.58-.46,2-.28,2.15a3.14,3.14,0,0,0,.87.51.61.61,0,0,1,.36.29.31.31,0,0,1,0,.25c-.1.22-.31.29-.76.1-.81-.35-1.42-.63-1.82-.82l-.48-.23-.29-.11c-.39-.14-1-.39-1.75-.69-.19-.08-.59-.25-.43-.61.08-.2.28-.27.61-.12a3.75,3.75,0,0,0,.83.24c.42.05.73-.5,1.37-2l4.89-11c.24-.57.5-.75.76-.63s.34.36.46.73l.09.25c0,.05,1.6,4.44,3.24,8.48.42,1,1.06,2.73,1.56,4.08.25.67.48,1.27.62,1.63l3.25-8.13c.46-1.14.41-1.46.13-1.76a3.51,3.51,0,0,0-.87-.48c-.41-.17-.41-.4-.35-.55a.32.32,0,0,1,.26-.2,1,1,0,0,1,.55.13c.6.26,1.16.52,1.61.73l.63.29.35.14c.36.13.89.32,1.51.59a.79.79,0,0,1,.47.35.31.31,0,0,1,0,.25c-.09.21-.32.27-.66.13a1.71,1.71,0,0,0-.54-.17c-.46-.06-.72.18-1.17,1.18l-5.23,11.72c-.12.28-.27.57-.53.61M99.9,255.87l.31.12,0,.08c0,.1.11.31.21.6.42,1.2,1.29,3.7,2.23,6,.45,1.1.93,2.31,1.4,3.47.7,1.75,1.36,3.4,1.78,4.38.07.17.21.52.36.58h0s.09,0,.23-.38L111.69,259c.45-1,.82-1.5,1.57-1.41a1.07,1.07,0,0,1,.27.06c-.5-.21-.92-.37-1.22-.47l-.37-.15-.65-.29c-.35-.17-.79-.38-1.25-.58a2.24,2.24,0,0,1,.49.34c.44.46.44,1,0,2.16L107,267.34l-.34-.15,0-.07c-.08-.18-.38-1-.75-1.95-.5-1.35-1.13-3-1.55-4.07-1.65-4.05-3.23-8.44-3.25-8.49l-.09-.26c-.09-.26-.16-.46-.25-.5a1.07,1.07,0,0,0-.26.43l-4.89,11c-.72,1.63-1.06,2.26-1.76,2.18a3.25,3.25,0,0,1-.54-.12c.59.24,1.12.44,1.46.56l.3.12.5.23c.34.16.84.4,1.5.69a3,3,0,0,1-.57-.39c-.43-.4-.38-1.14.19-2.57Z" style="fill:#58595b"/><path d="M122.11,266c.64-3,.76-3.57.85-4.22s0-1-.61-1.32a4.66,4.66,0,0,0-.77-.22c-.22-.05-.33-.11-.3-.25s.18-.15.48-.09c1,.23,2.29.55,2.71.64.68.14,2.2.4,2.82.53a6.58,6.58,0,0,1,3.48,1.63,3.49,3.49,0,0,1,.77,3c-.3,1.48-1.21,2.7-3.56,3.91,1.29,2.6,2.29,4.66,3.21,6.15a4,4,0,0,0,1.94,1.82,4.85,4.85,0,0,0,.54.18c.16,0,.23.11.21.21s-.18.17-.42.11l-1.89-.39a4.14,4.14,0,0,1-2-.83,9.86,9.86,0,0,1-2.11-3.5c-.56-1.27-1.19-2.81-1.39-3.17a.41.41,0,0,0-.32-.21l-1.73-.41c-.1,0-.17,0-.19.13l-.06.28c-.39,1.85-.72,3.42-.8,4.27-.07.59,0,1.05.54,1.26a10,10,0,0,0,1,.29c.16,0,.23.11.21.21s-.19.17-.45.11c-1.15-.24-2.61-.61-2.91-.68s-1.64-.28-2.44-.45c-.25-.06-.38-.15-.35-.28s.11-.15.35-.1a3.14,3.14,0,0,0,.73.08c.42,0,.61-.42.81-1,.28-.81.61-2.38,1-4.21Zm2,2.07c0,.22,0,.31.1.4a5.11,5.11,0,0,0,1.47.52,2,2,0,0,0,1.48,0A3.61,3.61,0,0,0,129,266.2c.6-2.82-1.1-4-2.28-4.28a4.61,4.61,0,0,0-1.07-.15c-.14,0-.2.09-.24.25Z" style="fill:#58595b"/><path d="M133.75,278.3a1,1,0,0,1-.33,0l-1.89-.4a4.32,4.32,0,0,1-2.13-.87,9.66,9.66,0,0,1-2.16-3.57c-.24-.54-.5-1.13-.72-1.66-.3-.69-.56-1.29-.66-1.49a.3.3,0,0,0-.2-.12l-1.7-.4,0,.25c-.39,1.83-.72,3.41-.8,4.26-.07.6,0,.91.41,1.06a8.78,8.78,0,0,0,.94.28c.31.07.38.28.35.44s-.27.34-.67.26c-.76-.16-1.66-.38-2.26-.52l-.65-.16-.77-.14-1.67-.31c-.51-.11-.53-.37-.5-.52s.23-.31.58-.23a3.14,3.14,0,0,0,.69.06h.06c.24,0,.39-.33.57-.84.27-.79.6-2.34,1-4.14l.8-3.81c.61-2.83.71-3.34.8-4s0-.89-.5-1.11a5,5,0,0,0-.72-.22c-.35-.07-.5-.23-.45-.47a.33.33,0,0,1,.29-.27,1.27,1.27,0,0,1,.41,0c.66.14,1.38.32,1.94.46l.77.18c.35.08.91.18,1.47.28s1,.19,1.35.26a6.64,6.64,0,0,1,3.58,1.68,3.72,3.72,0,0,1,.82,3.19c-.35,1.64-1.4,2.83-3.5,3.94l.4.81c1.08,2.16,1.93,3.87,2.72,5.16a4,4,0,0,0,1.83,1.74,2.86,2.86,0,0,0,.53.17.43.43,0,0,1,.31.19.31.31,0,0,1,0,.25.35.35,0,0,1-.31.29m-9.89-8.92H124l1.73.41a.57.57,0,0,1,.45.31c.12.21.36.79.68,1.52.22.53.47,1.12.72,1.66a9.5,9.5,0,0,0,2,3.43,4,4,0,0,0,2,.79l1.76.37-.31-.11a4.36,4.36,0,0,1-2-1.9c-.8-1.3-1.65-3-2.73-5.19l-.57-1.15.17-.08c2.1-1.08,3.14-2.21,3.47-3.77a3.36,3.36,0,0,0-.73-2.84,6.34,6.34,0,0,0-3.38-1.58l-1.34-.25c-.56-.11-1.13-.21-1.48-.29l-.78-.18-1.55-.37a2.38,2.38,0,0,1,.33.12c.75.33.83.81.72,1.52s-.2,1.14-.8,4l-.81,3.81c-.38,1.81-.71,3.37-1,4.18-.19.54-.4,1-.87,1.1h-.12l-.42,0,1.38.25c.35.06.64.11.79.15l.67.15c.54.13,1.34.33,2,.48l-.63-.2c-.74-.26-.73-.89-.67-1.46.08-.87.41-2.45.8-4.3l.06-.27a.32.32,0,0,1,.27-.28m3,.41a3.18,3.18,0,0,1-1.11-.1,5.89,5.89,0,0,1-1.53-.54.5.5,0,0,1-.19-.61l1.28-6a.43.43,0,0,1,.36-.39h0a4.41,4.41,0,0,1,1.12.15,3.25,3.25,0,0,1,1.92,1.25,4,4,0,0,1,.5,3.26,3.68,3.68,0,0,1-1.91,2.87,2,2,0,0,1-.49.16m-.56-7.77a.15.15,0,0,0,0,.08l-1.28,6c0,.16,0,.16,0,.2a5.36,5.36,0,0,0,1.4.49,2.65,2.65,0,0,0,1,.09,1.14,1.14,0,0,0,.39-.12,3.32,3.32,0,0,0,1.7-2.6,3.62,3.62,0,0,0-.44-3,2.89,2.89,0,0,0-1.68-1.1,4.66,4.66,0,0,0-1-.14l0-.19,0,.19Z" style="fill:#58595b"/><path d="M136.92,268.68c.29-3.08.34-3.65.36-4.3s-.1-1-.76-1.23a4.09,4.09,0,0,0-.78-.14c-.23,0-.35-.07-.33-.21s.16-.17.46-.14l1.64.17,1.27.16c.65.06,4.68.44,5.07.45a6.26,6.26,0,0,0,.88,0,1.88,1.88,0,0,1,.33,0c.1,0,.11.09.11.19a11.72,11.72,0,0,0-.29,1.3c0,.2-.16,1.09-.23,1.33s-.08.22-.22.21-.17-.12-.15-.3a2.32,2.32,0,0,0-.06-.75c-.11-.37-.29-.63-1.29-.85-.34-.07-2.46-.31-2.87-.35-.1,0-.14.05-.16.19l-.47,5.13c0,.14,0,.22.12.23.44,0,2.77.26,3.24.26a1.42,1.42,0,0,0,1-.21c.16-.15.25-.24.35-.23s.14.05.13.17-.12.44-.3,1.46c-.06.41-.2,1.21-.21,1.35s0,.39-.22.37-.17-.1-.16-.2a4.63,4.63,0,0,0,0-.73c-.06-.42-.32-.75-1.06-.9-.38-.08-2.38-.29-2.87-.33-.1,0-.12.07-.14.19l-.14,1.6c-.07.69-.26,2.55-.3,3.14-.09,1.4.21,1.74,2.27,1.93a5,5,0,0,0,1.93-.07c.55-.19.83-.59,1-1.41.06-.22.11-.3.25-.28s.15.17.13.38a15.59,15.59,0,0,1-.47,2.22c-.19.51-.38.5-1.15.42-1.51-.14-2.62-.28-3.49-.39s-1.5-.19-2.1-.25l-1.16-.09c-.47,0-1-.05-1.4-.09s-.4-.1-.39-.24.1-.15.34-.13a3.51,3.51,0,0,0,.74,0c.41-.05.55-.48.69-1.06.18-.84.33-2.44.5-4.31Z" style="fill:#58595b"/><path d="M143.59,279a2.8,2.8,0,0,1-.74,0c-1.2-.11-2.15-.22-2.91-.31l-.6-.07c-.87-.13-1.49-.2-2.09-.26l-1.15-.09-.72,0-.69,0a.69.69,0,0,1-.48-.2.34.34,0,0,1-.08-.26c0-.09.09-.34.55-.3a3.17,3.17,0,0,0,.69,0h0c.27,0,.39-.35.52-.91.18-.83.33-2.4.5-4.24l.34-3.69c.28-3,.33-3.56.35-4.2s-.11-.89-.63-1.05a3.89,3.89,0,0,0-.74-.13c-.36,0-.52-.17-.5-.42a.34.34,0,0,1,.33-.31,1.26,1.26,0,0,1,.34,0l.88.09.76.08.44.06.83.1.68.06c1.32.12,4.06.38,4.37.39s.66,0,.86,0l.1,0a.89.89,0,0,1,.27,0c.07,0,.31.06.27.4a.82.82,0,0,1,0,.22,9.36,9.36,0,0,0-.23,1.1c0,.07,0,.22-.07.4-.05.35-.12.78-.16.94s-.22.37-.43.35-.36-.12-.33-.51a1.75,1.75,0,0,0,0-.67c-.08-.26-.15-.51-1.15-.72-.31-.07-2.28-.29-2.79-.34h0l-.47,5.12a.06.06,0,0,0,0,0h.1c.66.05,2.66.24,3.08.24s.73,0,.87-.16.28-.26.42-.28h.08a.35.35,0,0,1,.22.11.39.39,0,0,1,.08.28c0,.05,0,.11-.05.23s-.14.56-.25,1.25c0,.17-.07.43-.11.68s-.09.57-.1.65,0,.5-.34.54h-.08a.36.36,0,0,1-.35-.4.86.86,0,0,0,0-.17,3.21,3.21,0,0,0,0-.53c0-.28-.18-.58-.9-.73-.35-.07-2.15-.26-2.79-.32h0l-.15,1.6c0,.21-.05.53-.08.89-.08.82-.18,1.84-.21,2.24-.08,1.26.09,1.54,2.1,1.73a5.18,5.18,0,0,0,1.85-.06c.47-.16.72-.51.93-1.28.05-.18.14-.45.45-.42a.31.31,0,0,1,.3.27,1.07,1.07,0,0,1,0,.31,16.29,16.29,0,0,1-.48,2.27c-.12.31-.26.53-.6.58m-8.57-1.2h.38l.73.05,1.15.09c.61.06,1.24.13,2.11.26l.6.07c.76.09,1.7.2,2.89.31a3.3,3.3,0,0,0,.66,0c.11,0,.18,0,.29-.33a16.68,16.68,0,0,0,.46-2.17.13.13,0,0,1,0-.06l0,0c-.24.9-.56,1.33-1.17,1.54a5.33,5.33,0,0,1-2,.08c-2.12-.2-2.56-.58-2.46-2.13,0-.41.13-1.44.21-2.26,0-.36.06-.68.08-.89l.15-1.6q0-.32.27-.36h.08c.49,0,2.5.26,2.89.33.74.15,1.13.49,1.21,1.06a2.69,2.69,0,0,1,0,.56c0-.1.06-.37.1-.67s.08-.5.11-.67c.12-.7.21-1.08.26-1.28a.51.51,0,0,0,0-.09l-.11.1a1,1,0,0,1-.58.27,3.22,3.22,0,0,1-.58,0c-.39,0-2-.14-3.11-.24l-.15,0c-.15,0-.32-.1-.29-.45l.47-5.12c0-.26.17-.34.28-.36h.09c.38,0,2.53.28,2.89.35,1,.23,1.3.51,1.44,1a2.47,2.47,0,0,1,.05.81v0c0-.14.11-.58.15-.9s.06-.34.07-.41a7,7,0,0,1,.25-1.13c0-.06,0-.1,0-.13h-.07l-.12,0a8.72,8.72,0,0,1-.93,0c-.33,0-3-.25-4.41-.38l-.68-.07-.83-.1-.44-.06-.76-.08-.48-.05a1.77,1.77,0,0,1,.33.08c.78.24.92.7.89,1.42s-.07,1.2-.35,4.22l-.34,3.7c-.17,1.84-.32,3.43-.5,4.28-.12.47-.26,1.12-.83,1.2l-.43,0" style="fill:#58595b"/><path d="M150,277.1a8.05,8.05,0,0,1-.45-11.56,8.88,8.88,0,0,1,6.37-2.33,20.23,20.23,0,0,1,3,.13c.77.08,1.43.25,2,.29.22,0,.31.11.31.23s-.05.41-.07,1.13,0,1.79,0,2.2-.05.46-.23.47-.21-.16-.21-.44a2.88,2.88,0,0,0-.85-1.85,6.08,6.08,0,0,0-4.16-1.16,5.34,5.34,0,0,0-3.79,1.37,6.82,6.82,0,0,0-1.73,5.31c.13,4.84,3.87,7.14,6.6,7.07,1.81,0,2.9-.28,3.69-1.24a3.55,3.55,0,0,0,.66-1.36c0-.32.09-.41.25-.41s.18.14.19.3a18.23,18.23,0,0,1-.38,2.72.72.72,0,0,1-.51.6,11.52,11.52,0,0,1-3.65.56,10.12,10.12,0,0,1-7-2" style="fill:#58595b"/><path d="M159.1,279.15a19.56,19.56,0,0,1-2.1.18c-3.07.07-5.34-.58-7.16-2.08a7.79,7.79,0,0,1-2.75-6.07,8,8,0,0,1,2.29-5.78,9.07,9.07,0,0,1,6.5-2.38,21.33,21.33,0,0,1,3,.13c.37,0,.72.1,1,.15a9.62,9.62,0,0,0,1,.14c.45,0,.49.33.49.42s0,.15,0,.27,0,.43-.05.86,0,.75,0,1.15,0,.84,0,1.06,0,.59-.36.64h-.05a.35.35,0,0,1-.26-.1.7.7,0,0,1-.15-.53,2.72,2.72,0,0,0-.79-1.72,5.88,5.88,0,0,0-4-1.1,5.15,5.15,0,0,0-3.66,1.31c-1.21,1.17-1.74,2.81-1.68,5.18a6.67,6.67,0,0,0,6.4,6.88,12.51,12.51,0,0,0,1.45-.11,3.06,3.06,0,0,0,2.1-1.06,3.31,3.31,0,0,0,.62-1.27c0-.25.08-.52.37-.56h.07c.08,0,.37,0,.38.48a19.35,19.35,0,0,1-.38,2.78.91.91,0,0,1-.62.73,7.45,7.45,0,0,1-1.62.4m-4.91-15.61a7.92,7.92,0,0,0-4.54,2.13,7.57,7.57,0,0,0-2.18,5.49,7.43,7.43,0,0,0,2.61,5.79,9.87,9.87,0,0,0,6.91,2,16.67,16.67,0,0,0,2.06-.17,7.19,7.19,0,0,0,1.51-.37.56.56,0,0,0,.41-.48,20.57,20.57,0,0,0,.37-2.66.73.73,0,0,0,0-.13s0,.11,0,.26a3.66,3.66,0,0,1-.69,1.46,3.45,3.45,0,0,1-2.35,1.19,11.28,11.28,0,0,1-1.49.11A7.06,7.06,0,0,1,150,270.9c-.06-2.48.51-4.22,1.79-5.46a5.51,5.51,0,0,1,3.92-1.42,6.29,6.29,0,0,1,4.3,1.21,3.09,3.09,0,0,1,.9,2c0,.22,0,.26,0,.27s0-.08,0-.3,0-.61,0-1,0-.84,0-1.17,0-.71,0-.88,0-.17,0-.23-.11-.05-.13-.05a9.94,9.94,0,0,1-1-.14c-.33-.06-.67-.11-1-.15a20.65,20.65,0,0,0-2.93-.13c-.6,0-1.17.07-1.7.14" style="fill:#58595b"/><path d="M163.29,270.94c-.58-3.43,1-8.24,7-9.25,5-.84,8.6,1.54,9.37,6.14a8,8,0,0,1-6.93,9.62,7.76,7.76,0,0,1-9.4-6.51m13.64-1.9c-.75-4.49-3.8-6.84-7.1-6.29-2.3.39-4.71,2.11-3.88,7.1.7,4.18,3.57,7.1,7.42,6.45,1.4-.23,4.54-1.46,3.56-7.26" style="fill:#58595b"/><path d="M172.66,278.64a8.07,8.07,0,0,1-9.6-6.82c-.66-4,1.33-8.66,7.26-9.66l.24,0c5.08-.76,8.74,1.72,9.53,6.46a8.39,8.39,0,0,1-7.22,10Zm-2.57-16.44.24,0c-4.17.7-8.23,4-7.28,9.66a8.07,8.07,0,0,0,9.6,6.82l.22,0a8.39,8.39,0,0,0,7.23-10.05c-.79-4.73-4.44-7.2-9.53-6.44m2.46,13.1c-3.42.51-6.29-2-7-6.16-.3-1.81-.54-6.1,3.76-6.82h.1c3.27-.49,6,2,6.71,6,.4,2.39.11,4.22-.87,5.46a4.16,4.16,0,0,1-2.6,1.5ZM170,262.92l-.09,0c-1.78.29-4.62,1.58-3.73,6.88.72,4.3,3.57,6.84,7.08,6.31l.12,0a4.1,4.1,0,0,0,2.55-1.47c1-1.24,1.27-3.11.86-5.57-.69-4.11-3.48-6.64-6.79-6.15" style="fill:#58595b"/><path d="M180.29,262c-.78-.93-1.18-1-1.94-1a3,3,0,0,0-.78.16c-.17.06-.25,0-.29-.1s.16-.24.45-.33c1-.32,2.16-.61,2.84-.82.48-.15,1.4-.5,2.37-.8.23-.07.46-.1.5,0s-.06.21-.24.26a1.52,1.52,0,0,0-.71.37.49.49,0,0,0-.07.47,6.24,6.24,0,0,0,.91,1.36l6.08,7.78.08,0c.17-2.39.75-9.43.82-10.86a2.28,2.28,0,0,0-.05-.77.38.38,0,0,0-.37-.29,2.8,2.8,0,0,0-.8.14c-.18.06-.34.09-.38-.05s.11-.25.48-.36c1-.3,1.81-.5,2.06-.58s1.22-.44,1.81-.62c.25-.08.42-.09.46,0s-.06.21-.26.27a2,2,0,0,0-.88.53,4.11,4.11,0,0,0-.52,2.08c-.19,2.06-.39,3.28-.7,6-.36,3.23-.61,5.62-.74,6.73-.15,1.28-.17,1.63-.45,1.71s-.45-.15-1.1-.95Z" style="fill:#58595b"/><path d="M190,273.54c-.34.06-.58-.24-1.23-1l-8.58-10.35c-.75-.89-1.09-1-1.78-.94a3.35,3.35,0,0,0-.73.14l-.12,0a.34.34,0,0,1-.41-.25.35.35,0,0,1,.18-.41,1.34,1.34,0,0,1,.4-.16c.57-.18,1.17-.35,1.7-.5l1.13-.32.78-.26c.46-.16,1-.36,1.59-.54a1.14,1.14,0,0,1,.25-.06c.35-.05.46.12.49.22a.34.34,0,0,1,0,.27.57.57,0,0,1-.34.24,1.43,1.43,0,0,0-.62.3.28.28,0,0,0,0,.3,6.09,6.09,0,0,0,.88,1.29l5.85,7.48c.07-.93.17-2.3.29-3.76.21-2.73.46-5.83.5-6.72a2.38,2.38,0,0,0,0-.7.21.21,0,0,0-.19-.16,2.62,2.62,0,0,0-.75.14l-.19,0c-.31.05-.4-.14-.42-.22a.33.33,0,0,1,0-.26c.08-.16.28-.25.59-.34.64-.2,1.23-.36,1.62-.46l.43-.12c.15,0,.39-.13.67-.23s.81-.29,1.14-.4c.52-.16.67.08.7.18a.31.31,0,0,1,0,.26.57.57,0,0,1-.36.25,1.53,1.53,0,0,0-.79.47c-.17.21-.35.61-.48,2s-.23,2.16-.37,3.25c-.09.77-.2,1.63-.33,2.74-.2,1.83-.37,3.39-.5,4.6-.11.93-.19,1.65-.24,2.13l0,.26c-.14,1.15-.18,1.5-.55,1.62H190M178.1,260.86a2,2,0,0,1,.24,0,2.23,2.23,0,0,1,2.09,1.09L189,272.27c.44.53.76.92.89.9h0c.13,0,.18-.43.28-1.29l0-.27c.06-.47.13-1.19.23-2.12.14-1.21.31-2.77.51-4.6.13-1.12.24-2,.33-2.75.14-1.08.26-2,.37-3.23a4,4,0,0,1,.56-2.18,1.79,1.79,0,0,1,.63-.47l-.87.31-.68.23-.46.13c-.35.09-.87.23-1.44.4a1.7,1.7,0,0,1,.49-.05.57.57,0,0,1,.54.42,2.67,2.67,0,0,1,.06.85c0,.89-.29,4-.5,6.73-.13,1.67-.26,3.22-.32,4.13v.12l-.33.12-.08-.11-6.08-7.78a5.17,5.17,0,0,1-.94-1.42.68.68,0,0,1,.09-.64,1.07,1.07,0,0,1,.43-.3c-.49.15-.95.32-1.35.46l-.78.26c-.31.1-.71.21-1.14.33l-1.56.45.17,0" style="fill:#58595b"/><path d="M196.94,260.52c-1.25-2.83-1.48-3.35-1.78-3.93s-.6-.85-1.27-.71a4.12,4.12,0,0,0-.75.27c-.2.08-.33.1-.39,0s.06-.23.34-.35c.5-.22,1-.44,1.51-.65l1.19-.47c.6-.27,4.3-1.9,4.65-2.07a5.77,5.77,0,0,0,.75-.47,1.64,1.64,0,0,1,.26-.2c.1,0,.15,0,.19.12s.06.39.38,1.27c.07.2.39,1,.45,1.27s0,.23-.09.29-.21,0-.29-.19a2,2,0,0,0-.4-.62c-.28-.28-.57-.42-1.55-.12-.33.1-2.3.92-2.67,1.09-.1,0-.11.11-.05.24l2.07,4.71c.06.13.11.2.22.15.41-.18,2.55-1.12,3-1.35s.68-.41.77-.67.1-.33.19-.38.14,0,.19.1.11.44.45,1.42c.15.38.42,1.15.48,1.28s.15.35,0,.43-.2,0-.23-.1-.22-.42-.38-.63-.64-.5-1.36-.27c-.37.12-2.22.91-2.67,1.11-.09,0-.08.12,0,.23l.65,1.47c.28.64,1,2.36,1.27,2.89.61,1.27,1,1.41,2.92.58a5.23,5.23,0,0,0,1.66-1,1.76,1.76,0,0,0,.23-1.75c-.06-.22-.05-.31.08-.37s.21.08.3.27a15.75,15.75,0,0,1,.66,2.17c.09.54-.08.62-.79.93-1.4.61-2.44,1-3.24,1.36s-1.41.55-2,.8l-1.05.48c-.43.19-.89.44-1.27.61s-.39.1-.45,0,0-.18.23-.28a2.78,2.78,0,0,0,.64-.37c.34-.24.25-.69.09-1.26-.25-.82-.9-2.29-1.65-4Z" style="fill:#58595b"/><path d="M199.32,270a.38.38,0,0,1-.43-.21.36.36,0,0,1,0-.25.53.53,0,0,1,.34-.28,3.61,3.61,0,0,0,.6-.35c.22-.16.18-.49,0-1.05-.24-.8-.87-2.23-1.6-3.9l-1.52-3.46c-1.22-2.76-1.44-3.25-1.73-3.82s-.53-.72-1.06-.61a3.85,3.85,0,0,0-.71.25.79.79,0,0,1-.25.08.34.34,0,0,1-.39-.21.31.31,0,0,1,0-.25.77.77,0,0,1,.44-.35l.78-.33.74-.31.16-.07,1-.41.2-.09c2.73-1.2,4.22-1.87,4.43-2a6.26,6.26,0,0,0,.72-.45.71.71,0,0,0,.09-.07.73.73,0,0,1,.22-.16l.09,0c.1,0,.25,0,.34.24a1.15,1.15,0,0,1,.07.22,8.36,8.36,0,0,0,.32,1.07c0,.07.08.22.14.39.13.34.27.73.32.89.06.32-.08.46-.21.51-.32.15-.49-.18-.53-.28a1.93,1.93,0,0,0-.37-.56.75.75,0,0,0-.77-.22,4.75,4.75,0,0,0-.58.14c-.31.1-2.13.86-2.61,1.07h0l2.08,4.72a0,0,0,0,0,0,0c1.59-.7,2.65-1.18,2.9-1.32s.62-.36.68-.56.13-.41.3-.49a.32.32,0,0,1,.45.19,1.32,1.32,0,0,1,.07.23c.06.2.16.56.38,1.21.07.16.15.4.23.62l.24.64c.07.15.23.53-.1.68a.34.34,0,0,1-.5-.19l-.08-.15a4.46,4.46,0,0,0-.27-.45c-.25-.32-.58-.38-1.15-.2-.35.11-2.05.84-2.58,1.07h0l.94,2.15c.33.77.79,1.82,1,2.21.41.85.68,1.06,1.26,1a5.64,5.64,0,0,0,1.42-.48,5.33,5.33,0,0,0,1.58-.95c.33-.38.38-.8.19-1.57,0-.18-.11-.46.19-.6s.46.17.55.37a16.09,16.09,0,0,1,.68,2.22c.11.69-.19.82-.9,1.13-1.13.5-2,.87-2.76,1.16l-.49.21c-.83.32-1.41.55-2,.79l-.08,0-1,.44-.68.32-.6.29a1.13,1.13,0,0,1-.28.09m-5-14.38c.71-.1,1,.24,1.34.84s.52,1.07,1.74,3.84l1.52,3.46c.74,1.67,1.37,3.12,1.62,3.94.14.48.33,1.13-.16,1.47a2.2,2.2,0,0,1-.32.21l.3-.15.69-.32c.38-.19.74-.35,1-.45l.09,0c.55-.24,1.14-.47,2-.8l.49-.2c.72-.29,1.62-.66,2.74-1.15.73-.32.74-.34.68-.73a14.68,14.68,0,0,0-.65-2.12.14.14,0,0,1,0-.06.08.08,0,0,0,0,0,1.89,1.89,0,0,1-.28,1.91,5.35,5.35,0,0,1-1.72,1.05,6,6,0,0,1-1.51.51c-.86.13-1.24-.32-1.66-1.19-.19-.39-.65-1.45-1-2.22l-.94-2.14a.39.39,0,0,1,0-.32.31.31,0,0,1,.16-.17c.4-.17,2.29-1,2.69-1.11a2.24,2.24,0,0,1,.39-.1,1.15,1.15,0,0,1,1.17.43,3.41,3.41,0,0,1,.3.49c0-.09-.14-.36-.24-.65s-.17-.47-.23-.63c-.24-.66-.34-1-.4-1.24a.51.51,0,0,1,0-.09s0,.09,0,.14c-.12.36-.4.56-.87.82s-2,.94-3,1.36a.35.35,0,0,1-.47-.25l-2.07-4.71c-.15-.32.05-.45.14-.49.35-.16,2.35-1,2.7-1.1,1-.31,1.39-.17,1.73.17a2.29,2.29,0,0,1,.45.67l0,.05v0c0-.13-.19-.55-.3-.84s-.13-.34-.15-.41a7.76,7.76,0,0,1-.33-1.1l0-.13,0,0-.12.09a6.8,6.8,0,0,1-.77.48c-.33.16-3.44,1.53-4.46,2l-.2.08c-.23.11-.61.25-1,.42l-.16.06-.73.32-.41.17a2.44,2.44,0,0,1,.33-.09l.13,0" style="fill:#58595b"/><path d="M208.32,255.19c-1.57-2.67-1.86-3.16-2.22-3.7s-.69-.78-1.34-.56a4.18,4.18,0,0,0-.72.35c-.19.11-.32.14-.39,0s0-.24.29-.39c.93-.54,2.07-1.14,2.44-1.36.6-.35,1.9-1.18,2.44-1.5a6.52,6.52,0,0,1,3.67-1.14,3.51,3.51,0,0,1,2.6,1.71c.77,1.29.92,2.81,0,5.28,2.71,1,4.84,1.9,6.51,2.38a4,4,0,0,0,2.66,0,2.7,2.7,0,0,0,.53-.23c.14-.08.24-.07.29,0s0,.25-.23.37l-1.67,1a4.08,4.08,0,0,1-2.07.77,9.75,9.75,0,0,1-3.92-1.17c-1.26-.55-2.77-1.27-3.15-1.4a.41.41,0,0,0-.39.06l-1.55.86a.15.15,0,0,0-.06.23l.15.24c.95,1.63,1.77,3,2.29,3.71.35.47.68.8,1.25.56a8.41,8.41,0,0,0,.9-.44c.14-.08.24-.07.29,0s0,.25-.25.38c-1,.6-2.34,1.31-2.61,1.46s-1.4.9-2.11,1.31c-.22.13-.38.15-.45,0s0-.18.2-.3a3.71,3.71,0,0,0,.59-.45c.31-.27.17-.71-.06-1.26-.34-.79-1.16-2.17-2.1-3.79Zm2.88.17c.11.19.19.24.34.22A5.23,5.23,0,0,0,213,255c.7-.41.89-.61,1.07-1a3.58,3.58,0,0,0-.51-3.23c-1.46-2.5-3.53-2.25-4.57-1.64a5.08,5.08,0,0,0-.89.61c-.1.11-.09.2,0,.34Z" style="fill:#58595b"/><path d="M211.72,264.34a.37.37,0,0,1-.39-.18.33.33,0,0,1,0-.24.59.59,0,0,1,.3-.32,2.88,2.88,0,0,0,.56-.41c.2-.19.12-.52-.1-1.06-.34-.77-1.15-2.14-2.08-3.73l-1.83-3.12c-1.56-2.66-1.85-3.15-2.21-3.69s-.62-.65-1.12-.48a4.34,4.34,0,0,0-.68.33c-.33.2-.53.16-.65-.05a.3.3,0,0,1,0-.25c0-.16.19-.27.4-.39.56-.33,1.2-.68,1.7-.95l.73-.41,1.31-.81,1.14-.7a8,8,0,0,1,2.81-1.12,4.46,4.46,0,0,1,1,0,3.71,3.71,0,0,1,2.76,1.8c.85,1.45.88,3,.07,5.27l.82.32c2.26.88,4,1.57,5.5,2a4.72,4.72,0,0,0,2,.19,3.26,3.26,0,0,0,.55-.14,2.79,2.79,0,0,0,.51-.23.38.38,0,0,1,.55.09.36.36,0,0,1,0,.27.74.74,0,0,1-.34.36l-1.67,1a4.3,4.3,0,0,1-2.16.79,9.92,9.92,0,0,1-4-1.18c-.56-.24-1.16-.52-1.69-.76s-1.25-.57-1.46-.64-.12,0-.23,0l-1.52.84.13.23c1,1.61,1.76,3,2.28,3.68.34.47.6.68,1,.5a9.18,9.18,0,0,0,.88-.42.39.39,0,0,1,.56.08.37.37,0,0,1,0,.39,1,1,0,0,1-.3.26c-.67.39-1.48.83-2,1.13l-.59.33c-.13.07-.38.23-.68.42s-1,.64-1.43.88a1.07,1.07,0,0,1-.33.14M205,250.67c.57-.09.89.21,1.23.71s.65,1,2.22,3.71l1.81,3.09c1,1.63,1.77,3,2.12,3.81.19.45.45,1.08,0,1.48l-.32.26,1.18-.74.69-.42.6-.34c.49-.27,1.22-.66,1.85-1-.21.1-.43.21-.62.28l-.29.09c-.55.08-.9-.32-1.19-.71-.52-.7-1.34-2.1-2.3-3.72l-.14-.25a.33.33,0,0,1,0-.27.31.31,0,0,1,.18-.21l1.55-.87a.69.69,0,0,1,.54-.07c.22.08.78.33,1.49.65l1.68.76A9.8,9.8,0,0,0,221.1,258a4.19,4.19,0,0,0,2-.74l1.54-.91-.3.12a3.09,3.09,0,0,1-.65.17,5.27,5.27,0,0,1-2.13-.2c-1.47-.43-3.27-1.13-5.54-2l-1.17-.46.07-.18c.82-2.21.83-3.74,0-5.12a3.35,3.35,0,0,0-2.45-1.61,3.84,3.84,0,0,0-.89,0,7.64,7.64,0,0,0-2.67,1.08l-1.12.68-1.32.82-.75.41c-.4.22-.89.48-1.35.75a1.59,1.59,0,0,1,.33-.13,1.16,1.16,0,0,1,.32-.08m6.55,5.1a.51.51,0,0,1-.55-.32l-3.12-5.33a.42.42,0,0,1,0-.57,4.23,4.23,0,0,1,.93-.64,3.14,3.14,0,0,1,1.14-.4c.84-.13,2.44,0,3.68,2.1a3.66,3.66,0,0,1,.52,3.41c-.2.47-.44.7-1.14,1.12a5.83,5.83,0,0,1-1.5.63m-1.51-6.88a2.72,2.72,0,0,0-1,.35,4.28,4.28,0,0,0-.85.58s0,0,0,.11l3.12,5.33c.09.14.1.14.16.13a5.45,5.45,0,0,0,1.36-.58c.67-.4.83-.57,1-.95a3.32,3.32,0,0,0-.49-3.06c-1.14-1.92-2.56-2-3.31-1.91" style="fill:#58595b"/><path d="M225.12,249.41a4.35,4.35,0,0,0-1.66-1.43c-.31-.17-5.17-2.1-6.38-2.52a5.12,5.12,0,0,0-2-.34,2.31,2.31,0,0,0-.85.3c-.13.1-.27.16-.35,0s0-.23.2-.38,1.55-1.09,2.08-1.49c.34-.26,1-.81,1.7-1.36.16-.12.28-.13.36,0s0,.2-.23.45a.36.36,0,0,0,0,.46,1.68,1.68,0,0,0,.61.41c.59.32,5.82,2.52,6.42,2.77-.13-.51-.78-5.63-.93-6.3a2.64,2.64,0,0,0-.41-1,.49.49,0,0,0-.65-.16c-.17.09-.34.16-.41.06s0-.2.16-.35c.54-.4,1.09-.75,1.57-1.1s1.39-1.13,1.7-1.36.31-.19.39-.09,0,.26-.19.39a2.34,2.34,0,0,0-.57.74,2.93,2.93,0,0,0-.27,1.45,62.77,62.77,0,0,0,.79,7.51,4.73,4.73,0,0,0,1,1.8l1,1.34c.2.26.71.94,1.28,1.58.38.45.8.7,1.33.39a7,7,0,0,0,.87-.54c.18-.14.29-.15.35-.07s0,.26-.21.42c-1,.77-2.09,1.5-2.53,1.83s-1.39,1.12-2,1.57c-.23.18-.38.24-.48.11s0-.19.16-.32a3.62,3.62,0,0,0,.52-.5c.28-.31.16-.77-.17-1.27-.46-.72-1-1.4-1.17-1.66Z" style="fill:#58595b"/><path d="M227,254.75a.34.34,0,0,1-.34-.14c-.07-.09-.17-.32.2-.6a3,3,0,0,0,.49-.46c.23-.27,0-.72-.19-1.05s-.71-1-1.17-1.64l-1-1.34a4.07,4.07,0,0,0-1.59-1.36c-.29-.17-5.13-2.09-6.36-2.52a5.05,5.05,0,0,0-1.93-.33,1.82,1.82,0,0,0-.75.27c-.25.19-.49.18-.62,0s-.18-.34.23-.65l.78-.55c.46-.33,1-.71,1.3-.94.14-.1.32-.25.53-.43s.73-.6,1.18-.93c.25-.2.48-.18.62,0s0,.39-.17.6l-.06.08a.18.18,0,0,0,0,.23,2,2,0,0,0,.54.35c.49.26,4.14,1.8,5.7,2.47l.39.16c-.1-.57-.24-1.65-.4-2.78-.19-1.39-.39-2.84-.47-3.17a2.44,2.44,0,0,0-.38-.94.3.3,0,0,0-.42-.09,1.24,1.24,0,0,1-.32.12.34.34,0,0,1-.32-.12.36.36,0,0,1-.07-.26.57.57,0,0,1,.28-.36q.42-.31.84-.6l.72-.5.89-.72.81-.65c.32-.23.53-.22.66-.05s.2.34-.22.67a1.79,1.79,0,0,0-.51.66,2.71,2.71,0,0,0-.26,1.38,65.15,65.15,0,0,0,.78,7.45,4.79,4.79,0,0,0,.95,1.74l1,1.33c.2.26.71.94,1.27,1.58.41.47.72.57,1.1.35a9.13,9.13,0,0,0,.84-.53c.27-.21.5-.21.63,0a.41.41,0,0,1,.07.26.74.74,0,0,1-.33.43c-.63.48-1.26.92-1.77,1.29-.32.22-.58.41-.75.54l-.82.65-1.17.93a1,1,0,0,1-.41.21M215,244.93a5.31,5.31,0,0,1,2.1.35c1.16.4,6.08,2.34,6.42,2.54a4.49,4.49,0,0,1,1.71,1.47l1,1.34c.46.61.86,1.17,1.18,1.67.52.8.37,1.26.15,1.5a2.68,2.68,0,0,1-.28.3l1-.79c.34-.27.64-.52.83-.66l.76-.54,1.52-1.1-.55.33a1.21,1.21,0,0,1-.41.15,1.35,1.35,0,0,1-1.17-.58c-.56-.65-1.08-1.34-1.28-1.6L227,248a5,5,0,0,1-1-1.87,64.79,64.79,0,0,1-.79-7.57,3.14,3.14,0,0,1,.29-1.53,2.9,2.9,0,0,1,.46-.65l-.6.49-.91.72-.73.52-.81.57,0,0a.67.67,0,0,1,.88.21,2.78,2.78,0,0,1,.44,1.09c.08.34.27,1.73.48,3.2s.39,2.85.45,3.1l.1.37-1.07-.45c-1.7-.72-5.23-2.22-5.72-2.48a1.93,1.93,0,0,1-.68-.46.56.56,0,0,1,0-.7l.06-.08a0,0,0,0,0,0,0c-.41.32-.79.63-1.1.89l-.54.43-1.32.95c-.28.19-.52.37-.67.48a2.79,2.79,0,0,1,.76-.24" style="fill:#58595b"/><path d="M235.89,234.71c-2.25-2.12-2.66-2.51-3.16-2.93s-.88-.55-1.44-.16a3.33,3.33,0,0,0-.59.53c-.16.17-.27.23-.37.13s0-.23.17-.45c.74-.79,1.67-1.68,1.94-2,.69-.73,1.19-1.34,1.66-1.85,2.53-2.67,4.42-1.79,5.2-1a4.43,4.43,0,0,1,1.16,3.95c1.56-.82,4-1.3,5.74.33s2.06,4.28-.51,7c-.17.18-.61.58-1,1s-.88.84-1.09,1.07-.46.48-.78.85-.65.75-.94,1-.32.25-.42.15-.07-.17.1-.34a4,4,0,0,0,.45-.59c.22-.35,0-.73-.41-1.2-.55-.66-1.72-1.76-3.08-3.05Zm1.93-1.53c.12.11.19.09.26,0a5.8,5.8,0,0,0,.7-.66,2.11,2.11,0,0,0,.73-1.33,2.67,2.67,0,0,0-1-2.08c-1-.94-2.83-1.59-4-.32a4.16,4.16,0,0,0-.43.51c-.07.13,0,.22.13.37Zm3-.84a2.93,2.93,0,0,0-1.51.89c-.27.26-.41.4-.62.63-.05.06-.05.11,0,.18l3.51,3.31c1,.93,1.27,1.12,1.9.83a3.72,3.72,0,0,0,1.2-.91,2.37,2.37,0,0,0-.2-3.58,4.84,4.84,0,0,0-4.3-1.35" style="fill:#58595b"/><path d="M241.59,242.59a.35.35,0,0,1-.29-.1c-.12-.11-.2-.3.09-.61a3.72,3.72,0,0,0,.42-.56c.15-.23,0-.51-.39-1-.53-.64-1.68-1.73-3-3l-2.82-2.67c-2.12-2-2.5-2.36-3-2.77s-.76-.46-1.22-.14a4.09,4.09,0,0,0-.55.5.6.6,0,0,1-.36.23.31.31,0,0,1-.28-.09c-.28-.26,0-.59.16-.72.46-.5,1-1,1.4-1.43l.55-.54c.37-.4.68-.76,1-1.08s.47-.54.69-.77a5.43,5.43,0,0,1,3-1.83,3,3,0,0,1,2.46.77,4.39,4.39,0,0,1,1.24,3.77,7.1,7.1,0,0,1,1.86-.56,4.42,4.42,0,0,1,3.8,1.07,4.36,4.36,0,0,1,1.36,3.18,6.12,6.12,0,0,1-1.86,4.09l-.5.48-.53.51c-.48.45-.9.87-1.09,1.06s-.46.49-.78.86c-.17.18-.34.37-.5.56s-.3.35-.44.49a.69.69,0,0,1-.4.26m-9.81-11.39a1.39,1.39,0,0,1,1.07.43c.49.41.88.77,3,2.78l2.83,2.67c1.33,1.27,2.49,2.36,3,3,.31.39.73.92.42,1.42a3.62,3.62,0,0,1-.22.32l.22-.25c.17-.19.34-.39.51-.57.32-.37.63-.69.78-.86s.69-.69,1.1-1.07l.54-.52c.21-.2.39-.37.48-.47a5.74,5.74,0,0,0,1.76-3.82,3.93,3.93,0,0,0-1.25-2.9,4.05,4.05,0,0,0-3.48-1,6.75,6.75,0,0,0-2,.67l-.31.17,0-.35a4.21,4.21,0,0,0-1.1-3.8,2.53,2.53,0,0,0-2.14-.67,5,5,0,0,0-2.79,1.72c-.21.23-.43.47-.67.75s-.61.69-1,1.09c-.1.11-.3.31-.55.55s-.73.73-1.12,1.14a2,2,0,0,1,.27-.22,1.41,1.41,0,0,1,.6-.26m12,7.28c-.51.08-.9-.22-1.7-1l-3.51-3.31a.34.34,0,0,1-.11-.24.27.27,0,0,1,.09-.22c.21-.22.35-.37.62-.63a3.17,3.17,0,0,1,1.61-.94l.26,0a5.12,5.12,0,0,1,4.2,1.44,2.56,2.56,0,0,1,.21,3.85,3.79,3.79,0,0,1-1.26.95,1.48,1.48,0,0,1-.41.13m-4.91-4.54,3.47,3.27c.76.73,1,.94,1.39.89a1.08,1.08,0,0,0,.31-.1,3.4,3.4,0,0,0,1.13-.87,2.18,2.18,0,0,0-.19-3.3,4.69,4.69,0,0,0-4.13-1.3,2.73,2.73,0,0,0-1.42.84c-.24.23-.38.37-.56.57m-.87-.49a.47.47,0,0,1-.34-.13L234,229.86a.45.45,0,0,1-.17-.59,3.3,3.3,0,0,1,.42-.52l0,0a2.38,2.38,0,0,1,1.4-.74,3.72,3.72,0,0,1,2.91,1.05,2.82,2.82,0,0,1,1.06,2.24,2.31,2.31,0,0,1-.78,1.45,5.65,5.65,0,0,1-.73.67.34.34,0,0,1-.16.07m-2.24-5.1a1.93,1.93,0,0,0-1.18.62l0,.05a3.18,3.18,0,0,0-.37.43s0,.05.1.13L238,233l0,0a7.8,7.8,0,0,0,.65-.63,1.82,1.82,0,0,0,.67-1.21,2.46,2.46,0,0,0-.93-1.93,3.3,3.3,0,0,0-2.59-1" style="fill:#58595b"/><path d="M245.18,227.54c-2.82-2-5.11-6.53-1.53-11.48,3-4.1,7.21-4.92,11-2.19a8,8,0,0,1,1.81,11.71,7.73,7.73,0,0,1-11.26,2m8.39-10.92c-3.69-2.67-7.52-2.21-9.47.5-1.38,1.89-1.88,4.81,2.21,7.78,3.43,2.48,7.52,2.56,9.81-.6.84-1.16,2.21-4.23-2.55-7.68" style="fill:#58595b"/><path d="M251.14,229.26a8.35,8.35,0,0,1-6.07-1.56A8,8,0,0,1,243.5,216a8.65,8.65,0,0,1,5.62-3.79,7.61,7.61,0,0,1,5.62,1.56,8.22,8.22,0,0,1,1.86,12,8.32,8.32,0,0,1-5.46,3.56m-2-16.72a8.28,8.28,0,0,0-5.36,3.64,7.89,7.89,0,0,0,7.27,12.7,7.92,7.92,0,0,0,5.21-3.41A7.85,7.85,0,0,0,254.52,214a7.27,7.27,0,0,0-5.35-1.49m3.18,14.3h0a8.55,8.55,0,0,1-6.15-1.78c-1.9-1.38-3-2.87-3.24-4.43a4.9,4.9,0,0,1,1-3.62,5.58,5.58,0,0,1,3.76-2.3,8.27,8.27,0,0,1,6,1.76c1.29.93,5.27,4.25,2.6,7.94a5.86,5.86,0,0,1-3.93,2.43m-4.59-11.75a5.23,5.23,0,0,0-3.51,2.14,4.48,4.48,0,0,0-.91,3.34c.24,1.46,1.27,2.86,3.09,4.18a8.12,8.12,0,0,0,5.86,1.71,5.46,5.46,0,0,0,3.68-2.28c.8-1.1,2.15-4-2.51-7.41a7.94,7.94,0,0,0-5.7-1.68" style="fill:#58595b"/><path d="M259.42,210.72c-.05.09,0,.15.06.24l2,2.35a3.66,3.66,0,0,0,1,.85c.32.18.64.14.94-.41l.14-.27c.12-.22.18-.25.29-.19s.12.2,0,.4c-.3.57-.77,1.31-1.07,1.87-.11.19-.58,1.21-1.08,2.14-.13.23-.22.32-.37.24s-.1-.15,0-.29.2-.42.26-.57c.33-.89-.09-1.55-.79-2.39L252,204.14c-.41-.49-.55-.71-.45-.89s.31-.18.82-.14c1.21.1,10.06,1.17,13.4,1.49,2,.18,2.51-.2,2.8-.53a4.94,4.94,0,0,0,.48-.71c.07-.15.14-.23.26-.16s.1.26-.26.92-1.05,2-1.86,3.37c-.19.31-.3.53-.43.46s-.1-.15,0-.34a.34.34,0,0,0-.33-.38l-4.57-.61a.18.18,0,0,0-.22.11Zm1.07-4.13c.05-.09,0-.14-.06-.15l-5.29-.77c-.08,0-.18,0-.21,0s0,.13.1.19l3.52,4c.06.05.13.06.17,0Z" style="fill:#58595b"/><path d="M261.48,218.16a.42.42,0,0,1-.24,0c-.11-.06-.28-.22-.1-.55.08-.16.2-.41.25-.55.29-.75,0-1.33-.76-2.2l-8.83-10.55c-.41-.5-.63-.8-.47-1.1a.51.51,0,0,1,.39-.24,3,3,0,0,1,.61,0l5,.55c2.93.34,6.58.76,8.44.94a7.49,7.49,0,0,0,1.65,0,1.53,1.53,0,0,0,1-.46,5.58,5.58,0,0,0,.45-.68.44.44,0,0,1,.31-.28.32.32,0,0,1,.21,0c.35.19.13.61-.18,1.18s-1,1.9-1.86,3.37l0,.07c-.17.29-.29.47-.47.5a.29.29,0,0,1-.18,0c-.29-.16-.16-.47-.11-.58s0,0,0-.06a.26.26,0,0,0-.14-.06l-4.57-.61-2.18,4,0,0,2,2.35a3.93,3.93,0,0,0,.9.82c.29.15.47.05.68-.34l.14-.27c.11-.2.3-.41.55-.27a.35.35,0,0,1,.19.22.64.64,0,0,1-.1.44c-.15.29-.35.63-.55,1s-.38.64-.52.91c0,.06-.11.21-.21.41-.21.43-.53,1.09-.88,1.73-.08.16-.19.34-.38.37m-9.7-14.86c-.09,0-.11,0-.11,0s.25.46.42.68l8.83,10.54c.68.82,1.21,1.57.83,2.59l-.11.25c.3-.56.57-1.13.76-1.51l.21-.42c.15-.28.34-.6.53-.93.09-.14.17-.28.25-.42a.75.75,0,0,1-1,.21,4.24,4.24,0,0,1-1-.9l-2-2.34a.37.37,0,0,1-.08-.46l2.15-4a.39.39,0,0,1,.41-.21l4.58.61a.51.51,0,0,1,.39.22.46.46,0,0,1,.1.29l.06-.1,0-.06c.84-1.46,1.57-2.84,1.85-3.36l.12-.22c-.08.12-.18.25-.28.38a1.84,1.84,0,0,1-1.23.6,7.68,7.68,0,0,1-1.74,0c-1.86-.18-5.36-.58-8.45-.94-2.37-.27-4.42-.51-4.95-.55a2.16,2.16,0,0,0-.52,0m6.91,6.82h0a.31.31,0,0,1-.26-.09l-3.54-4c-.21-.19-.16-.35-.13-.41a.36.36,0,0,1,.4-.11l5.3.77a.28.28,0,0,1,.21.15.28.28,0,0,1,0,.28L258.89,210a.27.27,0,0,1-.2.15m-3.39-4.23,3.32,3.78,1.64-3.06Z" style="fill:#58595b"/><path d="M261.65,197c-2.88-1.12-3.41-1.33-4-1.53s-1-.18-1.39.39a3.72,3.72,0,0,0-.35.72c-.08.21-.17.3-.3.25s-.12-.2,0-.48c.4-1,.92-2.17,1.08-2.57.25-.65.76-2.11,1-2.69a6.43,6.43,0,0,1,2.17-3.17,3.52,3.52,0,0,1,3.1-.27c1.4.55,2.46,1.64,3.27,4.16,2.78-.86,5-1.5,6.59-2.16a3.75,3.75,0,0,0,2.38-2.12c.06-.15.15-.21.24-.17s.14.2.05.43l-.71,1.8a4.11,4.11,0,0,1-1.15,1.89,9.88,9.88,0,0,1-3.8,1.5c-1.34.35-3,.72-3.35.85a.42.42,0,0,0-.26.29l-.69,1.63a.14.14,0,0,0,.09.21l.27.11c1.76.69,3.26,1.27,4.09,1.49.57.16,1,.21,1.33-.33a9.19,9.19,0,0,0,.44-.9c.06-.15.15-.2.24-.17s.14.21,0,.46c-.43,1.1-1,2.48-1.14,2.76s-.56,1.57-.85,2.33c-.1.25-.21.36-.34.3s-.12-.13,0-.36a3.3,3.3,0,0,0,.19-.71c.07-.41-.31-.67-.83-1-.76-.4-2.25-1-4-1.67ZM264,195.4c.21.08.3.07.41,0a5.14,5.14,0,0,0,.75-1.37,2,2,0,0,0,.21-1.47,3.6,3.6,0,0,0-2.41-2.23c-2.68-1-4.16.43-4.6,1.54a4.39,4.39,0,0,0-.31,1c0,.14,0,.21.2.27Z" style="fill:#58595b"/><path d="M269.76,202.26a.38.38,0,0,1-.18,0c-.15,0-.3-.21-.14-.61a3.9,3.9,0,0,0,.18-.67c.05-.27-.21-.47-.73-.76-.74-.39-2.22-1-3.93-1.64l-3.38-1.33c-2.9-1.13-3.4-1.33-4-1.53s-.86-.16-1.18.32a3.93,3.93,0,0,0-.33.68.5.5,0,0,1-.36.38.39.39,0,0,1-.18,0c-.35-.14-.18-.55-.12-.73.25-.61.53-1.28.76-1.8l.32-.77c.13-.33.32-.86.5-1.38s.37-1,.49-1.32a6.64,6.64,0,0,1,2.25-3.25,3.38,3.38,0,0,1,1.36-.5,3.73,3.73,0,0,1,1.91.21c1.57.62,2.57,1.85,3.32,4.1l.92-.28c2.28-.7,4.09-1.25,5.48-1.82a3.89,3.89,0,0,0,2-1.52,3,3,0,0,0,.26-.49c.09-.22.22-.29.32-.3a.35.35,0,0,1,.17,0,.4.4,0,0,1,.21.19.7.7,0,0,1-.05.49l-.71,1.8a4.34,4.34,0,0,1-1.21,2,9.69,9.69,0,0,1-3.87,1.54l-1.74.44c-.74.18-1.38.34-1.59.41s-.11.07-.16.18l-.67,1.61.29.11c1.72.67,3.21,1.26,4,1.46a1.73,1.73,0,0,0,.68.1.57.57,0,0,0,.43-.33,8.78,8.78,0,0,0,.43-.88.43.43,0,0,1,.32-.3.34.34,0,0,1,.17,0c.17.06.33.24.15.7-.29.73-.65,1.59-.9,2.16l-.25.6c-.05.15-.16.44-.28.78s-.39,1.1-.56,1.55c-.07.17-.19.4-.41.44m-12.91-7a1.69,1.69,0,0,1,.83.12c.62.2,1.12.39,4,1.54l3.38,1.32c1.72.68,3.21,1.26,4,1.67.44.24,1,.57.92,1.15,0,.14-.05.28-.08.41.15-.4.32-.88.46-1.28s.23-.64.29-.79.13-.31.25-.61c.22-.52.54-1.27.82-2-.1.2-.21.42-.3.58a1,1,0,0,1-.71.53,2.05,2.05,0,0,1-.84-.11c-.83-.21-2.33-.8-4.05-1.47l-.33-.13a.39.39,0,0,1-.2-.18.38.38,0,0,1,0-.28l.69-1.63a.62.62,0,0,1,.38-.4c.23-.08.85-.23,1.63-.42l1.73-.43a9.68,9.68,0,0,0,3.73-1.47,4,4,0,0,0,1.1-1.81l.65-1.67a2.79,2.79,0,0,1-.16.28,4.31,4.31,0,0,1-2.21,1.7c-1.4.57-3.22,1.13-5.51,1.83l-1.28.39-.05-.18c-.72-2.25-1.66-3.46-3.16-4a3.4,3.4,0,0,0-1.71-.18,3,3,0,0,0-1.21.44,6.31,6.31,0,0,0-2.1,3.08c-.12.29-.3.79-.48,1.3s-.39,1.06-.52,1.39l-.32.77c-.18.42-.4.94-.6,1.44a1.43,1.43,0,0,1,.17-.31,1.13,1.13,0,0,1,.78-.58m7.45.42a.68.68,0,0,1-.35,0l-5.75-2.26a.43.43,0,0,1-.32-.47,4,4,0,0,1,.33-1.09,3.2,3.2,0,0,1,2.5-2,4.52,4.52,0,0,1,2.34.34,3.7,3.7,0,0,1,2.52,2.35,2.21,2.21,0,0,1-.21,1.59,5.61,5.61,0,0,1-.78,1.42.43.43,0,0,1-.28.15m-3.53-5.47a2.85,2.85,0,0,0-2.21,1.74,5,5,0,0,0-.3,1s0,.06.08.08l5.75,2.26c.19.07.17,0,.2,0a5.05,5.05,0,0,0,.72-1.31,1.86,1.86,0,0,0,.19-1.35,3.35,3.35,0,0,0-2.28-2.1,4.22,4.22,0,0,0-2.15-.31" style="fill:#58595b"/><path d="M266.8,183.07c-3-.71-3.56-.84-4.21-1s-1,0-1.33.59a4.3,4.3,0,0,0-.24.76c0,.21-.12.32-.26.29s-.14-.18-.07-.48c.25-1.05.6-2.28.74-2.83s.38-1.88.66-3.07c.59-2.47,1.38-5.77,4.15-7.39a7.32,7.32,0,0,1,5.48-.73,8.08,8.08,0,0,1,5,3.48c.72,1.13,1.63,3.52.76,7.18-.17.71-.42,1.51-.66,2.25s-.46,1.42-.58,1.91c-.05.21-.15.65-.25,1.13s-.19,1-.28,1.37-.16.39-.3.35-.13-.11-.08-.35a3.18,3.18,0,0,0,.09-.73c0-.42-.39-.62-.95-.84-.81-.29-2.37-.66-4.19-1.1Zm2.76-1.95c2.1.5,3.63.84,4,.91a4.29,4.29,0,0,0,1.55.14c.44-.17,1-.84,1.41-2.4a6.52,6.52,0,0,0-.34-4.89c-.78-1.53-2.49-2.35-4.53-2.84a6.94,6.94,0,0,0-5.4.73,8.08,8.08,0,0,0-3.32,5.14,5.72,5.72,0,0,0-.16,1.32c0,.2.12.28.34.33.67.19,2.39.6,3.95,1Z" style="fill:#58595b"/><path d="M275.51,187.11h-.14a.3.3,0,0,1-.2-.14.58.58,0,0,1,0-.44,3.25,3.25,0,0,0,.08-.69c0-.28-.27-.44-.83-.66-.79-.29-2.35-.66-4.17-1.09l-3.55-.85c-2.95-.7-3.49-.83-4.12-.94a1.91,1.91,0,0,0-.56,0c-.21,0-.38.13-.56.51a3.6,3.6,0,0,0-.23.72c0,.12-.1.41-.35.44a.23.23,0,0,1-.14,0,.29.29,0,0,1-.21-.14.75.75,0,0,1,0-.56c.15-.62.33-1.3.49-1.87.1-.4.2-.74.25-1s.14-.64.23-1.07c.12-.6.27-1.31.44-2,.58-2.47,1.39-5.86,4.23-7.52a7.56,7.56,0,0,1,5.62-.74,8.28,8.28,0,0,1,5.13,3.56c.55.87,1.73,3.33.78,7.32-.18.73-.43,1.52-.67,2.27l-.06.2c-.21.64-.41,1.25-.51,1.69-.06.22-.16.65-.25,1.13-.06.24-.11.49-.15.73s-.09.45-.14.65-.11.45-.38.49m-13.57-5.22a2.16,2.16,0,0,1,.69,0c.64.11,1.17.24,4.14.94l3.55.85c1.82.43,3.4.81,4.22,1.11.46.18,1.1.42,1.07,1,0,.13,0,.25,0,.38l.06-.33c.05-.25.1-.51.16-.74.09-.48.19-.92.25-1.14.1-.45.3-1.07.52-1.72l.06-.2c.24-.74.49-1.53.66-2.23.91-3.86-.21-6.21-.74-7a7.85,7.85,0,0,0-4.89-3.39,7.17,7.17,0,0,0-5.34.7c-2.7,1.58-3.48,4.88-4.05,7.28-.17.69-.31,1.39-.44,2-.09.44-.17.81-.23,1.07s-.15.58-.26,1-.26,1-.38,1.48a2.38,2.38,0,0,1,.12-.33,1.1,1.1,0,0,1,.85-.72m13.11.5a6,6,0,0,1-1.52-.17c-.42-.08-2.07-.45-4-.91l-2.7-.64c-1.53-.37-3.11-.75-3.75-.92a.55.55,0,0,1-.48-.48,5.51,5.51,0,0,1,.17-1.4,8.14,8.14,0,0,1,3.4-5.27,6.34,6.34,0,0,1,2.48-.9,8,8,0,0,1,3.06.16c2.41.57,3.94,1.53,4.66,2.93a6.68,6.68,0,0,1,.36,5c-.46,1.94-1.22,2.42-1.53,2.54a.39.39,0,0,1-.14,0m-6.35-10.31a5.69,5.69,0,0,0-2.33.85,7.75,7.75,0,0,0-3.24,5,6.48,6.48,0,0,0-.17,1.23c0,.12,0,.15.2.19.65.17,2.22.55,3.75.92l2.7.63c2.26.54,3.65.85,4,.91A5.62,5.62,0,0,0,275,182l.06,0c.41-.15,1-.83,1.3-2.26A6.37,6.37,0,0,0,276,175c-.67-1.29-2.11-2.18-4.4-2.73a7.66,7.66,0,0,0-2.92-.15" style="fill:#58595b"/><path d="M47.69,85.66c-2.54-1.76-3-2.08-3.57-2.42s-.95-.41-1.45.06a4.14,4.14,0,0,0-.5.62c-.13.18-.23.26-.35.18s-.06-.22.11-.47c.61-.89,1.39-1.91,1.74-2.41s1-1.49,1.37-2.09c.18-.25.29-.35.41-.26s.08.2,0,.37a2.82,2.82,0,0,0-.28.52c-.23.51,0,.84.52,1.27s1,.73,3.53,2.49l2.34,1.62c2.42,1.68,3.78,1.91,5,1.55a3.83,3.83,0,0,0,2.14-1.62,4,4,0,0,0,.69-2.93c-.28-1.56-1.75-2.65-3.47-3.84L53.8,76.85c-2.55-1.76-3-2.08-3.57-2.42s-.95-.41-1.45.06a3.57,3.57,0,0,0-.47.57c-.13.18-.23.26-.35.18s-.07-.22.1-.46c.59-.85,1.37-1.87,1.38-1.89.13-.2.81-1.29,1.27-1.94.16-.23.27-.33.39-.24s.08.2-.06.4a2.33,2.33,0,0,0-.28.52c-.23.51,0,.84.52,1.28s1,.73,3.52,2.49l1.79,1.24c1.86,1.28,3.71,2.83,3.94,5.07A6.13,6.13,0,0,1,59.32,86a6.51,6.51,0,0,1-3.72,2.91c-1.36.32-3,.1-5.47-1.57Z" style="fill:#58595b"/><path d="M55.24,89.2c-1.56.23-3.22-.3-5.21-1.69l-2.45-1.69C45,84,44.58,83.74,44,83.41s-.82-.36-1.23,0a4.11,4.11,0,0,0-.47.59.63.63,0,0,1-.37.29.31.31,0,0,1-.24-.07.35.35,0,0,1-.15-.21.75.75,0,0,1,.2-.52c.35-.51.75-1,1.1-1.53s.49-.66.64-.88.32-.49.55-.83.59-.92.83-1.26.27-.35.43-.37a.35.35,0,0,1,.24.06c.14.1.25.29,0,.64a3.42,3.42,0,0,0-.26.47c-.16.36-.13.6.46,1.06s1,.72,3.47,2.45L51.62,85c1.9,1.31,3.21,1.79,4.39,1.62a4,4,0,0,0,.47-.11,3.5,3.5,0,0,0,2-1.54,3.81,3.81,0,0,0,.66-2.78c-.26-1.45-1.63-2.5-3.39-3.72L53.69,77c-2.57-1.78-3-2.08-3.56-2.42s-.82-.35-1.22,0a4.41,4.41,0,0,0-.44.53.64.64,0,0,1-.37.3.4.4,0,0,1-.25-.07.34.34,0,0,1-.14-.21.73.73,0,0,1,.19-.51c.33-.48.78-1.09,1.33-1.82l.05-.07.34-.52c.27-.42.64-1,.93-1.42.13-.19.26-.33.42-.35a.35.35,0,0,1,.24.06.41.41,0,0,1,.15.21.68.68,0,0,1-.16.46,2.51,2.51,0,0,0-.27.49c-.15.34-.12.58.47,1.05s.94.7,3.51,2.48l1.79,1.24c1.95,1.34,3.78,2.91,4,5.21a6.24,6.24,0,0,1-1.23,4.44,6.68,6.68,0,0,1-3.84,3l-.4.08m-12-6.42a1.51,1.51,0,0,1,1,.3c.56.34,1,.64,3.58,2.43l2.44,1.69c1.91,1.32,3.49,1.84,4.94,1.62l.37-.07a6.37,6.37,0,0,0,3.61-2.84,5.92,5.92,0,0,0,1.18-4.18c-.23-2.15-2-3.64-3.86-4.94l-1.79-1.24c-2.58-1.78-3-2.09-3.53-2.49s-.87-.86-.58-1.51l.13-.27c-.25.38-.55.84-.77,1.19a5.93,5.93,0,0,1-.35.53h0l-.05.08c-.44.58-.82,1.09-1.12,1.51a3,3,0,0,1,.23-.25,1.22,1.22,0,0,1,.68-.37,1.48,1.48,0,0,1,1,.3c.56.33,1,.64,3.57,2.42L56,78.14c1.84,1.28,3.27,2.38,3.56,4a4.16,4.16,0,0,1-.73,3.07,3.93,3.93,0,0,1-2.24,1.69,3.1,3.1,0,0,1-.51.11c-1.29.2-2.68-.31-4.66-1.68L49,83.65c-2.52-1.75-3-2.06-3.49-2.47s-.87-.85-.58-1.5l.14-.28c-.21.32-.48.72-.71,1.09l-.55.84c-.15.22-.39.53-.65.89l-.87,1.19a3,3,0,0,1,.24-.25,1.18,1.18,0,0,1,.68-.38" style="fill:#58595b"/><path d="M59.35,70c-2.28-2.09-2.7-2.47-3.21-2.88s-.89-.54-1.44-.14a3.44,3.44,0,0,0-.59.54c-.15.17-.26.23-.36.13s0-.23.16-.45c.73-.8,1.64-1.7,2-2.12.56-.61,1.31-1.52,2-2.21,1.71-1.88,3-2,3.41-2a3.55,3.55,0,0,1,2.47.89,4.77,4.77,0,0,1,.24,7,2.83,2.83,0,0,1-.3.3c-.08.07-.2.15-.3.06s-.07-.26.22-.57A3.2,3.2,0,0,0,63,64.3a3.94,3.94,0,0,0-3.06-1.18,3,3,0,0,0-2,1,2.35,2.35,0,0,0-.47.64c0,.1,0,.23.17.38l6,5.5C65.06,71.87,66.24,73,67,73.47c.46.34.87.56,1.35.16a8.32,8.32,0,0,0,.76-.71c.15-.16.26-.2.34-.13s0,.26-.11.42c-.91,1-1.82,1.9-2.18,2.29S66,76.83,65.42,77.43c-.17.19-.31.26-.42.16s-.07-.17.1-.35a3.16,3.16,0,0,0,.43-.6c.22-.35,0-.73-.42-1.19-.56-.65-1.75-1.73-3.13-3Z" style="fill:#58595b"/><path d="M65.16,77.82a.35.35,0,0,1-.29-.09.39.39,0,0,1-.11-.22.59.59,0,0,1,.2-.4,3.41,3.41,0,0,0,.41-.56c.14-.24,0-.53-.41-1-.55-.64-1.72-1.72-3.08-3l-2.66-2.44c-2.3-2.11-2.7-2.47-3.2-2.87s-.76-.46-1.21-.14a4,4,0,0,0-.55.52.7.7,0,0,1-.36.23.29.29,0,0,1-.28-.09c-.28-.25,0-.57.15-.72.42-.45.89-.94,1.29-1.35s.57-.59.73-.77.6-.67.92-1,.71-.82,1-1.17a5.74,5.74,0,0,1,3.22-2l.31,0a3.67,3.67,0,0,1,2.62.94,5,5,0,0,1,.25,7.28,1.94,1.94,0,0,1-.33.33.44.44,0,0,1-.54,0,.34.34,0,0,1-.12-.25c0-.16.09-.33.33-.59a3,3,0,0,0-.62-4A3.7,3.7,0,0,0,60,63.31l-.18,0a2.75,2.75,0,0,0-1.66.88,2.48,2.48,0,0,0-.44.58s0,.06.13.16l6,5.5c1.38,1.27,2.56,2.35,3.26,2.86.45.32.76.46,1.12.16a9.46,9.46,0,0,0,.74-.69c.22-.25.45-.28.61-.14s.26.3-.1.69c-.55.61-1.1,1.17-1.53,1.62l-.65.66-.64.75c-.35.39-.74.85-1,1.18a.71.71,0,0,1-.41.27m-10-11.24a1.35,1.35,0,0,1,1.07.42c.51.41.91.77,3.21,2.89l2.64,2.42c1.39,1.28,2.58,2.36,3.14,3,.32.38.76.91.45,1.41a3,3,0,0,1-.23.35l.85-1c.27-.32.51-.6.65-.75s.37-.39.65-.68.81-.83,1.27-1.33c-.16.16-.34.31-.47.42a1.09,1.09,0,0,1-.52.25,1.5,1.5,0,0,1-1.06-.4c-.72-.52-1.9-1.61-3.28-2.87l-6-5.51c-.27-.25-.27-.46-.22-.59a2.83,2.83,0,0,1,.51-.7,3.22,3.22,0,0,1,2.08-1,4.15,4.15,0,0,1,3.21,1.22,3.4,3.4,0,0,1,.64,4.55,1.72,1.72,0,0,0-.2.25h0a1.76,1.76,0,0,0,.29-.29,4.61,4.61,0,0,0-.23-6.74,3.38,3.38,0,0,0-2.33-.84l-.28,0A5.38,5.38,0,0,0,58,63c-.33.35-.68.76-1,1.16s-.65.75-.92,1l-.74.78c-.32.32-.68.69-1,1l.27-.22a1.26,1.26,0,0,1,.6-.27" style="fill:#58595b"/><path d="M69.44,59.71c-2-2.35-2.39-2.78-2.84-3.25s-.82-.64-1.42-.31a4.62,4.62,0,0,0-.64.47c-.17.15-.29.2-.38.09s0-.23.22-.43c.81-.7,1.83-1.49,2.26-1.86.63-.55,1.48-1.36,2.19-2,1.93-1.66,3.18-1.61,3.63-1.59A3.59,3.59,0,0,1,74.81,52a4.79,4.79,0,0,1-.59,7,2.18,2.18,0,0,1-.34.26c-.09.05-.21.13-.3,0s0-.26.29-.54a3.21,3.21,0,0,0-.12-4.32,3.92,3.92,0,0,0-2.9-1.53,3.05,3.05,0,0,0-2.06.72,3.16,3.16,0,0,0-.55.58c0,.1,0,.23.13.4l5.3,6.17c1.22,1.42,2.27,2.64,2.91,3.24.42.39.81.65,1.32.31a7.76,7.76,0,0,0,.84-.61c.17-.15.29-.17.35-.09s0,.26-.16.4c-1,.88-2,1.67-2.43,2s-1.28,1.19-1.9,1.72c-.2.17-.35.22-.44.11s0-.17.14-.34a2.93,2.93,0,0,0,.5-.53c.26-.33,0-.74-.28-1.23-.48-.72-1.53-1.94-2.75-3.36Z" style="fill:#58595b"/><path d="M74.34,68.13A.4.4,0,0,1,74,68c-.1-.13-.16-.33.16-.61a2.9,2.9,0,0,0,.48-.51c.17-.21,0-.52-.29-1-.48-.72-1.58-2-2.73-3.33L69.2,59.72c-1.94-2.26-2.29-2.67-2.74-3.12s-.7-.54-1.19-.28a3.51,3.51,0,0,0-.61.45c-.29.25-.49.24-.65.07a.34.34,0,0,1-.08-.25c0-.15.14-.29.32-.45.47-.41,1-.85,1.46-1.21s.62-.5.8-.66.67-.59,1-.93.79-.72,1.16-1a6.23,6.23,0,0,1,3-1.59,3.36,3.36,0,0,1,.72,0A3.7,3.7,0,0,1,75,51.91a5.07,5.07,0,0,1,1.28,3.76,5.26,5.26,0,0,1-1.88,3.51,3.16,3.16,0,0,1-.37.28.47.47,0,0,1-.55,0c-.26-.32.11-.64.31-.81a3,3,0,0,0-.14-4.06,3.72,3.72,0,0,0-2.76-1.46,2.91,2.91,0,0,0-.51,0,2.8,2.8,0,0,0-1.42.65,3.28,3.28,0,0,0-.51.53.75.75,0,0,0,.11.18l5.3,6.17c1.22,1.41,2.27,2.63,2.9,3.22.42.38.71.54,1.09.29a6.78,6.78,0,0,0,.81-.6c.26-.21.49-.22.63-.07a.37.37,0,0,1,.08.26.65.65,0,0,1-.26.42c-.64.55-1.28,1.07-1.75,1.45l-.68.56-.69.62c-.4.37-.86.79-1.22,1.1a.86.86,0,0,1-.38.21M65.61,55.79a1.31,1.31,0,0,1,1.13.54c.45.47.8.87,2.75,3.14l2.43,2.83c1.16,1.35,2.26,2.63,2.76,3.37.27.41.64,1,.27,1.45a2.16,2.16,0,0,1-.27.33c.32-.28.68-.61,1-.91l.7-.63.69-.57c.42-.34.92-.74,1.45-1.19-.18.13-.37.26-.52.35a1,1,0,0,1-.43.18,1.41,1.41,0,0,1-1.12-.51c-.65-.61-1.7-1.83-2.92-3.25l-5.31-6.17c-.24-.29-.21-.49-.15-.61a2.93,2.93,0,0,1,.59-.64,3.21,3.21,0,0,1,1.61-.74,2.82,2.82,0,0,1,.58,0,4.12,4.12,0,0,1,3,1.6,3.39,3.39,0,0,1,.1,4.59,2.7,2.7,0,0,0-.23.22h0a1.66,1.66,0,0,0,.32-.25,4.85,4.85,0,0,0,1.75-3.25,4.66,4.66,0,0,0-1.19-3.47,3.36,3.36,0,0,0-2.21-1.11,4.07,4.07,0,0,0-.64,0A5.88,5.88,0,0,0,69,52.6c-.36.3-.76.67-1.15,1l-1,.94c-.18.16-.47.4-.81.67s-.76.61-1.15.94a2.33,2.33,0,0,1,.29-.19,1.84,1.84,0,0,1,.52-.19" style="fill:#58595b"/><path d="M80.65,50.69c-1.73-2.57-2.05-3-2.44-3.55s-.74-.73-1.38-.48a5.06,5.06,0,0,0-.69.4c-.18.12-.31.16-.39,0s0-.23.27-.41l1.38-.9c.45-.28.85-.52,1.08-.68.54-.36,3.9-2.63,4.21-2.86a8.29,8.29,0,0,0,.66-.59,2.62,2.62,0,0,1,.22-.25c.09-.06.15,0,.2.09s.14.37.61,1.18c.1.18.56,1,.66,1.17s.08.22,0,.3-.21,0-.31-.13a2.08,2.08,0,0,0-.51-.54c-.32-.22-.63-.31-1.54.16-.31.15-2.1,1.32-2.44,1.54-.09.06-.09.13,0,.25l2.88,4.27c.08.11.14.17.24.1.37-.25,2.31-1.55,2.68-1.85s.6-.53.64-.8,0-.34.12-.4.14,0,.21.06.18.41.7,1.32c.2.35.61,1.06.69,1.18s.21.31.06.42a.16.16,0,0,1-.25,0,4.51,4.51,0,0,0-.48-.56c-.31-.28-.72-.38-1.39,0-.34.19-2,1.29-2.43,1.57-.08.05,0,.13,0,.23l.9,1.34c.38.57,1.41,2.13,1.76,2.61.81,1.14,1.25,1.21,3,.06A5.19,5.19,0,0,0,91,53.62a1.68,1.68,0,0,0-.08-1.75c-.09-.21-.1-.3,0-.38s.22,0,.34.21a15.48,15.48,0,0,1,1,2c.18.52,0,.62-.62,1.05-1.26.85-2.21,1.44-3,1.92s-1.28.79-1.79,1.13c-.18.12-.55.37-1,.66s-.8.59-1.14.82-.37.18-.45.06,0-.18.18-.32a3.78,3.78,0,0,0,.56-.47c.29-.3.13-.73-.13-1.26-.4-.77-1.29-2.1-2.34-3.65Z" style="fill:#58595b"/><path d="M84.58,59.62a.35.35,0,0,1-.36-.15c-.09-.14-.12-.35.23-.59a2.87,2.87,0,0,0,.53-.45c.2-.19.1-.5-.17-1-.39-.76-1.33-2.15-2.32-3.63l-2-3c-1.71-2.54-2-3-2.44-3.55s-.64-.61-1.14-.41a3.67,3.67,0,0,0-.66.37c-.32.22-.52.19-.66,0s.16-.57.32-.67l.71-.47c.23-.15.46-.29.67-.44l.19-.12c.37-.22.7-.42.9-.56.54-.36,3.89-2.62,4.19-2.85s.52-.44.64-.57l.07-.09a1.57,1.57,0,0,1,.18-.19c.17-.11.34-.06.47.14a1.78,1.78,0,0,1,.11.21,7.9,7.9,0,0,0,.5,1l.21.36c.18.3.4.67.47.82.13.32,0,.48-.11.54a.37.37,0,0,1-.16.07.47.47,0,0,1-.42-.25,1.91,1.91,0,0,0-.46-.49.62.62,0,0,0-.53-.14,2.73,2.73,0,0,0-.81.31c-.29.14-2,1.23-2.38,1.5h0l2.88,4.27,0,0,0,0c1.49-1,2.35-1.61,2.58-1.79s.54-.47.57-.67,0-.44.2-.54a.47.47,0,0,1,.15-.06.34.34,0,0,1,.33.17s.06.1.11.21.25.52.59,1.12l.33.57c.16.27.31.53.36.6s.32.47,0,.69a.61.61,0,0,1-.17.07.36.36,0,0,1-.35-.18l-.11-.13a4,4,0,0,0-.34-.4c-.3-.27-.65-.26-1.17,0-.32.17-1.87,1.19-2.35,1.52h0l1.29,1.93c.47.7,1.1,1.66,1.36,2,.48.67.76.86,1.17.8a4.55,4.55,0,0,0,1.55-.79,5,5,0,0,0,1.39-1.22c.26-.42.23-.85-.09-1.58-.07-.16-.19-.43.08-.61a.28.28,0,0,1,.14-.06c.23,0,.35.16.46.32a16.18,16.18,0,0,1,1.07,2.06c.23.66,0,.84-.69,1.28-1,.68-1.82,1.2-2.48,1.61l-.48.31c-.79.48-1.3.8-1.78,1.13-.19.12-.55.37-1,.66l-.6.43-.54.39a1,1,0,0,1-.36.16M77.17,46.37c.52-.08.85.2,1.19.65s.73,1,2.45,3.56l2,3c1,1.55,1.94,2.89,2.35,3.67.21.45.51,1.06.1,1.48L85,59l.26-.19.62-.44c.39-.28.76-.54.95-.66.48-.33,1-.65,1.79-1.14l.48-.3c.65-.42,1.46-.93,2.47-1.61.65-.44.66-.46.54-.83a16.05,16.05,0,0,0-1-2l0-.05a0,0,0,0,0,0,0,1.9,1.9,0,0,1,.07,1.94,5.34,5.34,0,0,1-1.51,1.32,4.62,4.62,0,0,1-1.71.86c-.64.09-1-.28-1.53-1-.26-.36-.9-1.32-1.37-2L83.72,51c-.19-.28-.06-.43,0-.5.36-.25,2.08-1.38,2.44-1.58a1.3,1.3,0,0,1,1.61,0,4.27,4.27,0,0,1,.36.42l-.35-.6-.33-.56c-.35-.62-.52-1-.61-1.16a.59.59,0,0,0,0-.08.78.78,0,0,1,0,.14,1.55,1.55,0,0,1-.71,1c-.35.28-2,1.43-2.6,1.8l-.09.06a.47.47,0,0,1-.15.06.38.38,0,0,1-.36-.22L80,45.53a.44.44,0,0,1-.1-.25.31.31,0,0,1,.15-.26c.34-.23,2.15-1.39,2.46-1.55,1-.5,1.41-.38,1.74-.15a2.5,2.5,0,0,1,.56.59l0,.05v0c-.06-.13-.28-.51-.45-.79s-.18-.3-.21-.37a10.68,10.68,0,0,1-.53-1l-.05-.13,0,.06-.1.12c-.1.1-.31.29-.67.6s-3.66,2.49-4.22,2.87l-.91.57L77.5,46l-.67.43-.37.25a1.53,1.53,0,0,1,.31-.16,2.19,2.19,0,0,1,.4-.11" style="fill:#58595b"/><path d="M92.54,43.19c-1.39-2.77-1.65-3.27-2-3.84s-.64-.81-1.3-.64a4.19,4.19,0,0,0-.73.3c-.2.1-.33.12-.4,0s.05-.22.32-.36c1-.48,2.14-1,2.52-1.2.62-.31,2-1.06,2.53-1.34a6.48,6.48,0,0,1,3.74-.9,3.54,3.54,0,0,1,2.49,1.87c.67,1.34.73,2.86-.36,5.28,2.65,1.22,4.71,2.2,6.35,2.79a4,4,0,0,0,2.66.21,2.83,2.83,0,0,0,.53-.2c.15-.07.25,0,.29,0s0,.24-.25.36l-1.72.86a4.13,4.13,0,0,1-2.12.63,9.63,9.63,0,0,1-3.83-1.42C100,45,98.59,44.17,98.21,44a.42.42,0,0,0-.39,0l-1.6.76a.14.14,0,0,0-.07.21l.13.26c.85,1.69,1.57,3.13,2,3.84.31.5.63.85,1.21.64a9.25,9.25,0,0,0,.92-.37c.15-.07.25-.06.29,0s0,.24-.27.36c-1,.53-2.42,1.15-2.7,1.29s-1.46.8-2.19,1.17c-.23.12-.39.13-.45,0s0-.18.22-.29a3.78,3.78,0,0,0,.61-.4c.33-.26.22-.7,0-1.27-.29-.81-1-2.24-1.86-3.92Zm2.86.35c.1.21.18.26.33.25a5.36,5.36,0,0,0,1.47-.51c.73-.37.93-.56,1.14-1a3.61,3.61,0,0,0-.3-3.27c-1.3-2.58-3.38-2.46-4.45-1.92a4.63,4.63,0,0,0-.93.55c-.11.1-.11.2,0,.34Z" style="fill:#58595b"/><path d="M95.38,52.54a.38.38,0,0,1-.41-.19c-.07-.15-.08-.36.3-.55a3.22,3.22,0,0,0,.58-.38c.22-.17.16-.5,0-1.06-.29-.79-1-2.22-1.84-3.87l-1.61-3.22C91,40.5,90.72,40,90.4,39.45s-.57-.69-1.09-.55a2.93,2.93,0,0,0-.7.28c-.34.17-.54.12-.65-.09s.24-.54.41-.62c.59-.3,1.25-.61,1.77-.85.33-.15.6-.27.74-.35.33-.16.85-.44,1.35-.71l1.19-.63A8.56,8.56,0,0,1,96,35a4.66,4.66,0,0,1,1.29,0,3.72,3.72,0,0,1,2.63,2c.76,1.51.68,3.09-.27,5.27l.94.44c2.13,1,3.82,1.77,5.22,2.27a4.51,4.51,0,0,0,2.14.3,2.5,2.5,0,0,0,.37-.09,2.42,2.42,0,0,0,.53-.19.39.39,0,0,1,.55.12c.17.35-.22.55-.34.61l-1.73.87a4.22,4.22,0,0,1-2.21.65c-1,0-2.06-.48-3.91-1.44-.53-.27-1.1-.57-1.61-.85s-1.24-.66-1.44-.74-.12,0-.23,0L96.34,45l.11.22c.84,1.67,1.56,3.11,2,3.83.32.5.56.71,1,.56a8.23,8.23,0,0,0,.91-.36.37.37,0,0,1,.54.12.32.32,0,0,1,0,.27.69.69,0,0,1-.38.35c-.72.37-1.59.77-2.16,1l-.54.25-.72.39-1.47.78a1.41,1.41,0,0,1-.3.11M89.44,38.48c.64-.1,1,.23,1.29.78s.58,1.07,2,3.84l1.6,3.2c.85,1.68,1.57,3.12,1.87,3.93.16.48.38,1.12-.09,1.49l-.33.24L97,51.31l.73-.39.55-.26c.52-.25,1.28-.6,2-.93l-.6.23c-.75.25-1.13-.25-1.44-.72-.48-.73-1.21-2.19-2-3.86L96,45.12a.35.35,0,0,1,0-.28.32.32,0,0,1,.19-.19l1.6-.77a.6.6,0,0,1,.55,0c.22.08.77.38,1.47.76l1.6.84a9.47,9.47,0,0,0,3.75,1.4,2.4,2.4,0,0,0,.47,0,5.29,5.29,0,0,0,1.56-.59l1.6-.81-.31.11c-.12,0-.26.07-.45.1a4.9,4.9,0,0,1-2.32-.32c-1.41-.5-3.11-1.29-5.25-2.28l-1.29-.6.08-.17c1-2.16,1.08-3.69.36-5.11a3.36,3.36,0,0,0-2.35-1.77,4.25,4.25,0,0,0-1.18,0,8.65,8.65,0,0,0-2.44.87l-1.18.62c-.51.28-1,.56-1.36.72L90.3,38l-1.41.66a2.53,2.53,0,0,1,.33-.11l.22,0M95.77,44h0a.51.51,0,0,1-.54-.35l-2.77-5.52a.43.43,0,0,1,.07-.57,4.45,4.45,0,0,1,1-.58,3.1,3.1,0,0,1,1-.3c.73-.11,2.55-.1,3.76,2.31a3.71,3.71,0,0,1,.3,3.44,2.24,2.24,0,0,1-1.22,1,5.65,5.65,0,0,1-1.52.53M94.51,37a2.65,2.65,0,0,0-.84.26,5.24,5.24,0,0,0-.88.52s0,0,0,.11l2.77,5.53c.07.15.09.14.15.14a5.75,5.75,0,0,0,1.4-.49c.69-.35.86-.52,1-.88a3.37,3.37,0,0,0-.3-3.09C96.81,37,95.31,36.92,94.51,37" style="fill:#58595b"/><path d="M116.26,41.18a8.05,8.05,0,0,1-3.2-11.12c1-1.69,2.7-3,5.62-3.79a20.54,20.54,0,0,1,2.9-.58c.77-.11,1.45-.11,2-.21.22,0,.33,0,.36.16s.05.4.2,1.1.45,1.73.52,2.14.07.46-.11.51-.24-.1-.32-.38A2.82,2.82,0,0,0,123,27.42a6,6,0,0,0-4.31-.12,5.28,5.28,0,0,0-3.35,2.23A6.8,6.8,0,0,0,115,35.1c1.29,4.67,5.47,6,8.1,5.29,1.74-.48,2.75-1,3.29-2.09a3.52,3.52,0,0,0,.31-1.48c0-.33,0-.42.15-.46s.21.09.25.25a20.19,20.19,0,0,1,.29,2.72A.72.72,0,0,1,127,40a11.82,11.82,0,0,1-3.4,1.43,10.22,10.22,0,0,1-7.32-.29" style="fill:#58595b"/><path d="M122,43.65a9.34,9.34,0,0,1-5.57-.71,7.81,7.81,0,0,1-4.13-5.24,8,8,0,0,1,.84-6.15,9.12,9.12,0,0,1,5.74-3.87,20,20,0,0,1,2.47-.53l.45-.06c.38-.05.72-.08,1.06-.1s.61,0,.88-.09l.11,0c.44-.07.55.21.57.29s0,.16,0,.28.06.43.15.84.18.72.28,1.11.21.82.25,1,.13.62-.25.72l0,0c-.34.05-.45-.35-.5-.53a2.78,2.78,0,0,0-1.18-1.48,6.08,6.08,0,0,0-4.16-.1,5.12,5.12,0,0,0-3.24,2.15c-.89,1.42-1,3.14-.39,5.43a6.71,6.71,0,0,0,7.3,5.26,4.78,4.78,0,0,0,.57-.12c1.65-.45,2.65-.9,3.16-2a3.22,3.22,0,0,0,.29-1.39c0-.26,0-.56.29-.65.17,0,.38,0,.49.38a18.53,18.53,0,0,1,.3,2.78.9.9,0,0,1-.43.85,11.77,11.77,0,0,1-3.47,1.46,16.9,16.9,0,0,1-1.88.41m-.65-16.5a2,2,0,0,0-2.61-.69,8.76,8.76,0,0,0-5.51,3.7,7.53,7.53,0,0,0-.79,5.85,7.43,7.43,0,0,0,3.92,5,9.89,9.89,0,0,0,7.18.27,11.74,11.74,0,0,0,3.34-1.39.54.54,0,0,0,.28-.56,19.38,19.38,0,0,0-.28-2.67.33.33,0,0,0-.06-.13s0,.09,0,.28a3.68,3.68,0,0,1-.33,1.58c-.58,1.2-1.69,1.71-3.41,2.18a6,6,0,0,1-.61.13,7.09,7.09,0,0,1-7.72-5.54c-.66-2.4-.53-4.22.43-5.73a5.57,5.57,0,0,1,3.46-2.32,6.32,6.32,0,0,1,4.46.15A3.1,3.1,0,0,1,124.47,29c.06.22.09.26.1.26s0-.08,0-.3-.14-.6-.25-1-.21-.8-.28-1.12-.13-.69-.16-.87,0-.17,0-.22a9.75,9.75,0,0,1-.46-2.2l-.13,0c0,2.22-.26,2.24-.58,2.27s-.67,0-.86,1.31Z" style="fill:#58595b"/><path d="M129.17,31.83c-.39-3.46,1.38-8.18,7.44-8.87,5-.58,8.5,2,9,6.62a8,8,0,0,1-7.42,9.24,7.75,7.75,0,0,1-9.05-7m13.73-1.18c-.52-4.52-3.45-7-6.76-6.66-2.32.27-4.82,1.86-4.25,6.89.48,4.21,3.18,7.28,7.07,6.83,1.41-.16,4.6-1.22,3.94-7.06" style="fill:#58595b"/><path d="M138.62,39l-.38,0A7.93,7.93,0,0,1,129,31.85c-.44-3.86,1.73-8.41,7.61-9.08a8.81,8.81,0,0,1,6.34,1.39,7.52,7.52,0,0,1,2.9,5.4,8.2,8.2,0,0,1-7.21,9.4M136.23,23.2c-3.72.56-7.45,3.49-6.87,8.61a7.56,7.56,0,0,0,8.84,6.82,7.88,7.88,0,0,0,7.25-9,7.12,7.12,0,0,0-2.75-5.13,8.44,8.44,0,0,0-6.07-1.32l-.4.05m2.91,14.68h0l-.16,0c-3.77.43-6.76-2.44-7.28-7-.63-5.52,2.36-6.8,4.2-7.08l.22,0c3.6-.41,6.46,2.4,7,6.83.67,5.91-2.54,7-4,7.25M136,24.21c-1.7.25-4.46,1.46-3.87,6.65.49,4.33,3.31,7.07,6.85,6.66h.15c1.3-.2,4.26-1.25,3.63-6.84-.48-4.2-3.17-6.87-6.55-6.49l-.21,0" style="fill:#58595b"/><path d="M153.53,31.93c-.06,2.6-.09,4,.33,4.38s.86.47,2.45.5c1.08,0,1.87,0,2.39-.51a2.55,2.55,0,0,0,.56-1.21c0-.18.06-.3.23-.3s.16.11.15.36a15,15,0,0,1-.36,2.33c-.13.44-.23.54-1.29.51-1.47,0-2.52-.1-3.44-.14s-1.64-.1-2.48-.12c-.22,0-.67,0-1.16,0s-1,0-1.4,0c-.26,0-.41-.07-.4-.21s.08-.16.33-.16a3,3,0,0,0,.73-.06c.41-.07.52-.52.62-1.1.12-.86.16-2.46.2-4.33l.09-3.58c.07-3.09.08-3.66.06-4.31s-.18-1-.85-1.18a2.92,2.92,0,0,0-.67-.08c-.22,0-.35,0-.34-.19s.15-.18.45-.17c1,0,2.23.11,2.78.12s2,0,2.77,0c.29,0,.43.05.42.19s-.12.18-.37.18a4.27,4.27,0,0,0-.79,0c-.55.08-.72.43-.78,1.14s-.07,1.22-.14,4.31Z" style="fill:#58595b"/><path d="M158.78,38.16a4.5,4.5,0,0,1-.8,0c-1.15,0-2-.07-2.83-.11l-.61,0c-.86-.06-1.61-.1-2.47-.12h-2.56c-.5,0-.6-.22-.59-.4s0-.29.34-.34h.18a3,3,0,0,0,.69-.06c.28,0,.37-.35.47-.94.12-.83.16-2.42.2-4.25l.09-3.64c.07-3.09.08-3.65.06-4.3s-.17-.87-.7-1a3.24,3.24,0,0,0-.63-.07.57.57,0,0,1-.44-.14.27.27,0,0,1-.09-.24c0-.14,0-.38.65-.37l1.76.08c.42,0,.79.05,1,.05s.58,0,1,0h1.76c.18,0,.61,0,.61.38,0,.11-.05.38-.57.37a4.18,4.18,0,0,0-.77,0c-.36.06-.55.22-.61,1s-.07,1.16-.14,4.1l-.09,3.78c-.05,2.37-.09,3.92.26,4.24s.76.41,2.33.45a8.12,8.12,0,0,0,1.34,0,1.52,1.52,0,0,0,.91-.42,2.43,2.43,0,0,0,.51-1.1c0-.13.06-.42.34-.46h.08c.35,0,.35.36.34.55a15.36,15.36,0,0,1-.36,2.38.75.75,0,0,1-.69.63m-8.95-.62h1.09c.48,0,.93,0,1.16,0,.86,0,1.62.06,2.49.12l.6,0c.79,0,1.67.08,2.82.11a5,5,0,0,0,.74,0c.26,0,.29-.11.37-.36a15,15,0,0,0,.35-2.28v0a2.79,2.79,0,0,1-.61,1.31,1.85,1.85,0,0,1-1.14.53,8.65,8.65,0,0,1-1.4,0c-1.51,0-2.16-.18-2.57-.56s-.46-1.71-.39-4.51l.09-3.81c.07-2.93.08-3.47.14-4.11s.24-1.2.94-1.31l.39,0h-2.39l-1,0c-.46,0-1-.06-1.44-.07l.3.05c.79.19,1,.64,1,1.36s0,1.22-.06,4.32l-.09,3.64c0,1.84-.08,3.44-.2,4.29-.08.5-.19,1.17-.78,1.27l-.37,0" style="fill:#58595b"/><path d="M163.29,28.79c.47-3.06.56-3.62.62-4.27s0-1-.69-1.28a3.62,3.62,0,0,0-.78-.18c-.22,0-.33-.1-.31-.24s.17-.16.47-.11c1.07.16,2.32.42,2.93.51s1.75.21,2.48.32c.3.05.43.11.41.25s-.15.17-.35.14a2.27,2.27,0,0,0-.59,0c-.56,0-.77.33-.92,1s-.22,1.21-.7,4.26L165.43,32c-.45,2.91-.06,4.23.8,5.18a3.75,3.75,0,0,0,2.39,1.21,4,4,0,0,0,2.94-.65c1.28-.94,1.62-2.74,1.94-4.81l.38-2.51c.47-3.06.56-3.62.62-4.27s0-1-.69-1.28a3.9,3.9,0,0,0-.71-.17c-.22,0-.34-.09-.31-.24s.16-.15.45-.11c1,.16,2.28.41,2.3.42.24,0,1.51.17,2.3.29.28.05.41.11.39.25s-.15.16-.39.12a3.7,3.7,0,0,0-.59,0c-.56,0-.77.34-.92,1s-.23,1.2-.7,4.26l-.33,2.15c-.35,2.23-.93,4.57-2.84,5.76a6.12,6.12,0,0,1-4.41.8,6.62,6.62,0,0,1-4.25-2.08c-.88-1.08-1.41-2.69-1-5.6Z" style="fill:#58595b"/><path d="M170.24,39.63a7.26,7.26,0,0,1-2.22,0,6.75,6.75,0,0,1-4.36-2.15c-1.09-1.33-1.41-3.16-1-5.75l.45-2.93c.48-3.1.56-3.63.62-4.26s-.06-.89-.57-1.08a3.84,3.84,0,0,0-.73-.18.59.59,0,0,1-.42-.19.32.32,0,0,1-.06-.26.35.35,0,0,1,.31-.29,1.31,1.31,0,0,1,.38,0l1.89.33c.42.08.78.15,1,.18s.59.08,1,.13l1.48.19c.18,0,.63.1.57.47s-.21.35-.57.29a2.53,2.53,0,0,0-.56,0c-.34,0-.57.11-.73.88s-.23,1.18-.7,4.24L165.62,32c-.49,3.15.07,4.28.75,5a3.66,3.66,0,0,0,2.28,1.15,4.29,4.29,0,0,0,1.24,0,3.48,3.48,0,0,0,1.56-.63c1.19-.87,1.53-2.56,1.86-4.68l.38-2.51c.47-3,.56-3.62.62-4.25s-.05-.9-.57-1.09a3,3,0,0,0-.67-.16.65.65,0,0,1-.42-.19.39.39,0,0,1-.05-.26.34.34,0,0,1,.31-.3,1.52,1.52,0,0,1,.35,0c.82.13,1.78.31,2.28.41l.59.08c.51.06,1.22.14,1.74.22a.75.75,0,0,1,.5.22.31.31,0,0,1,0,.25.33.33,0,0,1-.31.29,1.05,1.05,0,0,1-.3,0,3.14,3.14,0,0,0-.55,0h-.13c-.29,0-.47.2-.61.87s-.22,1.16-.7,4.25l-.33,2.15c-.36,2.34-1,4.67-2.93,5.89a6.13,6.13,0,0,1-2.32.87M163,23l.31.1c.76.29.88.76.81,1.47s-.16,1.29-.62,4.28L163,31.75c-.39,2.47-.09,4.2.92,5.45a6.45,6.45,0,0,0,4.13,2,7.19,7.19,0,0,0,2.11,0,5.65,5.65,0,0,0,2.17-.82c1.83-1.14,2.4-3.37,2.75-5.62l.33-2.15c.48-3.1.56-3.63.7-4.27s.38-1.15,1.1-1.18h.31L176.08,25l-.57-.07c-.47-.1-1.23-.24-1.95-.37l.33.1c.76.29.87.76.8,1.48s-.15,1.24-.62,4.28L173.68,33c-.34,2.21-.7,4-2,4.93a3.89,3.89,0,0,1-1.73.7,4.76,4.76,0,0,1-1.36,0,3.93,3.93,0,0,1-2.5-1.27c-1-1.13-1.26-2.68-.85-5.34l.44-2.82c.47-3.07.55-3.62.69-4.26s.39-1.17,1.11-1.19h.31l-1.28-.16c-.42-.05-.79-.09-1-.13l-1.05-.18L163,23" style="fill:#58595b"/><path d="M185.06,27c.16-.3.34-.44.49-.39s.24.19.32.78L187.49,40l8.94-9.25c.25-.26.4-.38.58-.32s.22.29.14.71l-2.24,12.51c-.24,1.27-.23,1.89.29,2.26a4.34,4.34,0,0,0,1.13.6c.17,0,.3.12.26.23s-.3.14-.57.05c-.48-.17-3.12-1.12-3.87-1.43-.43-.19-.53-.29-.49-.4s.13-.13.28-.15.27-.22.38-.79L194,35.17l-.08,0-7.14,7.35c-.75.75-.91.9-1.08.84s-.24-.51-.35-1.2c-.16-1-.7-4.5-.75-5.12,0-.46-.38-3.28-.57-4.95L184,32l-3.58,7.33a6.92,6.92,0,0,0-.36.89c-.13.37.07.62.37.81a4.29,4.29,0,0,0,.78.37c.15.05.27.13.24.23s-.24.16-.53.06c-.82-.27-1.66-.62-2-.74s-1.31-.38-1.93-.58c-.19-.07-.33-.16-.28-.33s.17-.1.36,0a2.78,2.78,0,0,0,.6.13c.58.07,1-.63,1.3-1.25Z" style="fill:#58595b"/><path d="M195.61,47.19a1.22,1.22,0,0,1-.5-.07c-.45-.15-3.12-1.12-3.89-1.44-.32-.14-.71-.3-.6-.64a.43.43,0,0,1,.37-.26h.08a1.37,1.37,0,0,0,.2-.64l1.6-8.38-6.8,7c-.67.68-.87.87-1.09.9a.28.28,0,0,1-.18,0c-.28-.09-.34-.46-.46-1.21l0-.13c-.14-.86-.7-4.48-.75-5.13,0-.28-.16-1.45-.31-2.69-.07-.6-.14-1.21-.21-1.76l-3.34,6.87a7,7,0,0,0-.36.87c0,.15-.07.36.29.59a3.67,3.67,0,0,0,.74.34.58.58,0,0,1,.35.25.31.31,0,0,1,0,.23c-.08.25-.29.34-.77.18s-1-.37-1.42-.52L178,41.3l-.73-.22L176,40.72a.6.6,0,0,1-.38-.28.31.31,0,0,1,0-.29c.06-.2.26-.27.6-.16a2.31,2.31,0,0,0,.56.13.24.24,0,0,0,.12,0c.38-.06.71-.62,1-1.15L184,27c.22-.4.48-.56.73-.48s.37.37.45.92l1.56,12.26,8.67-9c.29-.29.51-.46.77-.37.42.14.31.74.27.93l-2.24,12.51c-.24,1.3-.19,1.79.22,2.07a3.66,3.66,0,0,0,1.08.57.58.58,0,0,1,.37.25.3.3,0,0,1,0,.23.34.34,0,0,1-.31.24m-5.17-3.45a1.78,1.78,0,0,0,.33.17c.69.29,2.95,1.11,3.69,1.36a4.33,4.33,0,0,1-.82-.47c-.61-.44-.61-1.17-.37-2.46l2.24-12.5c.07-.39,0-.49,0-.5a1,1,0,0,0-.38.27l-9.21,9.54-1.67-13c-.08-.58-.15-.61-.19-.62s-.11,0-.27.31l-6.12,11.92c-.33.66-.72,1.28-1.27,1.36a.81.81,0,0,1-.22,0l-.26,0c.28.09.57.18.84.25s.59.17.75.23l.6.22,1.26.47c-.17-.08-.33-.17-.5-.27a.84.84,0,0,1-.46-1,8.69,8.69,0,0,1,.37-.91l3.66-7.49.35.12v.12c.08.65.17,1.47.27,2.25.14,1.25.28,2.42.3,2.71.05.59.57,3.94.75,5.1l0,.13a3.25,3.25,0,0,0,.22.92,6.21,6.21,0,0,0,.86-.8l7.22-7.43.36.12,0,.16-1.69,8.87c-.11.62-.27.92-.51.95h-.1Z" style="fill:#58595b"/><path d="M203.69,40.36c1.43-2.75,1.7-3.25,2-3.85s.29-1-.24-1.43a4,4,0,0,0-.67-.42c-.2-.1-.29-.2-.22-.32s.21-.1.48,0c1,.5,2.06,1.15,2.42,1.34.89.46,1.62.78,2.23,1.1,3.26,1.7,2.92,3.76,2.42,4.71a4.4,4.4,0,0,1-3.49,2.19c1.21,1.28,2.34,3.5,1.24,5.61-1,1.93-3.55,3.14-6.87,1.4-.22-.11-.72-.41-1.23-.71s-1.05-.62-1.32-.76l-1-.52c-.42-.22-.9-.42-1.26-.62s-.33-.24-.27-.36.15-.11.37,0a3.5,3.5,0,0,0,.68.27c.4.12.7-.23,1-.72.49-.71,1.24-2.13,2.1-3.79Zm3.62,4.12A2.94,2.94,0,0,0,206,43.26c-.31-.19-.49-.28-.76-.42-.08,0-.13,0-.18.07l-2.24,4.27c-.62,1.19-.72,1.52-.27,2.06a3.6,3.6,0,0,0,1.2.9A2.37,2.37,0,0,0,207.18,49a4.86,4.86,0,0,0,.13-4.5m-1.62-2.69c-.08.15,0,.21,0,.27a5.5,5.5,0,0,0,.82.49,2,2,0,0,0,1.48.34,2.68,2.68,0,0,0,1.74-1.52c.63-1.21.76-3.16-.79-4a3.18,3.18,0,0,0-.62-.28c-.14,0-.22,0-.32.22Z" style="fill:#58595b"/><path d="M206.75,51.71a6.38,6.38,0,0,1-3.89-.8l-.59-.35c-.2-.11-.42-.25-.65-.37-.53-.33-1.05-.62-1.31-.76s-.59-.31-1-.52l-.67-.32q-.33-.15-.6-.3a.71.71,0,0,1-.38-.36.39.39,0,0,1,0-.26c.1-.19.31-.24.62-.08a4,4,0,0,0,.65.26h.15c.23,0,.46-.35.69-.66.48-.7,1.22-2.12,2.08-3.77l1.72-3.26c1.4-2.67,1.65-3.15,1.91-3.73s.23-.86-.19-1.21a3.68,3.68,0,0,0-.64-.4c-.31-.16-.41-.36-.3-.58s.4-.21.74,0c.59.31,1.24.68,1.74,1l.68.38,1.32.65c.33.16.63.3.91.45,3.71,2,2.85,4.3,2.5,5A4.39,4.39,0,0,1,209,43.84a5,5,0,0,1,1,5.58,4.32,4.32,0,0,1-3.24,2.29m-8.28-3.61.3.14.68.33,1,.52c.26.14.79.44,1.33.77l.64.37.58.34a5.92,5.92,0,0,0,3.65.76,3.93,3.93,0,0,0,3-2.09c1-2,0-4.06-1.21-5.39l-.24-.25.34-.07a4.22,4.22,0,0,0,3.36-2.09c.31-.59,1.06-2.67-2.34-4.45-.27-.15-.57-.29-.89-.44s-.85-.4-1.33-.66l-.7-.39-1.38-.76a2.84,2.84,0,0,1,.29.2,1.19,1.19,0,0,1,.28,1.65c-.27.6-.52,1.08-1.93,3.76l-1.71,3.26c-.86,1.66-1.61,3.08-2.11,3.81-.28.4-.57.76-.94.82a.82.82,0,0,1-.31,0l-.36-.11m6.92,2.52h0a2.77,2.77,0,0,1-1.69-.31,3.73,3.73,0,0,1-1.26-1c-.53-.63-.37-1.07.25-2.27l2.24-4.27a.31.31,0,0,1,.44-.15l.77.43a3.1,3.1,0,0,1,1.34,1.29,5.09,5.09,0,0,1-.13,4.68,2.63,2.63,0,0,1-2,1.55M205.25,43,203,47.27c-.62,1.19-.66,1.42-.29,1.84a3.27,3.27,0,0,0,1.14.86,2.44,2.44,0,0,0,1.46.27A2.27,2.27,0,0,0,207,48.89a4.7,4.7,0,0,0,.13-4.32,2.66,2.66,0,0,0-1.2-1.14c-.28-.17-.46-.27-.69-.39m2.67.06h0a2.37,2.37,0,0,1-1.48-.38,4.57,4.57,0,0,1-.85-.52.37.37,0,0,1-.07-.5l2.33-4.45a.48.48,0,0,1,.53-.32,3.47,3.47,0,0,1,.64.28c1.6.84,1.65,2.81.9,4.25A2.85,2.85,0,0,1,208,43.08l-.12,0m-.76-5.63a.74.74,0,0,0-.08.13l-2.33,4.45,0,.05q.19.13.78.45a1.8,1.8,0,0,0,1.35.32,2.47,2.47,0,0,0,1.61-1.42c.54-1,.81-2.92-.7-3.72a2.92,2.92,0,0,0-.58-.26l-.05-.19,0,.19h0" style="fill:#58595b"/><path d="M216.66,47.71c1.7-2.58,2-3.06,2.34-3.62s.37-1,.05-1.33a2.54,2.54,0,0,0-.56-.47c-.17-.12-.25-.22-.16-.35s.22,0,.49.13c.65.43,1.68,1.19,2.18,1.51s1.46.89,2.1,1.32c.22.14.33.26.27.37s-.22.1-.39,0a3.36,3.36,0,0,0-.54-.29c-.51-.21-.84,0-1.27.56s-.7,1-2.41,3.57l-2,3c-1.09,1.64-2,3-2.39,3.76-.25.49-.34.87.13,1.28a7.76,7.76,0,0,0,.82.64c.19.12.24.23.18.31s-.25.09-.43,0c-1.12-.74-2.16-1.5-2.61-1.8s-1.5-.91-2.18-1.36c-.22-.15-.3-.28-.22-.4s.15-.09.36.05a4,4,0,0,0,.65.33c.39.16.68-.06,1.05-.52.56-.66,1.45-2,2.53-3.65Z" style="fill:#58595b"/><path d="M215.45,58.34a.7.7,0,0,1-.46-.14c-.7-.46-1.35-.92-1.87-1.29l-.74-.51-.78-.49c-.46-.28-1-.61-1.39-.88a.65.65,0,0,1-.34-.39.34.34,0,0,1,0-.26c.12-.18.34-.21.63,0a3,3,0,0,0,.62.31c.29.12.46,0,.84-.46.53-.64,1.37-1.91,2.44-3.51l2.05-3.11c1.68-2.54,2-3,2.34-3.61s.26-.91.07-1.1a2.52,2.52,0,0,0-.53-.44c-.28-.19-.36-.4-.21-.62a.3.3,0,0,1,.21-.13.86.86,0,0,1,.55.21l1.22.84c.37.27.72.52.95.67l.83.52c.43.26.92.56,1.27.8.13.08.52.34.33.63a.42.42,0,0,1-.26.18.58.58,0,0,1-.39-.13,3.17,3.17,0,0,0-.52-.27c-.4-.17-.62-.06-1,.49s-.7,1-2.41,3.57l-2,3c-1.11,1.67-2,3-2.38,3.75-.23.45-.28.72.08,1.05a10.17,10.17,0,0,0,.81.62c.38.25.29.49.23.58a.35.35,0,0,1-.24.15m-4.79-3.47,1.14.72c.33.2.63.38.79.49l.75.52,1.55,1.07a5.58,5.58,0,0,1-.49-.4,1.09,1.09,0,0,1-.17-1.51c.42-.78,1.29-2.1,2.39-3.77l2-3c1.71-2.59,2-3.05,2.42-3.58.53-.71.92-.86,1.49-.61a1.68,1.68,0,0,1,.3.14c-.33-.21-.72-.46-1.08-.67s-.65-.4-.84-.53l-1-.67c-.34-.25-.71-.5-1-.72a4,4,0,0,1,.3.28,1.22,1.22,0,0,1,0,1.55c-.34.58-.67,1.08-2.35,3.64l-2,3.1c-1.07,1.61-1.92,2.89-2.47,3.54a1.51,1.51,0,0,1-.85.63A.77.77,0,0,1,211,55l-.37-.17" style="fill:#58595b"/><path d="M223,57.29c-.08-.06-.13-.06-.24,0l-2.7,1.55a3.73,3.73,0,0,0-1,.76c-.23.29-.26.61.22,1l.24.19c.19.16.21.23.13.32s-.22.08-.39-.06c-.51-.41-1.14-1-1.63-1.42-.17-.14-1.08-.8-1.89-1.48-.21-.17-.27-.27-.17-.4s.16-.07.29,0a5.45,5.45,0,0,0,.51.37c.8.5,1.54.21,2.5-.31l12.06-6.63c.56-.3.8-.39.95-.26s.12.33,0,.82c-.34,1.18-3.1,9.65-4.06,12.87-.56,1.9-.29,2.5,0,2.85a3.8,3.8,0,0,0,.61.6c.12.1.19.19.1.3s-.27,0-.86-.44-1.71-1.41-2.94-2.48c-.27-.25-.46-.4-.37-.51s.17-.07.34,0a.33.33,0,0,0,.44-.24l1.48-4.37a.22.22,0,0,0-.06-.24Zm3.85,1.85c.08.07.14,0,.16,0l1.78-5c0-.08.08-.17,0-.21s-.14,0-.21.07L224,56.6c-.07,0-.09.11,0,.16Z" style="fill:#58595b"/><path d="M228.41,68.64c-.19,0-.41-.11-.92-.52s-1.68-1.39-2.94-2.48l-.08-.07c-.26-.24-.51-.47-.31-.71s.4-.13.59,0c0,0,0,0,0,0s.1,0,.13-.13l1.48-4.37-3.5-2.9h0L220.15,59a3.88,3.88,0,0,0-1,.72c-.14.17-.25.38.2.74l.23.19a.58.58,0,0,1,.25.35.38.38,0,0,1-.09.24.36.36,0,0,1-.23.14.57.57,0,0,1-.44-.17l-.84-.74-.78-.68s-.18-.14-.35-.27c-.37-.28-1-.74-1.55-1.21-.12-.1-.44-.37-.19-.67a.39.39,0,0,1,.21-.13.48.48,0,0,1,.35.13,6,6,0,0,0,.49.36c.67.42,1.34.21,2.31-.32l12.06-6.63c.68-.36.94-.43,1.17-.24s.17.55,0,1-.77,2.46-1.48,4.7c-.91,2.83-2,6.36-2.57,8.17-.59,2-.23,2.45-.06,2.68a3.78,3.78,0,0,0,.58.57.5.5,0,0,1,.21.31.33.33,0,0,1-.09.26.31.31,0,0,1-.2.11m-3.75-3.41.07.06.07.06c1.25,1.08,2.43,2.05,2.94,2.47l.19.16-.32-.35c-.34-.45-.57-1.12,0-3s1.67-5.34,2.57-8.18c.72-2.24,1.34-4.17,1.48-4.68,0-.17.16-.56.08-.63a1.9,1.9,0,0,0-.74.29L218.93,58a4.47,4.47,0,0,1-1.44.58,1.79,1.79,0,0,1-1.25-.27l-.21-.14c.49.4,1,.78,1.33,1l.36.27c.24.2.52.45.8.7l.38.33a.74.74,0,0,1,0-1,4.1,4.1,0,0,1,1.08-.81l2.69-1.55a.58.58,0,0,1,.19-.07.33.33,0,0,1,.27.08L226.62,60a.39.39,0,0,1,.12.45l-1.48,4.37a.54.54,0,0,1-.43.39h-.17m2.3-5.86a.33.33,0,0,1-.24-.08l-2.89-2.38a.26.26,0,0,1-.11-.21.32.32,0,0,1,.14-.25l4.65-2.69a.35.35,0,0,1,.42,0c.17.14.07.34,0,.43l-1.77,5a.3.3,0,0,1-.22.19m-2.78-2.67,2.68,2.21,1.67-4.72Z" style="fill:#58595b"/><path d="M39.65,198A121.25,121.25,0,0,1,41,100l1.83.84a118.85,118.85,0,0,0-9.54,67.28,120.07,120.07,0,0,0,8.19,29.07Z" style="fill:#58595b"/><path d="M272.28,163.18l-2-.21A119.22,119.22,0,0,0,240.8,71.23l1.5-1.34a121.33,121.33,0,0,1,30,93.29" style="fill:#58595b"/><path d="M138,65.21a86.52,86.52,0,1,1-72.77,98.37A86.52,86.52,0,0,1,138,65.21m-.5-3.31a89.87,89.87,0,1,0,102.18,75.58A90,90,0,0,0,137.48,61.9" style="fill:#58595b"/><path d="M183.16,172.73c-3.4-.58,3.2-2.53,3.06-.46Z" style="fill:#58595b;fill-rule:evenodd"/><path d="M119,89.46c1.75,1.62-2.94,1.52-2.6,3.52-1-.24-.22-.92-.23-1.53.26-1.17,2.11-1.16,2.83-2" style="fill:#58595b;fill-rule:evenodd"/><path d="M141.69,94.79l-.48.07c-1.1-.83-.25-1.27-.38-2.55,4.19.89,9,.9,13.31,1.67.29-3.28,2.19-5.35,5.29-6.54-1.27,2.52-5.91,4.88-2.43,8.2-2.45-1.61-6.27-1.35-10.09-1.11-.17-.58-1-.29-1.61-.28-1.36-.32-3.17-1.22-3.58.54" style="fill:#58595b;fill-rule:evenodd"/><path d="M131.12,79.81c.61,0,1.44-.31,1.61.28-.38.39-1.24,2.63-.13,2.63,0,.61-.72.67-1.45.74,0-1.22.52-2,0-3.65" style="fill:#58595b;fill-rule:evenodd"/><path d="M99.43,115.89c-1.53-3,2.91-5.41,3.45-8.35,2.49,1.94-3.48,5.23-3.45,8.35" style="fill:#58595b;fill-rule:evenodd"/><path d="M123.84,94a23.69,23.69,0,0,1-9.25,4.52A34.65,34.65,0,0,1,123.84,94" style="fill:#58595b;fill-rule:evenodd"/><path d="M103.87,114.18c1.79,3.72-7.32,14-10.4,7.3-1.31-2.86,1.32-7.93.44-11-.76-2.72-3.15-3-4.85-4.5,0-2.29,1.36-3.54,1.79-5.49,2.41,0,7.26,2.69,8.84-.28,2.2.72,5.07,2.38,7.46,1-1.17,4.12-8,3.56-12,3.37,1.46,2.42,5.26,3.91,3.85,8.3-.75,0-.41-1.49-1.25-1.38-1.1,2.51-5,8.23-.52,10.53.32-1.48-1.07-1.06,1.23-2.27a.52.52,0,0,1,.15,1c1.85-.31,3.63-4.58,5.29-6.54" style="fill:#58595b;fill-rule:evenodd"/><path d="M131.89,79.69c1.07-3.5,3.9,1.26,5.93,1.21,7.53-.2,17.52.68,24,3.2,4.22,1.65,6.26,4.72,9.24,5.93-7.08-4.22-18.41-5.69-28.17-6.76-1.24-.13-1.43-.87-2.71-.64-2,.37-6.56,4.57-6.49,2-4.24,1.68-11,3.51-13.93,4.69-.72.84-2.57.83-2.83,2-2.68,2.12-6,3.75-8.51,6l-.08-.51c.65-.88,2-1.24,2.25-2.43-1.62-.24-3.87,1.32-4.09.61.59-2.86,3.83-.77,5.54-1.35s2.21-2.2,3.71-3.17c4.59-3,10.69-4.9,16.17-7.11.74-.07,1.47-.14,1.46-.75.83-.6,2.52-.55,2.92-1.48-1.11-.14-1.82-.82-2.79-1.15-.17-.58-1-.29-1.61-.28" style="fill:#58595b;fill-rule:evenodd"/><path d="M141.59,93.91c.41-1.75,2.21-.85,3.58-.53-.19,1.92-3-.64-3,1-.42.16-.51-.13-.59-.44" style="fill:#58595b;fill-rule:evenodd"/><path d="M142.23,94.71c0-1.6,2.81,1,3-1,.62,0,1.44-.3,1.61.28l-1,.15c.29.43.59.85,1.17.87-.75,1.18-3.39-.28-4.75-.33" style="fill:#58595b;fill-rule:evenodd"/><path d="M120.22,104.73c-1.86.68-2.53-.25-4.16.1,17.4-6.64,37.72-5.41,55.24-11.39-1.31,1.91-3.47,3.19-6.77,3.62-1.84.61-5.19.1-6.06,1.43-6.09.83-15.37,4.31-20.28,4.08-1.07,0-1.92,0-1.26-1.38-2.47.29-1,3.47-3,4.11-2.16-1.39.19-1.08.05-3.14-2.95-1-6.93,1.22-9.63,2Z" style="fill:#58595b;fill-rule:evenodd"/><path d="M103.67,105.85c-.8,1.44-3.47.23-4.67.18,1.06-1.79,3.47-.23,4.67-.18" style="fill:#58595b;fill-rule:evenodd"/><path d="M124.31,104.12c.62,1.79-4.12,1.94-4.09.61Z" style="fill:#58595b;fill-rule:evenodd"/><path d="M94.64,143.25c.9-1.17,2-4.54,3.63-3.68,0,.6-.47.36-.51.08-.73.33.3.62.23,1.53-1.86-1.24-2.06,1.5-3.35,2.07" style="fill:#58595b;fill-rule:evenodd"/><path d="M93.87,143.36a25,25,0,0,0-4.7,7c-1-.8,1.18-3.05,1.43-4.4-2.44.23-2.74,1.65-2.91,1.48-3.72-2,3.55-2.77,4.22-3.24,3.51-2.5,6-8.22,10.22-12,4.38-3.9,9.12-6.52,13.16-9.8a23,23,0,0,0-4.31-.92c-1.44.66.85,1.19.38,2.55-1.41-.84-2.68-3.11-1.2-4.52,4.61,3.74,10-1.44,17.37-2.6,5-.78,10.78.8,14.69.42,2.82-.28,2.49-.33,4.75.33,3.06.9,6.63.87,9.22,2.28-11.91-.93-34.67-2.94-43.2,8l-.23-1.53c-5.23,4.52-12.6,8.1-15.26,13.25-1.6-.86-2.73,2.51-3.63,3.67" style="fill:#58595b;fill-rule:evenodd"/><path d="M105,142.22a9.07,9.07,0,0,1-2.1,3.45c-5.09,3.86-2.18-1.13,2-4Z" style="fill:#58595b;fill-rule:evenodd"/><path d="M105,141.71c8.81-8,16.76-16.69,32.6-19.51-13.8,4.49-22.68,12.6-32.52,20Z" style="fill:#58595b;fill-rule:evenodd"/><path d="M152.7,123.44l.1.66c-1.41-1.17.62-4.57,2.25-2.42-1.08-.81-1.67,1.06-2.32,1.91" style="fill:#58595b;fill-rule:evenodd"/><path d="M185.82,141.63c.68-1.3,7.59-1.65,3.65,0-.33-1.06-2.21.42-2.47.9-1.44.21,1-1.58-1.18-.87" style="fill:#58595b;fill-rule:evenodd"/><path d="M211.64,131.45c1.1-.26,1.69.17,1.76,1.3a29.77,29.77,0,0,1-3.8-1c.45,0,.45-.27.43-.58.72-.23-.05-1.55.79-1.69l.31,2.05Z" style="fill:#58595b;fill-rule:evenodd"/><path d="M210.82,129.48c.14-2.78,2.85-3.7,4.51-5.38-5.35-2.73-12.52-2-18.43-2.46-4.23-.31-6.65,3.18-10.61,3.67a27.25,27.25,0,0,0-11.06,4.27c-3.2,2.38-8.53,5.54-11.85,9.61-1.65-.95,1.88-1.95,1.63-3.38-1.38.22-3.33,0-2.37,1.92-.5-.15-1-.31-1.2-.87l-.23-1.53c7.4,0,15.32-8,23.21-11.83,2.19-1,4.46-.93,6.53-2.54-.92-.82-2.42-.87-3.42-1.58-.69.26-.24,1.35-.22,2.12-1-.33-1.38-1.42-1.5-2.91,2.38-2.28,3.56,1.73,6.1,1.7,3.61,0,7.93-1.71,11.51-1.2s8.8,2.81,12.2,3.4a24.52,24.52,0,0,1,10.8,4.66c-5.35-1.24-13.66-6.44-14.77,4.3l-.52.08Z" style="fill:#58595b;fill-rule:evenodd"/><path d="M115.71,147.93c1.42-1.83,4.61-2.34,6.77-3.62a2.57,2.57,0,0,1-1.3,1.76c-1.57-.14-3.14,1.82-5.47,1.86" style="fill:#58595b;fill-rule:evenodd"/><path d="M106.11,153.55c-4.41.23-6,2.53-8.82,3.93,2.61-4.5,7.95-3.88,12.6-6.59,4.26-2.48,7.28-7.18,11.7-9.06,2.4-1,5.3-.77,7.59-1.66s3.64-2.94,5.67-4c5-2.55,10.74-3,14.72-6.38,2.43-2,7.89-3.86,10.91-7.38-3.76,7.41-18.58,13.7-27.57,18.23-2.51,1.27-7.41,6.17-9,2.91-.17,3-3.66,8.39-2.76,2.5a2.61,2.61,0,0,0,1.31-1.76c-2.17,1.28-5.36,1.79-6.78,3.62-2.36.68-2.78,2.79-5.23,3.4-1,1-3.53,1-4.37,2.22" style="fill:#58595b;fill-rule:evenodd"/><path d="M140,128.63c-.58-3,.52-7.48,3.89-8.94-.76,2.47-3.77,5.69-1.84,8.63-4.43,2.15-10.73,3.36-15,4.34,2.44.59,6-.34,8.41.31-2.16,0-10.55,3.22-10.68-1.54,4.78-.79,10.48-2.25,15.25-2.8" style="fill:#58595b;fill-rule:evenodd"/><path d="M197.12,126.36c1-1.7,6-.4,7-2.1,1.57-.49,1.94.65,3.65,0-2.38,1.57-7.29,1.27-10.65,2.12" style="fill:#58595b;fill-rule:evenodd"/><path d="M222.49,128.31c-.52.68-1.72.85-3,1-1-2.13,2.86-3.54,3-1" style="fill:#58595b;fill-rule:evenodd"/><path d="M208.25,131a62.44,62.44,0,0,1-11.47.15c1.22,1.83,4.58.78,6.52,1.64-2.12,1-6.74.1-8.13-1.93,3-2.7,8.81.55,13.52-.45,0,.32,0,.62-.44.59" style="fill:#58595b;fill-rule:evenodd"/><path d="M175.83,144.69a33.71,33.71,0,0,0-7.67,1.15c3.14-2.79,7.46-1.54,11.6-2.79,3.1-.93,5.61-3.61,8.74-4.44,5-1.33,11-1.92,16.28-3,7.81-1.54,15.6-2.55,22.1-5.92-8.09,6.58-23.41,9.48-34.93,11-1.8.49-.67,3.14-2.61,3.52-1.26-.89-.18-1.66.13-2.63,3.94-1.62-3-1.27-3.65,0-2.85-.14-2.84,1.84-5.47,1.86a11.17,11.17,0,0,1-4.52,1.2" style="fill:#58595b;fill-rule:evenodd"/><path d="M106.11,153.55c.84-1.2,3.33-1.17,4.37-2.22,1.54,1.47-2.53,1.83-3.2,3.09-.16-.42.13-.51.43-.59-.17-.58-1-.29-1.6-.28" style="fill:#58595b;fill-rule:evenodd"/><path d="M159.4,146.62c-1.05,2.42-2.7,0-5.11.77.58-2.52,3.61-.75,5.11-.77" style="fill:#58595b;fill-rule:evenodd"/><path d="M180.59,143.45c1.34,1-3.49,3-4.37,2.23l-.15-1a11,11,0,0,0,4.52-1.2" style="fill:#58595b;fill-rule:evenodd"/><path d="M159,147.72c1.33,3.26-3.12,6.17-3.81,9.45-1.1-3.09,3-6.3,3.81-9.45" style="fill:#58595b;fill-rule:evenodd"/><path d="M87,172.6c-1.77-3.89,1.19-8.21,1.9-11.78,2,4.1-2,7.58-1.9,11.78" style="fill:#58595b;fill-rule:evenodd"/><path d="M154.54,163a3.68,3.68,0,0,0-1.69-.79c-.57-1.33,2.47,0,1.89-1.33,1.82-.21-.83,1.85.75,1.46-.06.41-.34.66-1,.66" style="fill:#58595b;fill-rule:evenodd"/><path d="M129.53,170.42c1.1.83.24,1.28.38,2.56-.72-.06-.62-1.22-.82-2a11.68,11.68,0,0,0-2.91,1.48c-1-.5,2-1.82,3.35-2.07" style="fill:#58595b;fill-rule:evenodd"/><path d="M119.63,192.68c7-3.5,16.46-7.46,20.16-11.9,6.41-1.43,10.31-5.51,18.86-10.13,6.39-3.44,21.76-11.25,19.8-.35-.5.06-.49-.56-.66-.94-.78,1.43-.6,6.38,1.63,3.93l3.58-.53,3.06-.46c4.36,1.56,6.72-1.79,10.5-3.14l.08.51c-2.17,1.58-5.57,2.24-6.62,4.65.66-.07.81.55,1.61.28.06.5-.56.49-.94.66-2.2-3.17-7.72-1.82-13,.38-2.38-1.94-1.17-5.79-1.88-9.12-24.69,6.31-34,18.84-55.58,26.6-.32,0-.62,0-.59-.44" style="fill:#58595b;fill-rule:evenodd"/><path d="M120.86,180.6c-3,.08-4.11,1.5-7.08,1.58-1.54-1.27-.24-3.2-.76-5.11-14,1.48-21.67,11.54-34.24,15.57,11.75-5.13,21.28-16.62,35.62-16.82,1.15,2.52-1.22,2.43-.33,4.75,1.38,1,4.61-.5,6.72-.48Z" style="fill:#58595b;fill-rule:evenodd"/><path d="M216.05,164.45l-3.75.56c-.41-.77.12-1.58.1-2.81-4.38-.59-7.65,3.37-11.88,4.39,3.07-2.32,7.63-5.8,12.83-5.05.68,1.71-.47,2.08.47,6.61l1-.16c0-3.11.07-2.82.14-2.51" style="fill:#58595b;fill-rule:evenodd"/><path d="M196.5,168.76c.56-.68,2.37-2.74,3.43-1.55-1.55.36-2.13,1.45-3.35,2.06Z" style="fill:#58595b;fill-rule:evenodd"/><path d="M220.76,165.66c2.54-.85,4.56-1.38,6.13-.92a13.34,13.34,0,0,1-6.13.92" style="fill:#58595b;fill-rule:evenodd"/><path d="M219.35,173.7c-.82,1.66-2.78-.29-3.73-.48.8-1.64,2.11,1.19,3.73.48" style="fill:#58595b;fill-rule:evenodd"/><path d="M137.67,88.66c.92-1,5.47-1.69,6.64-1Z" style="fill:#58595b;fill-rule:evenodd"/><path d="M144.31,87.67c3.72-1.47,5.75.11,9.87-.43-10.47.39-20.28,4-30.28,7.14a44.83,44.83,0,0,1,13.77-5.72Z" style="fill:#58595b;fill-rule:evenodd"/><path d="M108.41,97.31A1.43,1.43,0,0,1,107,98.56c1.11-.54-1-3.47,1.08-3.3.24.86-.67,1.46.23,1.54Z" style="fill:#58595b;fill-rule:evenodd"/><path d="M164.73,91.34l2.54-.38c.82,3-2.47,3.48-2.55.39" style="fill:#58595b;fill-rule:evenodd"/><path d="M158.5,98.7c.87-1.33,4.22-.82,6.06-1.43-.87,1.33-4.22.82-6.06,1.43" style="fill:#58595b;fill-rule:evenodd"/><path d="M154.12,121.82c.21.9-.46,1.17-.2,2.11-.91.21-1.17-.46-2.12-.2.65-.85,1.24-2.72,2.32-1.91" style="fill:#58595b;fill-rule:evenodd"/><path d="M197.12,126.36c-9.49,3-17.46,7.08-25.5,11.12,8.54-5.84,19.16-12.42,32.5-13.22-1,1.7-6,.4-7,2.1" style="fill:#58595b;fill-rule:evenodd"/><path d="M155.49,162.36c1.41-2.29,3-4.45,4.19-6.9.53,3.91-2.65,10.75-7.47,9.48-5.55-1.46-1-9.58-3.16-14.16-.79-1.65-3.92-2-4.62-3,.13-2.18,1.08-3.75,1.2-5.93,2.53-.11,8.42,2.88,9.28-.86,1.82.44,5.84,2.95,6.87.54,1.25,3.72-7.14,4.32-11.37,4.31,1.23,3.05,5.13,2.49,5.23,7.05-1.38.64-1.43-.52-2.63-.13,1.24,1.68-5.21,9,1.53,10.22.61,0,.89-.24,1-.66" style="fill:#58595b;fill-rule:evenodd"/><path d="M90.55,154.31c-.37,2.76-2.81,4-5.52,5,1.72.72,2.19,1.32,4.24.41,0,1.79-3.76.86-4.37,2.22-1.78-.21-.62-1.08-.31-2-2.1.26-4.2.53-5.54,1.35,2.18,2.85,8.14,3,6.41,7.93-.7-.49-1.15-1.32-2.71-.64C84.6,170.79,81,179.41,86,180.06c4.31.55,3.87-8.14,5.63-11.29,3.18,8.87-5.89,18.75-10.69,8.91-1.24-2.55-.27-7.64-2-10.14-1.29-1.83-5.71-1.56-6.66-2.66-.73-2.81.58-4.11,0-6.79,3.6-.73,9.1.46,10.42-3.66,2.44,2.12,4.9.28,7.82-.12" style="fill:#58595b;fill-rule:evenodd"/><path d="M214.4,165c.39-1.47,2.66-.4,3.57-.53.11,1.13-2.13.54-3,1-.07-.31-.16-.6-.58-.44" style="fill:#58595b;fill-rule:evenodd"/><path d="M120.79,180.09c2.08,3,6-.1,9.5.67-1.54,1.43-5.59,1-8.1,1.73.16-1.45-1.17-.88-1.33-1.89Z" style="fill:#58595b;fill-rule:evenodd"/><path d="M207.21,172.91c1.62-.35,4.57-2,6.14-.92-2.48,0-3.43,1.1-5.55,1.35-.42.16-.51-.13-.59-.43" style="fill:#58595b;fill-rule:evenodd"/><path d="M179.58,173.27c-2.23,2.44-2.41-2.51-1.63-3.94.17.38.16,1,.66.95.19,1.2-.65,1.64-.05,3.14Z" style="fill:#58595b;fill-rule:evenodd"/><path d="M191.73,174.18c6.16-2.23,9.48-1.64,15.49-1.27.07.3.16.59.58.43-5.1,1.16-11.28.34-17,1.5.38-.17,1-.16.94-.66" style="fill:#58595b;fill-rule:evenodd"/><path d="M169.94,238.66l-9.58,1.43a.18.18,0,0,0-.24-.08c-20.29,1.92-36.83-3.31-50.49-10.72a56,56,0,0,1-6-3.3c-1-.74-1.91-1.81-3-2.58s-2.33-1.37-3.35-2.18a87.14,87.14,0,0,1-12.1-12.39,70.58,70.58,0,0,1-10-15c2.92.59,5.58.06,8.24.63,4.75,1,9.48,3.86,14.68,4,5.69.12,11.92-3.65,17.25-4.44,5.9-.89,12.15,0,17.59,0,3,.06,5.93-.46,9-.53s6.25-.15,9.28-.22c1.1,0,2.14-.23,3.22-.25.82,0,1.66.29,2.48.21s2.12-.51,2.94-.56c2-.1,4.34.24,6.42.09.69,0,1.37-.28,2-.3,1.29-.05,2.92.71,3.88-.58a43.85,43.85,0,0,0-7.33.05c-.9,0-1.84.4-2.73.4-1.05,0-2-.38-3.08-.35-1.21,0-2.49.45-3.66.43-1,0-1.83-.94-2.82-1-1.87-.06-3.66.87-5.47.81-.68,0-1.38-.29-2-.28-3,.07-5.84,1.39-8.81,1-1.18-.16-2.07-.82-3-.94-1.57-.17-2.93.48-4.71.48-.64,0-1.32-.23-2-.29s-1.46.18-1.82-.54a17.22,17.22,0,0,1,5.11-1.58c5.43-1.3,10.66-3.07,16.37-4.19a45.76,45.76,0,0,1,11.12-.38,37,37,0,0,0,11.22-1.22c3.65-.94,7.08-2.11,10.61-3a52.59,52.59,0,0,1,11.43-1.36,136.87,136.87,0,0,0,17.17-1.17c2.13-.32,4.18-1.13,5.53-.36-10.88,3.82-18.82,9.83-30.38,13.15.43.29.54.4,0,.93-.84.85-2.68,1.54-4.2,2.26s-3.14,1.4-4.6,2c-9.89,3.82-18.28,8.24-26.85,12.63C136,215.09,125,220.94,116.62,228.59c-.14.14-.62.32-.48.66a28.08,28.08,0,0,0,4.8-2.93c1.4-1.07,2.75-2.59,4.54-3.12.61-.19,1.49,0,2.18-.21,1.44-.48,2.05-2.07,3.07-2.79a45.78,45.78,0,0,1,5.52-2.81c1.81-.91,3.62-2,5.38-2.9,24.2-12.23,48-24.06,73.59-35.56a46.1,46.1,0,0,1,5.89-2.62,60.55,60.55,0,0,1,7.95-1.31c2.51-.35,4.9-.65,7.31-1a88.49,88.49,0,0,1-8.71,21.91,55.3,55.3,0,0,1-3.9,6.63c-.73,1-1.7,1.72-2.39,2.69s-1.14,2.11-1.87,3.07a74.33,74.33,0,0,1-9.59,9.81,85.71,85.71,0,0,1-40.79,20.65m59.29-61.92c-1.07.62-2.26,1.08-3.35,1.67C192.23,196,156,211.07,129.52,233.09c2.48-.41,3.32-2.9,5.4-3.6.59-.21,1.3-.05,1.93-.29.94-.37,1.66-1.38,2.49-2,3.36-2.51,7.35-4.53,11.21-6.79,19-11.13,39.13-21.86,58.7-32.41,6.86-3.7,14.26-7.21,20.53-11.33.83-.54,2.47-1,2-1.94-1.4.46-2.22,1.46-3.41,2.14m-88.47,24.76c-4.8.16-9.55-.3-14.23-.2a62.49,62.49,0,0,0-7.66.91c-2.74.4-5.32-.06-8.1.28-1.08-1.83-3.69-.75-6.26-.58-5.81.4-13.67-2.21-18.48.91a124.17,124.17,0,0,0,24.27.44c2.86-.18,5.84-.63,8.75-.61,4.08,0,8.16.28,12.34,0,2.13-.14,4.32-.23,6.46-.39s4.51-.58,6.67-.53c.9,0,2.36.56,3.34-.26-2.35-.61-4.75-.07-7.1,0M149.15,236a8.89,8.89,0,0,0,1.75-1.55c1.52-1.4,3.85-3.92,5.73-4.46.44-.13,1.1,0,1.61-.13a11.92,11.92,0,0,0,2-1.46c20.45-15.71,47.51-27.12,68.07-42.18l-.23,0c-7.86,3-14,8-21.36,12-21.68,11.94-43.85,23.24-60.58,38.51,1-.75,2.06-.4,3-.8m-32.52-21.31c-6.58.61-13.08-.83-19.28,1a48.11,48.11,0,0,0,8.89.3c3.24-.16,6.68-.8,9.78-.77,1.41,0,3.1.67,4.25-.4a11.75,11.75,0,0,0-3.64-.15M168,234.09c7.19-1.08,10.49-4.71,14.86-8a108.09,108.09,0,0,1,9.19-6.27c6.43-3.93,12.14-8.63,19.27-12,2.51-2.42,6.71-3.61,8.18-6.81,0-.14.14-.26-.15-.21-18.12,10.36-35.81,21-51.35,33.29" style="fill:#58595b;fill-rule:evenodd"/><path d="M136.56,56.85a95.2,95.2,0,1,0,108.23,80.07A95.21,95.21,0,0,0,136.56,56.85m27.95,186.92a93.8,93.8,0,1,1,78.9-106.65,93.8,93.8,0,0,1-78.9,106.65" style="fill:#58595b"/></svg>