<svg xmlns="http://www.w3.org/2000/svg" viewBox="0 0 300 164.95"><title>v</title><path d="M36.82,23H56.67V73a.55.55,0,0,0,.55.54H83.35a.54.54,0,0,0,.54-.54V23h19.86a.55.55,0,0,0,.54-.55V.65a.54.54,0,0,0-.54-.54H36.82a.55.55,0,0,0-.55.54h0V22.47a.55.55,0,0,0,.55.55Z" style="fill:#ff4338"/><path d="M110.51,73.58h26.13a.54.54,0,0,0,.54-.54V48.6h18.44V73a.54.54,0,0,0,.54.54h26.13a.55.55,0,0,0,.55-.54V.55a.55.55,0,0,0-.55-.55H156.11a.55.55,0,0,0-.55.55v25H137.13V.55a.55.55,0,0,0-.55-.55H110.51a.55.55,0,0,0-.55.55V73A.55.55,0,0,0,110.51,73.58Z" style="fill:#ff4338"/><path d="M195.27,73.58h60.49a.55.55,0,0,0,.55-.54V53.18a.55.55,0,0,0-.55-.54H220.85V47h28.7a.55.55,0,0,0,.54-.55V26.35a.54.54,0,0,0-.54-.55H220.91V20.73H255a.55.55,0,0,0,.55-.55V.55A.55.55,0,0,0,255,0H195.27a.54.54,0,0,0-.54.55V73A.54.54,0,0,0,195.27,73.58Z" style="fill:#ff4338"/><path d="M59.18,139.75A25.64,25.64,0,0,0,69,117.93c0-16.37-9.76-26.73-25.47-26.73H.55a.54.54,0,0,0-.55.55H0V164.4a.55.55,0,0,0,.55.55H25.91a.55.55,0,0,0,.54-.55V145.2H33l6.6,19.31a.53.53,0,0,0,.49.38H68.56a.55.55,0,0,0,.52-.57.35.35,0,0,0,0-.14Zm-32.73-26.4H37.36A4.68,4.68,0,0,1,42,118.14a3.68,3.68,0,0,1-.06.66,4.8,4.8,0,0,1-4.09,5.42,4.57,4.57,0,0,1-1,0H26.45Z" style="fill:#ff4338"/><path d="M138.44,144H103.53v-5.78h28.69a.55.55,0,0,0,.54-.55V117.93a.55.55,0,0,0-.54-.55H103.53v-5.07H137.4a.55.55,0,0,0,.55-.55V91.91a.55.55,0,0,0-.55-.55H78a.55.55,0,0,0-.55.55h0V164.4A.55.55,0,0,0,78,165h60.49a.55.55,0,0,0,.54-.55V144.49A.54.54,0,0,0,138.44,144Z" style="fill:#ff4338"/><path d="M185.07,91.36H149.45a.55.55,0,0,0-.54.55V164.4a.55.55,0,0,0,.54.55h33.33c24.87,0,37.53-12.6,37.53-37.42S209.13,91.36,185.07,91.36Zm-9,21.49h6.6c8.57,0,10.37,8.24,10.37,15.11,0,10.37-4.09,15.44-12.55,15.44h-4.42Z" style="fill:#ff4338"/><path d="M264.76,91.36H229.15a.55.55,0,0,0-.55.55V164.4a.55.55,0,0,0,.55.55h33.32c24.88,0,37.53-12.6,37.53-37.42S288.82,91.36,264.76,91.36Zm-9,21.49h6.6c8.57,0,10.37,8.24,10.37,15.11,0,10.37-4.09,15.44-12.55,15.44h-4.42Z" style="fill:#ff4338"/></svg>